<?xml version='1.0' encoding='UTF-8' standalone='no'?>
<svg height="304pt" viewBox="0 0 405 304" width="405pt" xmlns="http://www.w3.org/2000/svg" xmlns:xlink="http://www.w3.org/1999/xlink">
 <title>Figure 8</title>
 <desc>
Creator: GL2PS 1.4.2, (C) 1999-2020 C. Geuzaine
For: Octave
CreationDate: Mon Sep  8 17:04:49 2025
</desc>
 <defs/>
 <polygon fill="#ffffff" points="0,0 405,0 405,304 0,304"/>
 <g>
  <polygon fill="#ffffff" points="0,304 405,304 405,0 0,0" shape-rendering="crispEdges"/>
  <clipPath id="cp00405304">
   <polygon points="0,304 405,304 405,0 0,0"/>
  </clipPath>
  <g clip-path="url(#cp00405304)">
   <polygon fill="#ffffff" points="68.0076,270.829 367.225,270.829 367.225,34 68.0076,34" shape-rendering="crispEdges"/>
   <polyline fill="none" points="68.0076,270.829 68.0076,267.839" stroke="#262626" stroke-linecap="butt" stroke-linejoin="miter" stroke-width="0.5"/>
   <polyline fill="none" points="127.851,270.829 127.851,267.839" stroke="#262626" stroke-linecap="butt" stroke-linejoin="miter" stroke-width="0.5"/>
   <polyline fill="none" points="187.695,270.829 187.695,267.839" stroke="#262626" stroke-linecap="butt" stroke-linejoin="miter" stroke-width="0.5"/>
   <polyline fill="none" points="247.538,270.829 247.538,267.839" stroke="#262626" stroke-linecap="butt" stroke-linejoin="miter" stroke-width="0.5"/>
   <polyline fill="none" points="307.382,270.829 307.382,267.839" stroke="#262626" stroke-linecap="butt" stroke-linejoin="miter" stroke-width="0.5"/>
   <polyline fill="none" points="367.225,270.829 367.225,267.839" stroke="#262626" stroke-linecap="butt" stroke-linejoin="miter" stroke-width="0.5"/>
   <g font-family="FreeSans" font-size="10" font-style="normal" font-weight="normal" transform="translate(65.0076,286.324) rotate(-0,3,-8)" xml:space="preserve">
    <text fill="rgb(38,38,38)" x="0 " y="-0">0</text>
   </g>
   <g font-family="FreeSans" font-size="10" font-style="normal" font-weight="normal" transform="translate(120.351,286.324) rotate(-0,7.5,-8)" xml:space="preserve">
    <text fill="rgb(38,38,38)" x="0 6 9 " y="-0">0.2</text>
   </g>
   <g font-family="FreeSans" font-size="10" font-style="normal" font-weight="normal" transform="translate(180.195,286.324) rotate(-0,7.5,-8)" xml:space="preserve">
    <text fill="rgb(38,38,38)" x="0 6 9 " y="-0">0.4</text>
   </g>
   <g font-family="FreeSans" font-size="10" font-style="normal" font-weight="normal" transform="translate(240.038,286.324) rotate(-0,7.5,-8)" xml:space="preserve">
    <text fill="rgb(38,38,38)" x="0 6 9 " y="-0">0.6</text>
   </g>
   <g font-family="FreeSans" font-size="10" font-style="normal" font-weight="normal" transform="translate(299.882,286.324) rotate(-0,7.5,-8)" xml:space="preserve">
    <text fill="rgb(38,38,38)" x="0 6 9 " y="-0">0.8</text>
   </g>
   <g font-family="FreeSans" font-size="10" font-style="normal" font-weight="normal" transform="translate(364.225,286.324) rotate(-0,3,-8)" xml:space="preserve">
    <text fill="rgb(38,38,38)" x="0 " y="-0">1</text>
   </g>
   <polyline fill="none" points="68.0076,270.829 71.0019,270.829" stroke="#262626" stroke-linecap="butt" stroke-linejoin="miter" stroke-width="0.5"/>
   <polyline fill="none" points="68.0076,236.997 71.0019,236.997" stroke="#262626" stroke-linecap="butt" stroke-linejoin="miter" stroke-width="0.5"/>
   <polyline fill="none" points="68.0076,203.164 71.0019,203.164" stroke="#262626" stroke-linecap="butt" stroke-linejoin="miter" stroke-width="0.5"/>
   <polyline fill="none" points="68.0076,169.331 71.0019,169.331" stroke="#262626" stroke-linecap="butt" stroke-linejoin="miter" stroke-width="0.5"/>
   <polyline fill="none" points="68.0076,135.498 71.0019,135.498" stroke="#262626" stroke-linecap="butt" stroke-linejoin="miter" stroke-width="0.5"/>
   <polyline fill="none" points="68.0076,101.666 71.0019,101.666" stroke="#262626" stroke-linecap="butt" stroke-linejoin="miter" stroke-width="0.5"/>
   <polyline fill="none" points="68.0076,67.8328 71.0019,67.8328" stroke="#262626" stroke-linecap="butt" stroke-linejoin="miter" stroke-width="0.5"/>
   <polyline fill="none" points="68.0076,34 71.0019,34" stroke="#262626" stroke-linecap="butt" stroke-linejoin="miter" stroke-width="0.5"/>
   <g font-family="FreeSans" font-size="10" font-style="normal" font-weight="normal" transform="translate(36.0039,274.829) rotate(-0,27,-4)" xml:space="preserve">
    <text fill="rgb(38,38,38)" x="0 3 9 15 21 " y="-0">-6000</text>
   </g>
   <g font-family="FreeSans" font-size="10" font-style="normal" font-weight="normal" transform="translate(36.0039,240.997) rotate(-0,27,-4)" xml:space="preserve">
    <text fill="rgb(38,38,38)" x="0 3 9 15 21 " y="-0">-4000</text>
   </g>
   <g font-family="FreeSans" font-size="10" font-style="normal" font-weight="normal" transform="translate(36.0039,207.164) rotate(-0,27,-4)" xml:space="preserve">
    <text fill="rgb(38,38,38)" x="0 3 9 15 21 " y="-0">-2000</text>
   </g>
   <g font-family="FreeSans" font-size="10" font-style="normal" font-weight="normal" transform="translate(57.0039,173.331) rotate(-0,6,-4)" xml:space="preserve">
    <text fill="rgb(38,38,38)" x="0 " y="-0">0</text>
   </g>
   <g font-family="FreeSans" font-size="10" font-style="normal" font-weight="normal" transform="translate(39.0039,139.498) rotate(-0,24,-4)" xml:space="preserve">
    <text fill="rgb(38,38,38)" x="0 6 12 18 " y="-0">2000</text>
   </g>
   <g font-family="FreeSans" font-size="10" font-style="normal" font-weight="normal" transform="translate(39.0039,105.666) rotate(-0,24,-4)" xml:space="preserve">
    <text fill="rgb(38,38,38)" x="0 6 12 18 " y="-0">4000</text>
   </g>
   <g font-family="FreeSans" font-size="10" font-style="normal" font-weight="normal" transform="translate(39.0039,71.8328) rotate(-0,24,-4)" xml:space="preserve">
    <text fill="rgb(38,38,38)" x="0 6 12 18 " y="-0">6000</text>
   </g>
   <g font-family="FreeSans" font-size="10" font-style="normal" font-weight="normal" transform="translate(39.0039,38) rotate(-0,24,-4)" xml:space="preserve">
    <text fill="rgb(38,38,38)" x="0 6 12 18 " y="-0">8000</text>
   </g>
   <polyline fill="none" points="68.0076,270.829 367.225,270.829" stroke="#262626" stroke-dasharray="16,0" stroke-linecap="square" stroke-linejoin="miter" stroke-width="0.5"/>
   <polyline fill="none" points="68.0076,270.829 68.0076,34" stroke="#262626" stroke-dasharray="16,0" stroke-linecap="square" stroke-linejoin="miter" stroke-width="0.5"/>
   <defs>
    <path d="M2.859278-2.34122C3.158157-2.719801 3.536737-3.20797 3.775841-3.466999C4.084682-3.825654 4.493151-3.975093 4.961395-3.985056V-4.293898C4.702366-4.273973 4.403487-4.26401 4.144458-4.26401C3.845579-4.26401 3.317559-4.283935 3.188045-4.293898V-3.985056C3.39726-3.965131 3.476961-3.835616 3.476961-3.676214S3.377335-3.387298 3.327522-3.327522L2.709838-2.550436L1.932752-3.556663C1.843088-3.656289 1.843088-3.676214 1.843088-3.73599C1.843088-3.88543 1.992528-3.975093 2.191781-3.985056V-4.293898C1.932752-4.283935 1.275218-4.26401 1.115816-4.26401C.9066-4.26401 .438356-4.273973 .169365-4.293898V-3.985056C.86675-3.985056 .876712-3.975093 1.344956-3.377335L2.331258-2.092154L1.39477-.9066C.916563-.328767 .328767-.308842 .119552-.308842V0C.37858-.019925 .687422-.029888 .946451-.029888C1.235367-.029888 1.653798-.009963 1.892902 0V-.308842C1.673724-.33873 1.603985-.468244 1.603985-.617684C1.603985-.836862 1.892902-1.165629 2.500623-1.882939L3.257783-.886675C3.337484-.777086 3.466999-.617684 3.466999-.557908C3.466999-.468244 3.377335-.318804 3.108344-.308842V0C3.407223-.009963 3.965131-.029888 4.184309-.029888C4.4533-.029888 4.841843-.019925 5.140722 0V-.308842C4.60274-.308842 4.423412-.328767 4.194271-.617684L2.859278-2.34122Z" id="0-g0-120"/>
   </defs>
   <g fill="rgb(38,38,38)" transform="translate(425.616345,507.323965) matrix(3 0 0 3 0 0)">
    <use x="-72.000004" xlink:href="#0-g0-120" y="-67.710548"/>
   </g>
   <defs>
    <path d="M3.486924-.557908C3.596513-.14944 3.945205 .109589 4.373599 .109589C4.722291 .109589 4.951432-.119552 5.110834-.438356C5.280199-.797011 5.409714-1.404732 5.409714-1.424658C5.409714-1.524284 5.32005-1.524284 5.290162-1.524284C5.190535-1.524284 5.180573-1.484433 5.150685-1.344956C5.011208-.787049 4.821918-.109589 4.403487-.109589C4.194271-.109589 4.094645-.239103 4.094645-.56787C4.094645-.787049 4.214197-1.255293 4.293898-1.603985L4.572852-2.67995C4.60274-2.82939 4.702366-3.20797 4.742217-3.35741C4.79203-3.58655 4.891656-3.965131 4.891656-4.024907C4.891656-4.204234 4.752179-4.293898 4.60274-4.293898C4.552927-4.293898 4.293898-4.283935 4.214197-3.945205C4.024907-3.217933 3.58655-1.474471 3.466999-.946451C3.457036-.9066 3.058531-.109589 2.331258-.109589C1.8132-.109589 1.713574-.557908 1.713574-.926526C1.713574-1.484433 1.992528-2.271482 2.251557-2.958904C2.371108-3.257783 2.420922-3.39726 2.420922-3.58655C2.420922-4.034869 2.102117-4.403487 1.603985-4.403487C.657534-4.403487 .288917-2.958904 .288917-2.86924C.288917-2.769614 .388543-2.769614 .408468-2.769614C.508095-2.769614 .518057-2.789539 .56787-2.948941C.816936-3.815691 1.195517-4.184309 1.574097-4.184309C1.663761-4.184309 1.823163-4.174346 1.823163-3.855542C1.823163-3.616438 1.713574-3.327522 1.653798-3.178082C1.285181-2.191781 1.075965-1.574097 1.075965-1.085928C1.075965-.139477 1.763387 .109589 2.30137 .109589C2.958904 .109589 3.317559-.33873 3.486924-.557908Z" id="1-g1-117"/>
    <path d="M3.327522-3.008717C3.387298-3.267746 3.616438-4.184309 4.313823-4.184309C4.363636-4.184309 4.60274-4.184309 4.811955-4.054795C4.533001-4.004981 4.333748-3.755915 4.333748-3.516812C4.333748-3.35741 4.443337-3.16812 4.712329-3.16812C4.931507-3.16812 5.250311-3.347447 5.250311-3.745953C5.250311-4.26401 4.662516-4.403487 4.323786-4.403487C3.745953-4.403487 3.39726-3.875467 3.277709-3.646326C3.028643-4.303861 2.49066-4.403487 2.201743-4.403487C1.165629-4.403487 .597758-3.118306 .597758-2.86924C.597758-2.769614 .697385-2.769614 .71731-2.769614C.797011-2.769614 .826899-2.789539 .846824-2.879203C1.185554-3.935243 1.843088-4.184309 2.181818-4.184309C2.371108-4.184309 2.719801-4.094645 2.719801-3.516812C2.719801-3.20797 2.550436-2.540473 2.181818-1.145704C2.022416-.52802 1.673724-.109589 1.235367-.109589C1.175592-.109589 .946451-.109589 .737235-.239103C.986301-.288917 1.205479-.498132 1.205479-.777086C1.205479-1.046077 .986301-1.125778 .836862-1.125778C.537983-1.125778 .288917-.86675 .288917-.547945C.288917-.089664 .787049 .109589 1.225405 .109589C1.882939 .109589 2.241594-.587796 2.271482-.647572C2.391034-.278954 2.749689 .109589 3.347447 .109589C4.373599 .109589 4.941469-1.175592 4.941469-1.424658C4.941469-1.524284 4.851806-1.524284 4.821918-1.524284C4.732254-1.524284 4.712329-1.484433 4.692403-1.414695C4.363636-.348692 3.686177-.109589 3.367372-.109589C2.978829-.109589 2.819427-.428394 2.819427-.767123C2.819427-.986301 2.879203-1.205479 2.988792-1.643836L3.327522-3.008717Z" id="1-g1-120"/>
    <path d="M2.022416-3.291656C2.078207-3.410212 2.085181-3.466002 2.085181-3.514819C2.085181-3.731009 1.889913-3.898381 1.673724-3.898381C1.408717-3.898381 1.325031-3.682192 1.290162-3.57061L.369614-.550934C.36264-.536986 .334745-.446326 .334745-.439352C.334745-.355666 .550934-.285928 .606725-.285928C.655542-.285928 .662516-.299875 .711333-.404483L2.022416-3.291656Z" id="1-g0-48"/>
    <path d="M3.297634 2.391034C3.297634 2.361146 3.297634 2.34122 3.128269 2.171856C1.882939 .916563 1.564134-.966376 1.564134-2.49066C1.564134-4.224159 1.942715-5.957659 3.16812-7.202989C3.297634-7.32254 3.297634-7.342466 3.297634-7.372354C3.297634-7.442092 3.257783-7.47198 3.198007-7.47198C3.098381-7.47198 2.201743-6.794521 1.613948-5.529265C1.105853-4.433375 .986301-3.327522 .986301-2.49066C.986301-1.713574 1.09589-.508095 1.643836 .617684C2.241594 1.843088 3.098381 2.49066 3.198007 2.49066C3.257783 2.49066 3.297634 2.460772 3.297634 2.391034Z" id="1-g2-40"/>
    <path d="M2.879203-2.49066C2.879203-3.267746 2.769614-4.473225 2.221669-5.599004C1.62391-6.824408 .767123-7.47198 .667497-7.47198C.607721-7.47198 .56787-7.43213 .56787-7.372354C.56787-7.342466 .56787-7.32254 .757161-7.143213C1.733499-6.156912 2.30137-4.572852 2.30137-2.49066C2.30137-.787049 1.932752 .966376 .697385 2.221669C.56787 2.34122 .56787 2.361146 .56787 2.391034C.56787 2.450809 .607721 2.49066 .667497 2.49066C.767123 2.49066 1.663761 1.8132 2.251557 .547945C2.759651-.547945 2.879203-1.653798 2.879203-2.49066Z" id="1-g2-41"/>
   </defs>
   <g fill="rgb(38,38,38)" transform="rotate(-90.000000,31.003918,152.414659) translate(215.003931,337.414672) matrix(3 0 0 3 0 0)">
    <use x="-72.000004" xlink:href="#1-g1-117" y="-64.510268"/>
    <use x="-66.296809" xlink:href="#1-g0-48" y="-68.125632"/>
    <use x="-63.501733" xlink:href="#1-g2-40" y="-64.510268"/>
    <use x="-59.627359" xlink:href="#1-g1-120" y="-64.510268"/>
    <use x="-53.933427" xlink:href="#1-g2-41" y="-64.510268"/>
   </g>
   <g font-family="FreeSans" font-size="30" font-style="normal" font-weight="bold" transform="translate(153.616,24) rotate(-0,64,0)" xml:space="preserve">
    <text fill="rgb(0,0,0)" x="0 22 39 51 59 75 92 111 " y="-1">Derivada</text>
   </g>
   <polyline fill="none" points="282.227,134.392 284.333,139.988 286.423,145.541 288.496,151.049 290.552,156.511 292.59,161.946 294.609,167.555 296.609,173.112 298.59,178.615 300.551,184.063 302.492,189.454 304.412,194.787 306.311,200.061 308.188,203.045 310.042,203.065 311.874,203.084 313.683,203.104 315.468,203.124 317.229,203.143 318.966,203.161 320.678,203.18 322.364,203.156 324.025,199.915 325.66,196.725 327.268,193.588 328.849,190.502 330.403,187.47 331.929,184.492 333.428,181.569 334.897,178.701 336.338,175.89 337.75,173.225 339.132,170.807" stroke="#00ff00" stroke-linecap="butt" stroke-linejoin="round" stroke-width="0.5"/>
   <polyline fill="none" points="366.123,141.653 366.389,141.534 366.618,141.432 366.81,141.346 366.966,141.276 367.086,141.223 367.168,141.186 367.214,141.166" stroke="#00ff00" stroke-linecap="butt" stroke-linejoin="round" stroke-width="0.5"/>
   <polyline fill="none" points="68.0183,59.2208 68.0643,59.7823 68.1469,60.7925 68.2662,62.2512 68.4222,64.1582 68.6148,66.5128 68.844,69.3148 69.1097,72.5632 69.4119,76.2573 69.7505,80.3962 70.1253,84.979 70.5364,90.0044 70.9836,95.4713 71.4668,101.378 71.9859,107.724 72.5407,114.506 73.1311,121.724 73.757,129.376 74.4183,137.46 75.1146,145.973 75.846,154.914 76.6122,164.28 77.413,174.07 78.2482,184.28 79.1176,194.909 80.021,205.953 80.9582,217.411 81.929,229.278 82.9331,241.553 83.9702,238.233 85.0402,234.225 86.1427,230.095 87.2774,225.845" stroke="#00ff00" stroke-linecap="butt" stroke-linejoin="round" stroke-width="0.5"/>
   <polyline fill="none" points="138.623,202.531 140.624,194.559 142.643,186.511 144.681,173.493 146.736,159.914 148.809,146.22 150.899,132.415 153.006,118.502 155.128,104.483 157.265,90.3635 159.418,99.7788 161.584,116.598 163.765,133.525 165.958,150.554 168.164,167.681 170.383,184.902 172.613,202.214 174.854,206.728 177.105,210.525 179.367,214.338 181.638,218.168 183.917,222.012 186.205,225.87 188.501,222.625 190.804,206.187 193.113,189.703 195.429,173.176 197.75,156.609 200.075,140.008 202.405,123.377 204.739,121.982 207.076,122.418 209.416,122.855" stroke="#00ff00" stroke-linecap="butt" stroke-linejoin="round" stroke-width="0.5"/>
   <polyline fill="none" points="339.132,170.807 340.485,168.442 341.807,166.129 343.099,163.869 344.36,161.663 345.59,159.512 346.789,157.415 347.955,155.375 349.09,153.39 350.193,151.461 351.262,149.59 352.3,147.822 353.304,147.373 354.274,146.94 355.212,146.522 356.115,146.119 356.985,145.731 357.82,145.358 358.621,145.001 359.387,144.659 360.118,144.333 360.814,144.022 361.476,143.727 362.102,143.447 362.692,143.184 363.247,142.936 363.766,142.705 364.249,142.489 364.696,142.29 365.107,142.106 365.482,141.939 365.821,141.788 366.123,141.653" stroke="#00ff00" stroke-linecap="butt" stroke-linejoin="round" stroke-width="0.5"/>
   <polyline fill="none" points="87.2774,225.845 88.4442,221.474 89.6427,216.985 90.8726,212.378 92.1336,207.655 93.4254,202.816 94.7478,197.863 96.1002,192.797 97.4826,187.619 98.8944,179.087 100.335,168.845 101.805,158.4 103.303,147.752 104.829,136.905 106.383,125.86 107.965,114.622 109.573,103.193 111.208,91.5746 112.868,79.771 114.555,98.0691 116.267,117.045 118.003,136.298 119.765,155.821 121.55,175.61 123.359,195.661 125.19,215.969 127.045,236.528 128.922,241.195 130.821,233.628 132.74,225.977 134.681,218.242 136.642,210.426 138.623,202.531" stroke="#00ff00" stroke-linecap="butt" stroke-linejoin="round" stroke-width="0.5"/>
   <polyline fill="none" points="209.416,122.855 211.757,123.292 214.1,123.729 216.444,124.167 218.788,131.178 221.132,144.76 223.475,158.337 225.817,171.906 228.156,185.463 230.493,199.005 232.827,211.132 235.157,211.615 237.483,212.097 239.804,212.578 242.119,213.058 244.429,213.537 246.732,214.014 249.027,207.453 251.315,197.115 253.595,186.815 255.866,176.554 258.127,166.336 260.379,156.163 262.62,146.383 264.85,142.678 267.068,138.992 269.275,135.326 271.468,131.681 273.649,128.058 275.815,124.458 277.967,123.074 280.105,128.753 282.227,134.392" stroke="#00ff00" stroke-linecap="butt" stroke-linejoin="round" stroke-width="0.5"/>
   <polyline fill="none" points="138.623,215.078 140.624,200.445 142.643,183.739 144.681,166.139 146.736,148.903 148.809,133.266 150.899,120.349 153.006,111.075 155.128,106.096 157.265,105.744 159.418,110.005 161.584,118.524 163.765,130.63 165.958,145.396 168.164,161.708 170.383,178.352 172.613,194.113 174.854,207.861 177.105,218.638 179.367,225.724 181.638,228.686 183.917,227.401 186.205,222.056 188.501,213.121 190.804,201.31 193.113,187.516 195.429,172.739 197.75,158.012 200.075,144.328 202.405,132.568 204.739,123.447 207.076,117.478 209.416,114.939" stroke="#ffff00" stroke-linecap="butt" stroke-linejoin="round" stroke-width="0.5"/>
   <polyline fill="none" points="68.0183,89.6165 68.0643,89.6277 68.1469,89.6584 68.2662,89.7264 68.4222,89.8577 68.6148,90.0856 68.844,90.4511 69.1097,91.0023 69.4119,91.7936 69.7505,92.8854 70.1253,94.3424 70.5364,96.2332 70.9836,98.6275 71.4668,101.594 71.9859,105.2 72.5407,109.504 73.1311,114.556 73.757,120.394 74.4183,127.035 75.1146,134.476 75.846,142.687 76.6122,151.609 77.413,161.147 78.2482,171.169 79.1176,181.508 80.021,191.953 80.9582,202.263 81.929,212.158 82.9331,221.338 83.9702,229.481 85.0402,236.262 86.1427,241.366 87.2774,244.5" stroke="#ffff00" stroke-linecap="butt" stroke-linejoin="round" stroke-width="0.5"/>
   <polyline fill="none" points="282.227,133.884 284.333,138.453 286.423,143.76 288.496,149.601 290.552,155.772 292.59,162.081 294.609,168.349 296.609,174.417 298.59,180.147 300.551,185.425 302.492,190.16 304.412,194.285 306.311,197.755 308.188,200.546 310.042,202.654 311.874,204.09 313.683,204.879 315.468,205.059 317.229,204.674 318.966,203.777 320.678,202.425 322.364,200.677 324.025,198.592 325.66,196.229 327.268,193.646 328.849,190.896 330.403,188.031 331.929,185.096 333.428,182.132 334.897,179.178 336.338,176.266 337.75,173.422 339.132,170.67" stroke="#ffff00" stroke-linecap="butt" stroke-linejoin="round" stroke-width="0.5"/>
   <polyline fill="none" points="366.123,142.608 366.389,142.636 366.618,142.665 366.81,142.691 366.966,142.715 367.086,142.735 367.168,142.749 367.214,142.757" stroke="#ffff00" stroke-linecap="butt" stroke-linejoin="round" stroke-width="0.5"/>
   <polyline fill="none" points="209.416,114.939 211.757,115.875 214.1,120.106 216.444,127.252 218.788,136.767 221.132,147.992 223.475,160.194 225.817,172.627 228.156,184.569 230.493,195.37 232.827,204.484 235.157,211.491 237.483,216.114 239.804,218.221 242.119,217.823 244.429,215.058 246.732,210.179 249.027,203.523 251.315,195.492 253.595,186.524 255.866,177.068 258.127,167.564 260.379,158.416 262.62,149.986 264.85,142.574 267.068,136.414 269.275,131.668 271.468,128.431 273.649,126.729 275.815,126.531 277.967,127.749 280.105,130.254 282.227,133.884" stroke="#ffff00" stroke-linecap="butt" stroke-linejoin="round" stroke-width="0.5"/>
   <polyline fill="none" points="87.2774,244.5 88.4442,245.417 89.6427,243.93 90.8726,239.929 92.1336,233.404 93.4254,224.451 94.7478,213.286 96.1002,200.246 97.4826,185.787 98.8944,170.473 100.335,154.956 101.805,139.949 103.303,126.192 104.829,114.411 106.383,105.276 107.965,99.3507 109.573,97.0553 111.208,98.6245 112.868,104.08 114.555,113.214 116.267,125.585 118.003,140.533 119.765,157.21 121.55,174.622 123.359,191.695 125.19,207.34 127.045,220.528 128.922,230.368 130.821,236.17 132.74,237.509 134.681,234.259 136.642,226.612 138.623,215.078" stroke="#ffff00" stroke-linecap="butt" stroke-linejoin="round" stroke-width="0.5"/>
   <polyline fill="none" points="339.132,170.67 340.485,168.029 341.807,165.514 343.099,163.136 344.36,160.903 345.59,158.819 346.789,156.887 347.955,155.108 349.09,153.479 350.193,151.996 351.262,150.655 352.3,149.451 353.304,148.375 354.274,147.422 355.212,146.583 356.115,145.851 356.985,145.216 357.82,144.672 358.621,144.211 359.387,143.823 360.118,143.502 360.814,143.241 361.476,143.033 362.102,142.871 362.692,142.749 363.247,142.661 363.766,142.602 364.249,142.567 364.696,142.552 365.107,142.551 365.482,142.563 365.821,142.583 366.123,142.608" stroke="#ffff00" stroke-linecap="butt" stroke-linejoin="round" stroke-width="0.5"/>
  </g>
  <clipPath id="cp00405304">
   <polygon points="0,304 405,304 405,0 0,0"/>
  </clipPath>
  <g clip-path="url(#cp00405304)">
   <polygon fill="#ffffff" points="246.479,146.378 355.396,146.378 355.396,45.8293 246.479,45.8293" shape-rendering="crispEdges"/>
   <polyline fill="none" points="246.479,146.378 355.396,146.378" stroke="#262626" stroke-dasharray="16,0" stroke-linecap="square" stroke-linejoin="miter" stroke-width="0.5"/>
   <polyline fill="none" points="246.479,45.8293 355.396,45.8293" stroke="#262626" stroke-dasharray="16,0" stroke-linecap="square" stroke-linejoin="miter" stroke-width="0.5"/>
   <polyline fill="none" points="246.479,146.378 246.479,45.8293" stroke="#262626" stroke-dasharray="16,0" stroke-linecap="square" stroke-linejoin="miter" stroke-width="0.5"/>
   <polyline fill="none" points="355.396,146.378 355.396,45.8293" stroke="#262626" stroke-dasharray="16,0" stroke-linecap="square" stroke-linejoin="miter" stroke-width="0.5"/>
   <polyline fill="none" points="252.393,72.4451 281.967,72.4451" stroke="#00ff00" stroke-linecap="butt" stroke-linejoin="round" stroke-width="0.5"/>
   <defs>
    <path d="M3.486924-.557908C3.596513-.14944 3.945205 .109589 4.373599 .109589C4.722291 .109589 4.951432-.119552 5.110834-.438356C5.280199-.797011 5.409714-1.404732 5.409714-1.424658C5.409714-1.524284 5.32005-1.524284 5.290162-1.524284C5.190535-1.524284 5.180573-1.484433 5.150685-1.344956C5.011208-.787049 4.821918-.109589 4.403487-.109589C4.194271-.109589 4.094645-.239103 4.094645-.56787C4.094645-.787049 4.214197-1.255293 4.293898-1.603985L4.572852-2.67995C4.60274-2.82939 4.702366-3.20797 4.742217-3.35741C4.79203-3.58655 4.891656-3.965131 4.891656-4.024907C4.891656-4.204234 4.752179-4.293898 4.60274-4.293898C4.552927-4.293898 4.293898-4.283935 4.214197-3.945205C4.024907-3.217933 3.58655-1.474471 3.466999-.946451C3.457036-.9066 3.058531-.109589 2.331258-.109589C1.8132-.109589 1.713574-.557908 1.713574-.926526C1.713574-1.484433 1.992528-2.271482 2.251557-2.958904C2.371108-3.257783 2.420922-3.39726 2.420922-3.58655C2.420922-4.034869 2.102117-4.403487 1.603985-4.403487C.657534-4.403487 .288917-2.958904 .288917-2.86924C.288917-2.769614 .388543-2.769614 .408468-2.769614C.508095-2.769614 .518057-2.789539 .56787-2.948941C.816936-3.815691 1.195517-4.184309 1.574097-4.184309C1.663761-4.184309 1.823163-4.174346 1.823163-3.855542C1.823163-3.616438 1.713574-3.327522 1.653798-3.178082C1.285181-2.191781 1.075965-1.574097 1.075965-1.085928C1.075965-.139477 1.763387 .109589 2.30137 .109589C2.958904 .109589 3.317559-.33873 3.486924-.557908Z" id="2-g1-117"/>
    <path d="M5.732503-2.113076C5.732503-2.719801 5.432628-3.075467 4.686426-3.075467C4.135492-3.075467 3.758904-2.775592 3.57061-2.426899C3.431133-2.922042 3.054545-3.075467 2.545455-3.075467C1.973599-3.075467 1.603985-2.761644 1.408717-2.399004H1.401743V-3.075467L.376588-2.998755V-2.747696C.843836-2.747696 .899626-2.698879 .899626-2.357161V-.550934C.899626-.251059 .829888-.251059 .376588-.251059V0C.390535 0 .878705-.027895 1.171606-.027895C1.429639-.027895 1.910834-.006974 1.973599 0V-.251059C1.520299-.251059 1.45056-.251059 1.45056-.550934V-1.806227C1.45056-2.538481 2.02939-2.880199 2.489664-2.880199C2.977833-2.880199 3.040598-2.496638 3.040598-2.140971V-.550934C3.040598-.251059 2.970859-.251059 2.517559-.251059V0C2.531507 0 3.019676-.027895 3.312578-.027895C3.57061-.027895 4.051806-.006974 4.11457 0V-.251059C3.66127-.251059 3.591532-.251059 3.591532-.550934V-1.806227C3.591532-2.538481 4.170361-2.880199 4.630635-2.880199C5.118804-2.880199 5.181569-2.496638 5.181569-2.140971V-.550934C5.181569-.251059 5.111831-.251059 4.658531-.251059V0C4.672478 0 5.160648-.027895 5.453549-.027895C5.711582-.027895 6.192777-.006974 6.255542 0V-.251059C5.802242-.251059 5.732503-.251059 5.732503-.550934V-2.113076Z" id="2-g2-109"/>
    <path d="M3.591532-2.113076C3.591532-2.719801 3.291656-3.075467 2.545455-3.075467C1.973599-3.075467 1.603985-2.761644 1.408717-2.399004H1.401743V-3.075467L.376588-2.998755V-2.747696C.843836-2.747696 .899626-2.698879 .899626-2.357161V-.550934C.899626-.251059 .829888-.251059 .376588-.251059V0C.390535 0 .878705-.027895 1.171606-.027895C1.429639-.027895 1.910834-.006974 1.973599 0V-.251059C1.520299-.251059 1.45056-.251059 1.45056-.550934V-1.806227C1.45056-2.538481 2.02939-2.880199 2.489664-2.880199C2.977833-2.880199 3.040598-2.496638 3.040598-2.140971V-.550934C3.040598-.251059 2.970859-.251059 2.517559-.251059V0C2.531507 0 3.019676-.027895 3.312578-.027895C3.57061-.027895 4.051806-.006974 4.11457 0V-.251059C3.66127-.251059 3.591532-.251059 3.591532-.550934V-2.113076Z" id="2-g2-110"/>
    <path d="M2.517559-2.998755V-2.747696C2.984807-2.747696 3.040598-2.698879 3.040598-2.357161V-1.164633C3.040598-.550934 2.643088-.125529 2.113076-.125529C1.478456-.125529 1.45056-.425405 1.45056-.781071V-3.075467L.376588-2.998755V-2.747696C.899626-2.747696 .899626-2.726775 .899626-2.106102V-1.060025C.899626-.578829 .899626 .069738 2.064259 .069738C2.217684 .069738 2.726775 .069738 3.061519-.516065H3.068493V.069738L4.11457 0V-.251059C3.647323-.251059 3.591532-.299875 3.591532-.641594V-3.075467L2.517559-2.998755Z" id="2-g2-117"/>
    <path d="M2.022416-3.291656C2.078207-3.410212 2.085181-3.466002 2.085181-3.514819C2.085181-3.731009 1.889913-3.898381 1.673724-3.898381C1.408717-3.898381 1.325031-3.682192 1.290162-3.57061L.369614-.550934C.36264-.536986 .334745-.446326 .334745-.439352C.334745-.355666 .550934-.285928 .606725-.285928C.655542-.285928 .662516-.299875 .711333-.404483L2.022416-3.291656Z" id="2-g0-48"/>
   </defs>
   <g fill="rgb(0,0,0)" transform="translate(503.881235,273.445097) matrix(3 0 0 3 0 0)">
    <use x="-72.000004" xlink:href="#2-g1-117" y="-64.510268"/>
    <use x="-66.296809" xlink:href="#2-g0-48" y="-68.125632"/>
    <use x="-66.296809" xlink:href="#2-g2-110" y="-62.047337"/>
    <use x="-62.111101" xlink:href="#2-g2-117" y="-62.047337"/>
    <use x="-57.710912" xlink:href="#2-g2-109" y="-62.047337"/>
   </g>
   <polyline fill="none" points="252.393,119.762 281.967,119.762" stroke="#ffff00" stroke-linecap="butt" stroke-linejoin="round" stroke-width="0.5"/>
   <defs>
    <path d="M3.486924-.557908C3.596513-.14944 3.945205 .109589 4.373599 .109589C4.722291 .109589 4.951432-.119552 5.110834-.438356C5.280199-.797011 5.409714-1.404732 5.409714-1.424658C5.409714-1.524284 5.32005-1.524284 5.290162-1.524284C5.190535-1.524284 5.180573-1.484433 5.150685-1.344956C5.011208-.787049 4.821918-.109589 4.403487-.109589C4.194271-.109589 4.094645-.239103 4.094645-.56787C4.094645-.787049 4.214197-1.255293 4.293898-1.603985L4.572852-2.67995C4.60274-2.82939 4.702366-3.20797 4.742217-3.35741C4.79203-3.58655 4.891656-3.965131 4.891656-4.024907C4.891656-4.204234 4.752179-4.293898 4.60274-4.293898C4.552927-4.293898 4.293898-4.283935 4.214197-3.945205C4.024907-3.217933 3.58655-1.474471 3.466999-.946451C3.457036-.9066 3.058531-.109589 2.331258-.109589C1.8132-.109589 1.713574-.557908 1.713574-.926526C1.713574-1.484433 1.992528-2.271482 2.251557-2.958904C2.371108-3.257783 2.420922-3.39726 2.420922-3.58655C2.420922-4.034869 2.102117-4.403487 1.603985-4.403487C.657534-4.403487 .288917-2.958904 .288917-2.86924C.288917-2.769614 .388543-2.769614 .408468-2.769614C.508095-2.769614 .518057-2.789539 .56787-2.948941C.816936-3.815691 1.195517-4.184309 1.574097-4.184309C1.663761-4.184309 1.823163-4.174346 1.823163-3.855542C1.823163-3.616438 1.713574-3.327522 1.653798-3.178082C1.285181-2.191781 1.075965-1.574097 1.075965-1.085928C1.075965-.139477 1.763387 .109589 2.30137 .109589C2.958904 .109589 3.317559-.33873 3.486924-.557908Z" id="3-g1-117"/>
    <path d="M2.022416-3.291656C2.078207-3.410212 2.085181-3.466002 2.085181-3.514819C2.085181-3.731009 1.889913-3.898381 1.673724-3.898381C1.408717-3.898381 1.325031-3.682192 1.290162-3.57061L.369614-.550934C.36264-.536986 .334745-.446326 .334745-.439352C.334745-.355666 .550934-.285928 .606725-.285928C.655542-.285928 .662516-.299875 .711333-.404483L2.022416-3.291656Z" id="3-g0-48"/>
    <path d="M3.110336-1.868991C3.110336-2.238605 3.110336-2.503611 2.789539-2.761644C2.503611-2.998755 2.168867-3.110336 1.75741-3.110336C1.094894-3.110336 .627646-2.859278 .627646-2.433873C.627646-2.21071 .781071-2.092154 .962391-2.092154C1.150685-2.092154 1.290162-2.231631 1.290162-2.419925C1.290162-2.538481 1.234371-2.684932 1.046077-2.740722C1.297136-2.915068 1.701619-2.915068 1.743462-2.915068C2.133998-2.915068 2.559402-2.657036 2.559402-2.071233V-1.855044C2.175841-1.841096 1.715567-1.820174 1.206476-1.63188C.578829-1.401743 .383562-1.018182 .383562-.704359C.383562-.104608 1.108842 .069738 1.603985 .069738C2.161893 .069738 2.489664-.244085 2.636115-.516065C2.66401-.230137 2.852304 .034869 3.173101 .034869C3.187049 .034869 3.863512 .034869 3.863512-.627646V-1.011208H3.626401V-.63462C3.626401-.564882 3.626401-.230137 3.368369-.230137S3.110336-.557908 3.110336-.648568V-1.868991ZM2.559402-.983313C2.559402-.313823 1.973599-.125529 1.659776-.125529C1.30411-.125529 .969365-.36264 .969365-.704359C.969365-1.08792 1.30411-1.624907 2.559402-1.673724V-.983313Z" id="3-g2-97"/>
    <path d="M3.591532-2.113076C3.591532-2.719801 3.291656-3.075467 2.545455-3.075467C1.973599-3.075467 1.603985-2.761644 1.408717-2.399004H1.401743V-3.075467L.376588-2.998755V-2.747696C.843836-2.747696 .899626-2.698879 .899626-2.357161V-.550934C.899626-.251059 .829888-.251059 .376588-.251059V0C.390535 0 .878705-.027895 1.171606-.027895C1.429639-.027895 1.910834-.006974 1.973599 0V-.251059C1.520299-.251059 1.45056-.251059 1.45056-.550934V-1.806227C1.45056-2.538481 2.02939-2.880199 2.489664-2.880199C2.977833-2.880199 3.040598-2.496638 3.040598-2.140971V-.550934C3.040598-.251059 2.970859-.251059 2.517559-.251059V0C2.531507 0 3.019676-.027895 3.312578-.027895C3.57061-.027895 4.051806-.006974 4.11457 0V-.251059C3.66127-.251059 3.591532-.251059 3.591532-.550934V-2.113076Z" id="3-g2-110"/>
   </defs>
   <g fill="rgb(0,0,0)" transform="translate(503.881235,320.762123) matrix(3 0 0 3 0 0)">
    <use x="-72.000004" xlink:href="#3-g1-117" y="-64.510268"/>
    <use x="-66.296809" xlink:href="#3-g0-48" y="-68.125632"/>
    <use x="-66.296809" xlink:href="#3-g2-97" y="-62.047337"/>
    <use x="-62.325568" xlink:href="#3-g2-110" y="-62.047337"/>
    <use x="-57.925379" xlink:href="#3-g2-97" y="-62.047337"/>
   </g>
  </g>
 </g>
</svg>
