<?xml version='1.0' encoding='UTF-8' standalone='no'?>
<svg height="304pt" viewBox="0 0 405 304" width="405pt" xmlns="http://www.w3.org/2000/svg" xmlns:xlink="http://www.w3.org/1999/xlink">
 <title>Figure 1</title>
 <desc>
Creator: GL2PS 1.4.2, (C) 1999-2020 C. Geuzaine
For: Octave
CreationDate: Mon Sep  8 17:09:28 2025
</desc>
 <defs/>
 <polygon fill="#ffffff" points="0,0 405,0 405,304 0,304"/>
 <g>
  <polygon fill="#ffffff" points="0,304 405,304 405,0 0,0" shape-rendering="crispEdges"/>
  <clipPath id="cp00405304">
   <polygon points="0,304 405,304 405,0 0,0"/>
  </clipPath>
  <g clip-path="url(#cp00405304)">
   <polygon fill="#ffffff" points="62.0075,270.829 367.225,270.829 367.225,33 62.0075,33" shape-rendering="crispEdges"/>
   <polyline fill="none" points="62.0075,270.829 62.0075,267.779" stroke="#262626" stroke-linecap="butt" stroke-linejoin="miter" stroke-width="0.5"/>
   <polyline fill="none" points="123.051,270.829 123.051,267.779" stroke="#262626" stroke-linecap="butt" stroke-linejoin="miter" stroke-width="0.5"/>
   <polyline fill="none" points="184.095,270.829 184.095,267.779" stroke="#262626" stroke-linecap="butt" stroke-linejoin="miter" stroke-width="0.5"/>
   <polyline fill="none" points="245.138,270.829 245.138,267.779" stroke="#262626" stroke-linecap="butt" stroke-linejoin="miter" stroke-width="0.5"/>
   <polyline fill="none" points="306.182,270.829 306.182,267.779" stroke="#262626" stroke-linecap="butt" stroke-linejoin="miter" stroke-width="0.5"/>
   <polyline fill="none" points="367.225,270.829 367.225,267.779" stroke="#262626" stroke-linecap="butt" stroke-linejoin="miter" stroke-width="0.5"/>
   <g font-family="FreeSans" font-size="10" font-style="normal" font-weight="normal" transform="translate(59.0076,286.324) rotate(-0,3,-8)" xml:space="preserve">
    <text fill="rgb(38,38,38)" x="0 " y="-0">0</text>
   </g>
   <g font-family="FreeSans" font-size="10" font-style="normal" font-weight="normal" transform="translate(115.551,286.324) rotate(-0,7.5,-8)" xml:space="preserve">
    <text fill="rgb(38,38,38)" x="0 6 9 " y="-0">0.2</text>
   </g>
   <g font-family="FreeSans" font-size="10" font-style="normal" font-weight="normal" transform="translate(176.595,286.324) rotate(-0,7.5,-8)" xml:space="preserve">
    <text fill="rgb(38,38,38)" x="0 6 9 " y="-0">0.4</text>
   </g>
   <g font-family="FreeSans" font-size="10" font-style="normal" font-weight="normal" transform="translate(237.638,286.324) rotate(-0,7.5,-8)" xml:space="preserve">
    <text fill="rgb(38,38,38)" x="0 6 9 " y="-0">0.6</text>
   </g>
   <g font-family="FreeSans" font-size="10" font-style="normal" font-weight="normal" transform="translate(298.682,286.324) rotate(-0,7.5,-8)" xml:space="preserve">
    <text fill="rgb(38,38,38)" x="0 6 9 " y="-0">0.8</text>
   </g>
   <g font-family="FreeSans" font-size="10" font-style="normal" font-weight="normal" transform="translate(364.225,286.324) rotate(-0,3,-8)" xml:space="preserve">
    <text fill="rgb(38,38,38)" x="0 " y="-0">1</text>
   </g>
   <polyline fill="none" points="62.0075,270.829 65.0619,270.829" stroke="#262626" stroke-linecap="butt" stroke-linejoin="miter" stroke-width="0.5"/>
   <polyline fill="none" points="62.0075,211.372 65.0619,211.372" stroke="#262626" stroke-linecap="butt" stroke-linejoin="miter" stroke-width="0.5"/>
   <polyline fill="none" points="62.0075,151.915 65.0619,151.915" stroke="#262626" stroke-linecap="butt" stroke-linejoin="miter" stroke-width="0.5"/>
   <polyline fill="none" points="62.0075,92.4573 65.0619,92.4573" stroke="#262626" stroke-linecap="butt" stroke-linejoin="miter" stroke-width="0.5"/>
   <polyline fill="none" points="62.0075,33 65.0619,33" stroke="#262626" stroke-linecap="butt" stroke-linejoin="miter" stroke-width="0.5"/>
   <g font-family="FreeSans" font-size="10" font-style="normal" font-weight="normal" transform="translate(36.004,274.829) rotate(-0,21,-4)" xml:space="preserve">
    <text fill="rgb(38,38,38)" x="0 3 9 15 " y="-0">-100</text>
   </g>
   <g font-family="FreeSans" font-size="10" font-style="normal" font-weight="normal" transform="translate(42.004,215.372) rotate(-0,15,-4)" xml:space="preserve">
    <text fill="rgb(38,38,38)" x="0 3 9 " y="-0">-50</text>
   </g>
   <g font-family="FreeSans" font-size="10" font-style="normal" font-weight="normal" transform="translate(51.004,155.915) rotate(-0,6,-4)" xml:space="preserve">
    <text fill="rgb(38,38,38)" x="0 " y="-0">0</text>
   </g>
   <g font-family="FreeSans" font-size="10" font-style="normal" font-weight="normal" transform="translate(45.004,96.4573) rotate(-0,12,-4)" xml:space="preserve">
    <text fill="rgb(38,38,38)" x="0 6 " y="-0">50</text>
   </g>
   <g font-family="FreeSans" font-size="10" font-style="normal" font-weight="normal" transform="translate(39.004,37) rotate(-0,18,-4)" xml:space="preserve">
    <text fill="rgb(38,38,38)" x="0 6 12 " y="-0">100</text>
   </g>
   <polyline fill="none" points="62.0075,270.829 367.225,270.829" stroke="#262626" stroke-dasharray="16,0" stroke-linecap="square" stroke-linejoin="miter" stroke-width="0.5"/>
   <polyline fill="none" points="62.0075,270.829 62.0075,33" stroke="#262626" stroke-dasharray="16,0" stroke-linecap="square" stroke-linejoin="miter" stroke-width="0.5"/>
   <defs>
    <path d="M2.859278-2.34122C3.158157-2.719801 3.536737-3.20797 3.775841-3.466999C4.084682-3.825654 4.493151-3.975093 4.961395-3.985056V-4.293898C4.702366-4.273973 4.403487-4.26401 4.144458-4.26401C3.845579-4.26401 3.317559-4.283935 3.188045-4.293898V-3.985056C3.39726-3.965131 3.476961-3.835616 3.476961-3.676214S3.377335-3.387298 3.327522-3.327522L2.709838-2.550436L1.932752-3.556663C1.843088-3.656289 1.843088-3.676214 1.843088-3.73599C1.843088-3.88543 1.992528-3.975093 2.191781-3.985056V-4.293898C1.932752-4.283935 1.275218-4.26401 1.115816-4.26401C.9066-4.26401 .438356-4.273973 .169365-4.293898V-3.985056C.86675-3.985056 .876712-3.975093 1.344956-3.377335L2.331258-2.092154L1.39477-.9066C.916563-.328767 .328767-.308842 .119552-.308842V0C.37858-.019925 .687422-.029888 .946451-.029888C1.235367-.029888 1.653798-.009963 1.892902 0V-.308842C1.673724-.33873 1.603985-.468244 1.603985-.617684C1.603985-.836862 1.892902-1.165629 2.500623-1.882939L3.257783-.886675C3.337484-.777086 3.466999-.617684 3.466999-.557908C3.466999-.468244 3.377335-.318804 3.108344-.308842V0C3.407223-.009963 3.965131-.029888 4.184309-.029888C4.4533-.029888 4.841843-.019925 5.140722 0V-.308842C4.60274-.308842 4.423412-.328767 4.194271-.617684L2.859278-2.34122Z" id="0-g0-120"/>
   </defs>
   <g fill="rgb(38,38,38)" transform="translate(422.616345,507.323987) matrix(3 0 0 3 0 0)">
    <use x="-72.000004" xlink:href="#0-g0-120" y="-67.710548"/>
   </g>
   <defs>
    <path d="M3.297634 2.391034C3.297634 2.361146 3.297634 2.34122 3.128269 2.171856C1.882939 .916563 1.564134-.966376 1.564134-2.49066C1.564134-4.224159 1.942715-5.957659 3.16812-7.202989C3.297634-7.32254 3.297634-7.342466 3.297634-7.372354C3.297634-7.442092 3.257783-7.47198 3.198007-7.47198C3.098381-7.47198 2.201743-6.794521 1.613948-5.529265C1.105853-4.433375 .986301-3.327522 .986301-2.49066C.986301-1.713574 1.09589-.508095 1.643836 .617684C2.241594 1.843088 3.098381 2.49066 3.198007 2.49066C3.257783 2.49066 3.297634 2.460772 3.297634 2.391034Z" id="1-g0-40"/>
    <path d="M2.879203-2.49066C2.879203-3.267746 2.769614-4.473225 2.221669-5.599004C1.62391-6.824408 .767123-7.47198 .667497-7.47198C.607721-7.47198 .56787-7.43213 .56787-7.372354C.56787-7.342466 .56787-7.32254 .757161-7.143213C1.733499-6.156912 2.30137-4.572852 2.30137-2.49066C2.30137-.787049 1.932752 .966376 .697385 2.221669C.56787 2.34122 .56787 2.361146 .56787 2.391034C.56787 2.450809 .607721 2.49066 .667497 2.49066C.767123 2.49066 1.663761 1.8132 2.251557 .547945C2.759651-.547945 2.879203-1.653798 2.879203-2.49066Z" id="1-g0-41"/>
    <path d="M3.895392-.787049V.109589L5.330012 0V-.308842C4.632628-.308842 4.552927-.37858 4.552927-.86675V-4.403487L3.088418-4.293898V-3.985056C3.785803-3.985056 3.865504-3.915318 3.865504-3.427148V-1.653798C3.865504-.787049 3.387298-.109589 2.660025-.109589C1.823163-.109589 1.783313-.577833 1.783313-1.09589V-4.403487L.318804-4.293898V-3.985056C1.09589-3.985056 1.09589-3.955168 1.09589-3.068493V-1.574097C1.09589-.797011 1.09589 .109589 2.610212 .109589C3.16812 .109589 3.606476-.169365 3.895392-.787049Z" id="1-g0-117"/>
    <path d="M2.859278-2.34122C3.158157-2.719801 3.536737-3.20797 3.775841-3.466999C4.084682-3.825654 4.493151-3.975093 4.961395-3.985056V-4.293898C4.702366-4.273973 4.403487-4.26401 4.144458-4.26401C3.845579-4.26401 3.317559-4.283935 3.188045-4.293898V-3.985056C3.39726-3.965131 3.476961-3.835616 3.476961-3.676214S3.377335-3.387298 3.327522-3.327522L2.709838-2.550436L1.932752-3.556663C1.843088-3.656289 1.843088-3.676214 1.843088-3.73599C1.843088-3.88543 1.992528-3.975093 2.191781-3.985056V-4.293898C1.932752-4.283935 1.275218-4.26401 1.115816-4.26401C.9066-4.26401 .438356-4.273973 .169365-4.293898V-3.985056C.86675-3.985056 .876712-3.975093 1.344956-3.377335L2.331258-2.092154L1.39477-.9066C.916563-.328767 .328767-.308842 .119552-.308842V0C.37858-.019925 .687422-.029888 .946451-.029888C1.235367-.029888 1.653798-.009963 1.892902 0V-.308842C1.673724-.33873 1.603985-.468244 1.603985-.617684C1.603985-.836862 1.892902-1.165629 2.500623-1.882939L3.257783-.886675C3.337484-.777086 3.466999-.617684 3.466999-.557908C3.466999-.468244 3.377335-.318804 3.108344-.308842V0C3.407223-.009963 3.965131-.029888 4.184309-.029888C4.4533-.029888 4.841843-.019925 5.140722 0V-.308842C4.60274-.308842 4.423412-.328767 4.194271-.617684L2.859278-2.34122Z" id="1-g0-120"/>
   </defs>
   <g fill="rgb(38,38,38)" transform="rotate(-90.000000,31.003990,151.914659) translate(220.004003,336.914672) matrix(3 0 0 3 0 0)">
    <use x="-72.000004" xlink:href="#1-g0-117" y="-64.528024"/>
    <use x="-66.465187" xlink:href="#1-g0-40" y="-64.528024"/>
    <use x="-62.590814" xlink:href="#1-g0-120" y="-64.528024"/>
    <use x="-57.332726" xlink:href="#1-g0-41" y="-64.528024"/>
   </g>
   <g font-family="FreeSans" font-size="30" font-style="normal" font-weight="bold" transform="translate(152.116,23) rotate(-0,62.5,0)" xml:space="preserve">
    <text fill="rgb(0,0,0)" x="0 20 38 46 64 81 89 107 " y="-0">Solución</text>
   </g>
   <polyline fill="none" points="280.523,89.3837 282.671,72.9773 284.803,59.0636 286.918,48.0305 289.014,39.9696 291.093,34.9917 293.153,33.0337 295.193,34.019 297.214,37.7156 299.215,43.9544 301.194,52.3647 303.153,62.7428 305.089,74.6367 307.004,87.8443 308.896,101.892 310.764,116.601 312.609,131.527 314.43,146.526 316.227,161.221 317.998,175.495 319.744,189.078 321.465,201.859 323.159,213.699 324.826,224.478 326.467,234.176 328.08,242.69 329.665,250.054 331.222,256.233 332.75,261.259 334.249,265.174 335.719,268.014 337.159,269.839 338.569,270.723" stroke="#ff0000" stroke-linecap="butt" stroke-linejoin="round" stroke-width="0.5"/>
   <polyline fill="none" points="366.101,158.823 366.372,157.157 366.606,155.72 366.802,154.512 366.961,153.535 367.083,152.787 367.167,152.27 367.214,151.982" stroke="#ff0000" stroke-linecap="butt" stroke-linejoin="round" stroke-width="0.5"/>
   <polyline fill="none" points="62.0185,151.707 62.0654,150.824 62.1497,149.239 62.2714,146.961 62.4305,144.002 62.627,140.379 62.8608,136.112 63.1318,131.224 63.4401,125.742 63.7854,119.698 64.1678,113.127 64.5871,106.066 65.0433,98.5574 65.5361,90.6471 66.0656,82.4227 66.6316,74.2511 67.2338,66.3238 67.8723,58.7858 68.5468,51.7899 69.2571,45.497 70.0032,40.1123 70.7847,36.0659 71.6016,33.6269 72.4535,33.0327 73.3404,34.5285 74.2619,38.2582 75.2179,44.2889 76.2081,52.8544 77.2324,64.1961 78.2903,78.0008 79.3817,93.8056 80.5063,111.751 81.6638,131.74" stroke="#ff0000" stroke-linecap="butt" stroke-linejoin="round" stroke-width="0.5"/>
   <polyline fill="none" points="134.039,238.904 136.08,257.183 138.14,267.956 140.218,270.706 142.315,264.89 144.43,251.133 146.561,229.981 148.71,203.467 150.875,172.806 153.055,140.957 155.251,109.564 157.461,81.4112 159.685,58.3669 161.922,42.1041 164.173,33.919 166.436,34.2918 168.71,43.218 170.996,59.9603 173.293,83.4492 175.6,111.545 177.916,142.74 180.242,174.307 182.576,204.242 184.917,230.494 187.266,251.004 189.622,264.738 191.984,270.597 194.351,268.451 196.724,258.409 199.1,241.445 201.481,218.656 203.865,191.589 206.251,162.359" stroke="#ff0000" stroke-linecap="butt" stroke-linejoin="round" stroke-width="0.5"/>
   <polyline fill="none" points="338.569,270.723 339.949,270.729 341.298,269.924 342.615,268.41 343.902,266.244 345.156,263.494 346.379,260.269 347.569,256.617 348.726,252.591 349.851,248.296 350.942,243.779 352,239.07 353.025,234.245 354.015,229.365 354.971,224.455 355.892,219.536 356.779,214.668 357.631,209.89 358.448,205.215 359.229,200.657 359.976,196.232 360.686,191.983 361.36,187.92 361.999,184.048 362.601,180.372 363.167,176.898 363.697,173.632 364.189,170.592 364.646,167.781 365.065,165.198 365.447,162.844 365.793,160.719 366.101,158.823" stroke="#ff0000" stroke-linecap="butt" stroke-linejoin="round" stroke-width="0.5"/>
   <polyline fill="none" points="81.6638,131.74 82.854,152.392 84.0765,173.448 85.3311,194.767 86.6174,214.719 87.9351,232.669 89.2839,248.294 90.6636,260.196 92.0736,267.82 93.5137,270.798 94.9836,268.6 96.4828,260.899 98.011,248.139 99.5678,230.595 101.153,208.549 102.766,183.808 104.406,156.571 106.074,129.142 107.768,102.5 109.488,78.2649 111.234,58.2332 113.006,43.2278 114.802,34.8146 116.623,33.352 118.468,39.2209 120.337,52.3977 122.229,71.7752 124.143,96.8642 126.08,125.31 128.038,156.167 130.018,186.451 132.019,214.96 134.039,238.904" stroke="#ff0000" stroke-linecap="butt" stroke-linejoin="round" stroke-width="0.5"/>
   <polyline fill="none" points="206.251,162.359 208.64,132.451 211.03,104.051 213.421,78.845 215.812,58.1345 218.203,43.2814 220.593,34.8387 222.981,33.2576 225.368,38.3583 227.752,49.7747 230.132,66.6602 232.509,87.8581 234.881,112.347 237.249,138.477 239.611,165.092 241.966,190.8 244.315,214.236 246.657,234.596 248.991,250.846 251.316,262.494 253.633,269.159 255.94,270.743 258.236,267.363 260.522,259.35 262.797,247.255 265.06,231.601 267.31,213.306 269.548,192.952 271.772,171.524 273.982,149.729 276.178,128.306 278.358,108.048 280.523,89.3837" stroke="#ff0000" stroke-linecap="butt" stroke-linejoin="round" stroke-width="0.5"/>
   <polyline fill="none" points="62.0185,151.713 62.0654,150.853 62.1497,149.306 62.2714,147.073 62.4305,144.158 62.627,140.567 62.8608,136.309 63.1318,131.402 63.4401,125.868 63.7854,119.743 64.1678,113.073 64.5871,105.92 65.0433,98.3627 65.5361,90.5015 66.0656,82.457 66.6316,74.3735 67.2338,66.4198 67.8723,58.7889 68.5468,51.6967 69.2571,45.3801 70.0032,40.0916 70.7847,36.0948 71.6016,33.6556 72.4535,33.0332 73.3404,34.4677 74.2619,38.1677 75.2179,44.2953 76.2081,52.9513 77.2324,64.1596 78.2903,77.853 79.3817,93.861 80.5063,111.901 81.6638,131.571 82.854,152.355 84.0765,173.626 85.3311,194.661 86.6174,214.668 87.9351,232.808 89.2839,248.244 90.6636,260.176 92.0736,267.89 93.5137,270.815 94.9836,268.563 96.4828,260.974 98.011,248.157 99.5678,230.501 101.153,208.689 102.766,183.683 104.406,156.69 106.074,129.11 107.768,102.465 109.488,78.3096 111.234,58.1364 113.006,43.2702 114.802,34.7696 116.623,33.3382 118.468,39.2534 120.337,52.3223 122.229,71.8686 124.143,96.7537 126.08,125.435 128.038,156.058 130.018,186.574 132.019,214.885 134.039,238.992 136.08,257.15 138.14,268.002 140.218,270.691 142.315,264.941 144.43,251.091 146.561,230.076 148.71,203.375 150.875,172.9 153.055,140.862 155.251,109.598 157.461,81.4032 159.685,58.3468 161.922,42.1199 164.173,33.9045 166.436,34.2849 168.71,43.2073 170.996,59.9878 173.293,83.3698 175.6,111.625 177.916,142.69 180.242,174.323 182.576,204.273 184.917,230.445 187.266,251.051 189.622,264.725 191.984,270.617 194.351,268.434 196.724,258.441 199.1,241.428 201.481,218.636 203.865,191.653 206.251,162.295" stroke="#0000ff" stroke-linecap="butt" stroke-linejoin="round" stroke-width="0.5"/>
   <polyline fill="none" points="280.523,89.4036 282.671,72.9576 284.803,59.0721 286.918,48.0214 289.014,39.9717 291.093,34.9868 293.153,33.0369 295.193,34.0096 297.214,37.7235 299.215,43.9399 301.194,52.3776 303.153,62.7251 305.089,74.6528 307.004,87.8251 308.896,101.909 310.764,116.582 312.609,131.542 314.43,146.509 316.227,161.231 317.998,175.485 319.744,189.081 321.465,201.86 323.159,213.695 324.826,224.488 326.467,234.17 328.08,242.697 329.665,250.051 331.222,256.233 332.75,261.262 334.249,265.173 335.719,268.014 337.159,269.842 338.569,270.722" stroke="#0000ff" stroke-linecap="butt" stroke-linejoin="round" stroke-width="0.5"/>
   <polyline fill="none" points="366.101,158.817 366.372,157.149 366.606,155.713 366.802,154.506 366.961,153.531 367.083,152.785 367.167,152.269 367.214,151.982" stroke="#0000ff" stroke-linecap="butt" stroke-linejoin="round" stroke-width="0.5"/>
   <polyline fill="none" points="206.251,162.295 208.64,132.474 211.03,104.07 213.421,78.8093 215.812,58.1613 218.203,43.2583 220.593,34.8426 222.981,33.242 225.368,38.3729 227.752,49.769 230.132,66.6316 232.509,87.8955 234.881,112.307 237.249,138.505 239.611,165.102 241.966,190.764 244.315,214.272 246.657,234.58 248.991,250.854 251.316,262.497 253.633,269.161 255.94,270.741 258.236,267.365 260.522,259.362 262.797,247.238 265.06,231.631 267.31,213.277 269.548,192.968 271.772,171.517 273.982,149.72 276.178,128.329 278.358,108.025 280.523,89.4036" stroke="#0000ff" stroke-linecap="butt" stroke-linejoin="round" stroke-width="0.5"/>
   <polyline fill="none" points="338.569,270.722 339.949,270.727 341.298,269.93 342.615,268.408 343.902,266.24 345.156,263.501 346.379,260.267 347.569,256.61 348.726,252.599 349.851,248.298 350.942,243.771 352,239.071 353.025,234.253 354.015,229.364 354.971,224.446 355.892,219.539 356.779,214.677 357.631,209.891 358.448,205.207 359.229,200.65 359.976,196.239 360.686,191.991 361.36,187.922 361.999,184.043 362.601,180.363 363.167,176.893 363.697,173.636 364.189,170.6 364.646,167.787 365.065,165.201 365.447,162.843 365.793,160.715 366.101,158.817" stroke="#0000ff" stroke-linecap="butt" stroke-linejoin="round" stroke-width="0.5"/>
  </g>
  <clipPath id="cp00405304">
   <polygon points="0,304 405,304 405,0 0,0"/>
  </clipPath>
  <g clip-path="url(#cp00405304)">
   <polygon fill="#ffffff" points="246.479,145.378 355.396,145.378 355.396,44.8293 246.479,44.8293" shape-rendering="crispEdges"/>
   <polyline fill="none" points="246.479,145.378 355.396,145.378" stroke="#262626" stroke-dasharray="16,0" stroke-linecap="square" stroke-linejoin="miter" stroke-width="0.5"/>
   <polyline fill="none" points="246.479,44.8293 355.396,44.8293" stroke="#262626" stroke-dasharray="16,0" stroke-linecap="square" stroke-linejoin="miter" stroke-width="0.5"/>
   <polyline fill="none" points="246.479,145.378 246.479,44.8293" stroke="#262626" stroke-dasharray="16,0" stroke-linecap="square" stroke-linejoin="miter" stroke-width="0.5"/>
   <polyline fill="none" points="355.396,145.378 355.396,44.8293" stroke="#262626" stroke-dasharray="16,0" stroke-linecap="square" stroke-linejoin="miter" stroke-width="0.5"/>
   <polyline fill="none" points="252.393,71.4451 281.967,71.4451" stroke="#ff0000" stroke-linecap="butt" stroke-linejoin="round" stroke-width="0.5"/>
   <defs>
    <path d="M3.486924-.557908C3.596513-.14944 3.945205 .109589 4.373599 .109589C4.722291 .109589 4.951432-.119552 5.110834-.438356C5.280199-.797011 5.409714-1.404732 5.409714-1.424658C5.409714-1.524284 5.32005-1.524284 5.290162-1.524284C5.190535-1.524284 5.180573-1.484433 5.150685-1.344956C5.011208-.787049 4.821918-.109589 4.403487-.109589C4.194271-.109589 4.094645-.239103 4.094645-.56787C4.094645-.787049 4.214197-1.255293 4.293898-1.603985L4.572852-2.67995C4.60274-2.82939 4.702366-3.20797 4.742217-3.35741C4.79203-3.58655 4.891656-3.965131 4.891656-4.024907C4.891656-4.204234 4.752179-4.293898 4.60274-4.293898C4.552927-4.293898 4.293898-4.283935 4.214197-3.945205C4.024907-3.217933 3.58655-1.474471 3.466999-.946451C3.457036-.9066 3.058531-.109589 2.331258-.109589C1.8132-.109589 1.713574-.557908 1.713574-.926526C1.713574-1.484433 1.992528-2.271482 2.251557-2.958904C2.371108-3.257783 2.420922-3.39726 2.420922-3.58655C2.420922-4.034869 2.102117-4.403487 1.603985-4.403487C.657534-4.403487 .288917-2.958904 .288917-2.86924C.288917-2.769614 .388543-2.769614 .408468-2.769614C.508095-2.769614 .518057-2.789539 .56787-2.948941C.816936-3.815691 1.195517-4.184309 1.574097-4.184309C1.663761-4.184309 1.823163-4.174346 1.823163-3.855542C1.823163-3.616438 1.713574-3.327522 1.653798-3.178082C1.285181-2.191781 1.075965-1.574097 1.075965-1.085928C1.075965-.139477 1.763387 .109589 2.30137 .109589C2.958904 .109589 3.317559-.33873 3.486924-.557908Z" id="2-g0-117"/>
    <path d="M5.732503-2.113076C5.732503-2.719801 5.432628-3.075467 4.686426-3.075467C4.135492-3.075467 3.758904-2.775592 3.57061-2.426899C3.431133-2.922042 3.054545-3.075467 2.545455-3.075467C1.973599-3.075467 1.603985-2.761644 1.408717-2.399004H1.401743V-3.075467L.376588-2.998755V-2.747696C.843836-2.747696 .899626-2.698879 .899626-2.357161V-.550934C.899626-.251059 .829888-.251059 .376588-.251059V0C.390535 0 .878705-.027895 1.171606-.027895C1.429639-.027895 1.910834-.006974 1.973599 0V-.251059C1.520299-.251059 1.45056-.251059 1.45056-.550934V-1.806227C1.45056-2.538481 2.02939-2.880199 2.489664-2.880199C2.977833-2.880199 3.040598-2.496638 3.040598-2.140971V-.550934C3.040598-.251059 2.970859-.251059 2.517559-.251059V0C2.531507 0 3.019676-.027895 3.312578-.027895C3.57061-.027895 4.051806-.006974 4.11457 0V-.251059C3.66127-.251059 3.591532-.251059 3.591532-.550934V-1.806227C3.591532-2.538481 4.170361-2.880199 4.630635-2.880199C5.118804-2.880199 5.181569-2.496638 5.181569-2.140971V-.550934C5.181569-.251059 5.111831-.251059 4.658531-.251059V0C4.672478 0 5.160648-.027895 5.453549-.027895C5.711582-.027895 6.192777-.006974 6.255542 0V-.251059C5.802242-.251059 5.732503-.251059 5.732503-.550934V-2.113076Z" id="2-g1-109"/>
    <path d="M3.591532-2.113076C3.591532-2.719801 3.291656-3.075467 2.545455-3.075467C1.973599-3.075467 1.603985-2.761644 1.408717-2.399004H1.401743V-3.075467L.376588-2.998755V-2.747696C.843836-2.747696 .899626-2.698879 .899626-2.357161V-.550934C.899626-.251059 .829888-.251059 .376588-.251059V0C.390535 0 .878705-.027895 1.171606-.027895C1.429639-.027895 1.910834-.006974 1.973599 0V-.251059C1.520299-.251059 1.45056-.251059 1.45056-.550934V-1.806227C1.45056-2.538481 2.02939-2.880199 2.489664-2.880199C2.977833-2.880199 3.040598-2.496638 3.040598-2.140971V-.550934C3.040598-.251059 2.970859-.251059 2.517559-.251059V0C2.531507 0 3.019676-.027895 3.312578-.027895C3.57061-.027895 4.051806-.006974 4.11457 0V-.251059C3.66127-.251059 3.591532-.251059 3.591532-.550934V-2.113076Z" id="2-g1-110"/>
    <path d="M2.517559-2.998755V-2.747696C2.984807-2.747696 3.040598-2.698879 3.040598-2.357161V-1.164633C3.040598-.550934 2.643088-.125529 2.113076-.125529C1.478456-.125529 1.45056-.425405 1.45056-.781071V-3.075467L.376588-2.998755V-2.747696C.899626-2.747696 .899626-2.726775 .899626-2.106102V-1.060025C.899626-.578829 .899626 .069738 2.064259 .069738C2.217684 .069738 2.726775 .069738 3.061519-.516065H3.068493V.069738L4.11457 0V-.251059C3.647323-.251059 3.591532-.299875 3.591532-.641594V-3.075467L2.517559-2.998755Z" id="2-g1-117"/>
   </defs>
   <g fill="rgb(0,0,0)" transform="translate(503.881235,278.945131) matrix(3 0 0 3 0 0)">
    <use x="-72.000004" xlink:href="#2-g0-117" y="-67.710548"/>
    <use x="-66.296809" xlink:href="#2-g1-110" y="-66.216167"/>
    <use x="-62.111101" xlink:href="#2-g1-117" y="-66.216167"/>
    <use x="-57.710912" xlink:href="#2-g1-109" y="-66.216167"/>
   </g>
   <polyline fill="none" points="252.393,118.762 281.967,118.762" stroke="#0000ff" stroke-linecap="butt" stroke-linejoin="round" stroke-width="0.5"/>
   <defs>
    <path d="M3.486924-.557908C3.596513-.14944 3.945205 .109589 4.373599 .109589C4.722291 .109589 4.951432-.119552 5.110834-.438356C5.280199-.797011 5.409714-1.404732 5.409714-1.424658C5.409714-1.524284 5.32005-1.524284 5.290162-1.524284C5.190535-1.524284 5.180573-1.484433 5.150685-1.344956C5.011208-.787049 4.821918-.109589 4.403487-.109589C4.194271-.109589 4.094645-.239103 4.094645-.56787C4.094645-.787049 4.214197-1.255293 4.293898-1.603985L4.572852-2.67995C4.60274-2.82939 4.702366-3.20797 4.742217-3.35741C4.79203-3.58655 4.891656-3.965131 4.891656-4.024907C4.891656-4.204234 4.752179-4.293898 4.60274-4.293898C4.552927-4.293898 4.293898-4.283935 4.214197-3.945205C4.024907-3.217933 3.58655-1.474471 3.466999-.946451C3.457036-.9066 3.058531-.109589 2.331258-.109589C1.8132-.109589 1.713574-.557908 1.713574-.926526C1.713574-1.484433 1.992528-2.271482 2.251557-2.958904C2.371108-3.257783 2.420922-3.39726 2.420922-3.58655C2.420922-4.034869 2.102117-4.403487 1.603985-4.403487C.657534-4.403487 .288917-2.958904 .288917-2.86924C.288917-2.769614 .388543-2.769614 .408468-2.769614C.508095-2.769614 .518057-2.789539 .56787-2.948941C.816936-3.815691 1.195517-4.184309 1.574097-4.184309C1.663761-4.184309 1.823163-4.174346 1.823163-3.855542C1.823163-3.616438 1.713574-3.327522 1.653798-3.178082C1.285181-2.191781 1.075965-1.574097 1.075965-1.085928C1.075965-.139477 1.763387 .109589 2.30137 .109589C2.958904 .109589 3.317559-.33873 3.486924-.557908Z" id="3-g0-117"/>
    <path d="M3.110336-1.868991C3.110336-2.238605 3.110336-2.503611 2.789539-2.761644C2.503611-2.998755 2.168867-3.110336 1.75741-3.110336C1.094894-3.110336 .627646-2.859278 .627646-2.433873C.627646-2.21071 .781071-2.092154 .962391-2.092154C1.150685-2.092154 1.290162-2.231631 1.290162-2.419925C1.290162-2.538481 1.234371-2.684932 1.046077-2.740722C1.297136-2.915068 1.701619-2.915068 1.743462-2.915068C2.133998-2.915068 2.559402-2.657036 2.559402-2.071233V-1.855044C2.175841-1.841096 1.715567-1.820174 1.206476-1.63188C.578829-1.401743 .383562-1.018182 .383562-.704359C.383562-.104608 1.108842 .069738 1.603985 .069738C2.161893 .069738 2.489664-.244085 2.636115-.516065C2.66401-.230137 2.852304 .034869 3.173101 .034869C3.187049 .034869 3.863512 .034869 3.863512-.627646V-1.011208H3.626401V-.63462C3.626401-.564882 3.626401-.230137 3.368369-.230137S3.110336-.557908 3.110336-.648568V-1.868991ZM2.559402-.983313C2.559402-.313823 1.973599-.125529 1.659776-.125529C1.30411-.125529 .969365-.36264 .969365-.704359C.969365-1.08792 1.30411-1.624907 2.559402-1.673724V-.983313Z" id="3-g1-97"/>
    <path d="M3.591532-2.113076C3.591532-2.719801 3.291656-3.075467 2.545455-3.075467C1.973599-3.075467 1.603985-2.761644 1.408717-2.399004H1.401743V-3.075467L.376588-2.998755V-2.747696C.843836-2.747696 .899626-2.698879 .899626-2.357161V-.550934C.899626-.251059 .829888-.251059 .376588-.251059V0C.390535 0 .878705-.027895 1.171606-.027895C1.429639-.027895 1.910834-.006974 1.973599 0V-.251059C1.520299-.251059 1.45056-.251059 1.45056-.550934V-1.806227C1.45056-2.538481 2.02939-2.880199 2.489664-2.880199C2.977833-2.880199 3.040598-2.496638 3.040598-2.140971V-.550934C3.040598-.251059 2.970859-.251059 2.517559-.251059V0C2.531507 0 3.019676-.027895 3.312578-.027895C3.57061-.027895 4.051806-.006974 4.11457 0V-.251059C3.66127-.251059 3.591532-.251059 3.591532-.550934V-2.113076Z" id="3-g1-110"/>
   </defs>
   <g fill="rgb(0,0,0)" transform="translate(503.881235,326.262157) matrix(3 0 0 3 0 0)">
    <use x="-72.000004" xlink:href="#3-g0-117" y="-67.710548"/>
    <use x="-66.296809" xlink:href="#3-g1-97" y="-66.216167"/>
    <use x="-62.325568" xlink:href="#3-g1-110" y="-66.216167"/>
    <use x="-57.925379" xlink:href="#3-g1-97" y="-66.216167"/>
   </g>
  </g>
 </g>
</svg>
