<?xml version='1.0' encoding='UTF-8' standalone='no'?>
<svg height="304pt" viewBox="0 0 405 304" width="405pt" xmlns="http://www.w3.org/2000/svg" xmlns:xlink="http://www.w3.org/1999/xlink">
 <title>Figure 2</title>
 <desc>
Creator: GL2PS 1.4.2, (C) 1999-2020 C. Geuzaine
For: Octave
CreationDate: Mon Sep  8 17:09:28 2025
</desc>
 <defs/>
 <polygon fill="#ffffff" points="0,0 405,0 405,304 0,304"/>
 <g>
  <polygon fill="#ffffff" points="0,304 405,304 405,0 0,0" shape-rendering="crispEdges"/>
  <clipPath id="cp00405304">
   <polygon points="0,304 405,304 405,0 0,0"/>
  </clipPath>
  <g clip-path="url(#cp00405304)">
   <polygon fill="#ffffff" points="68.0076,270.829 367.225,270.829 367.225,34 68.0076,34" shape-rendering="crispEdges"/>
   <polyline fill="none" points="68.0076,270.829 68.0076,267.839" stroke="#262626" stroke-linecap="butt" stroke-linejoin="miter" stroke-width="0.5"/>
   <polyline fill="none" points="127.851,270.829 127.851,267.839" stroke="#262626" stroke-linecap="butt" stroke-linejoin="miter" stroke-width="0.5"/>
   <polyline fill="none" points="187.695,270.829 187.695,267.839" stroke="#262626" stroke-linecap="butt" stroke-linejoin="miter" stroke-width="0.5"/>
   <polyline fill="none" points="247.538,270.829 247.538,267.839" stroke="#262626" stroke-linecap="butt" stroke-linejoin="miter" stroke-width="0.5"/>
   <polyline fill="none" points="307.382,270.829 307.382,267.839" stroke="#262626" stroke-linecap="butt" stroke-linejoin="miter" stroke-width="0.5"/>
   <polyline fill="none" points="367.225,270.829 367.225,267.839" stroke="#262626" stroke-linecap="butt" stroke-linejoin="miter" stroke-width="0.5"/>
   <g font-family="FreeSans" font-size="10" font-style="normal" font-weight="normal" transform="translate(65.0076,286.324) rotate(-0,3,-8)" xml:space="preserve">
    <text fill="rgb(38,38,38)" x="0 " y="-0">0</text>
   </g>
   <g font-family="FreeSans" font-size="10" font-style="normal" font-weight="normal" transform="translate(120.351,286.324) rotate(-0,7.5,-8)" xml:space="preserve">
    <text fill="rgb(38,38,38)" x="0 6 9 " y="-0">0.2</text>
   </g>
   <g font-family="FreeSans" font-size="10" font-style="normal" font-weight="normal" transform="translate(180.195,286.324) rotate(-0,7.5,-8)" xml:space="preserve">
    <text fill="rgb(38,38,38)" x="0 6 9 " y="-0">0.4</text>
   </g>
   <g font-family="FreeSans" font-size="10" font-style="normal" font-weight="normal" transform="translate(240.038,286.324) rotate(-0,7.5,-8)" xml:space="preserve">
    <text fill="rgb(38,38,38)" x="0 6 9 " y="-0">0.6</text>
   </g>
   <g font-family="FreeSans" font-size="10" font-style="normal" font-weight="normal" transform="translate(299.882,286.324) rotate(-0,7.5,-8)" xml:space="preserve">
    <text fill="rgb(38,38,38)" x="0 6 9 " y="-0">0.8</text>
   </g>
   <g font-family="FreeSans" font-size="10" font-style="normal" font-weight="normal" transform="translate(364.225,286.324) rotate(-0,3,-8)" xml:space="preserve">
    <text fill="rgb(38,38,38)" x="0 " y="-0">1</text>
   </g>
   <polyline fill="none" points="68.0076,270.829 71.0019,270.829" stroke="#262626" stroke-linecap="butt" stroke-linejoin="miter" stroke-width="0.5"/>
   <polyline fill="none" points="68.0076,231.358 71.0019,231.358" stroke="#262626" stroke-linecap="butt" stroke-linejoin="miter" stroke-width="0.5"/>
   <polyline fill="none" points="68.0076,191.886 71.0019,191.886" stroke="#262626" stroke-linecap="butt" stroke-linejoin="miter" stroke-width="0.5"/>
   <polyline fill="none" points="68.0076,152.415 71.0019,152.415" stroke="#262626" stroke-linecap="butt" stroke-linejoin="miter" stroke-width="0.5"/>
   <polyline fill="none" points="68.0076,112.943 71.0019,112.943" stroke="#262626" stroke-linecap="butt" stroke-linejoin="miter" stroke-width="0.5"/>
   <polyline fill="none" points="68.0076,73.4716 71.0019,73.4716" stroke="#262626" stroke-linecap="butt" stroke-linejoin="miter" stroke-width="0.5"/>
   <polyline fill="none" points="68.0076,34 71.0019,34" stroke="#262626" stroke-linecap="butt" stroke-linejoin="miter" stroke-width="0.5"/>
   <g font-family="FreeSans" font-size="10" font-style="normal" font-weight="normal" transform="translate(36.0039,274.829) rotate(-0,27,-4)" xml:space="preserve">
    <text fill="rgb(38,38,38)" x="0 3 9 15 21 " y="-0">-6000</text>
   </g>
   <g font-family="FreeSans" font-size="10" font-style="normal" font-weight="normal" transform="translate(36.0039,235.358) rotate(-0,27,-4)" xml:space="preserve">
    <text fill="rgb(38,38,38)" x="0 3 9 15 21 " y="-0">-4000</text>
   </g>
   <g font-family="FreeSans" font-size="10" font-style="normal" font-weight="normal" transform="translate(36.0039,195.886) rotate(-0,27,-4)" xml:space="preserve">
    <text fill="rgb(38,38,38)" x="0 3 9 15 21 " y="-0">-2000</text>
   </g>
   <g font-family="FreeSans" font-size="10" font-style="normal" font-weight="normal" transform="translate(57.0039,156.415) rotate(-0,6,-4)" xml:space="preserve">
    <text fill="rgb(38,38,38)" x="0 " y="-0">0</text>
   </g>
   <g font-family="FreeSans" font-size="10" font-style="normal" font-weight="normal" transform="translate(39.0039,116.943) rotate(-0,24,-4)" xml:space="preserve">
    <text fill="rgb(38,38,38)" x="0 6 12 18 " y="-0">2000</text>
   </g>
   <g font-family="FreeSans" font-size="10" font-style="normal" font-weight="normal" transform="translate(39.0039,77.4716) rotate(-0,24,-4)" xml:space="preserve">
    <text fill="rgb(38,38,38)" x="0 6 12 18 " y="-0">4000</text>
   </g>
   <g font-family="FreeSans" font-size="10" font-style="normal" font-weight="normal" transform="translate(39.0039,38) rotate(-0,24,-4)" xml:space="preserve">
    <text fill="rgb(38,38,38)" x="0 6 12 18 " y="-0">6000</text>
   </g>
   <polyline fill="none" points="68.0076,270.829 367.225,270.829" stroke="#262626" stroke-dasharray="16,0" stroke-linecap="square" stroke-linejoin="miter" stroke-width="0.5"/>
   <polyline fill="none" points="68.0076,270.829 68.0076,34" stroke="#262626" stroke-dasharray="16,0" stroke-linecap="square" stroke-linejoin="miter" stroke-width="0.5"/>
   <defs>
    <path d="M2.859278-2.34122C3.158157-2.719801 3.536737-3.20797 3.775841-3.466999C4.084682-3.825654 4.493151-3.975093 4.961395-3.985056V-4.293898C4.702366-4.273973 4.403487-4.26401 4.144458-4.26401C3.845579-4.26401 3.317559-4.283935 3.188045-4.293898V-3.985056C3.39726-3.965131 3.476961-3.835616 3.476961-3.676214S3.377335-3.387298 3.327522-3.327522L2.709838-2.550436L1.932752-3.556663C1.843088-3.656289 1.843088-3.676214 1.843088-3.73599C1.843088-3.88543 1.992528-3.975093 2.191781-3.985056V-4.293898C1.932752-4.283935 1.275218-4.26401 1.115816-4.26401C.9066-4.26401 .438356-4.273973 .169365-4.293898V-3.985056C.86675-3.985056 .876712-3.975093 1.344956-3.377335L2.331258-2.092154L1.39477-.9066C.916563-.328767 .328767-.308842 .119552-.308842V0C.37858-.019925 .687422-.029888 .946451-.029888C1.235367-.029888 1.653798-.009963 1.892902 0V-.308842C1.673724-.33873 1.603985-.468244 1.603985-.617684C1.603985-.836862 1.892902-1.165629 2.500623-1.882939L3.257783-.886675C3.337484-.777086 3.466999-.617684 3.466999-.557908C3.466999-.468244 3.377335-.318804 3.108344-.308842V0C3.407223-.009963 3.965131-.029888 4.184309-.029888C4.4533-.029888 4.841843-.019925 5.140722 0V-.308842C4.60274-.308842 4.423412-.328767 4.194271-.617684L2.859278-2.34122Z" id="0-g0-120"/>
   </defs>
   <g fill="rgb(38,38,38)" transform="translate(425.616345,507.323965) matrix(3 0 0 3 0 0)">
    <use x="-72.000004" xlink:href="#0-g0-120" y="-67.710548"/>
   </g>
   <defs>
    <path d="M3.486924-.557908C3.596513-.14944 3.945205 .109589 4.373599 .109589C4.722291 .109589 4.951432-.119552 5.110834-.438356C5.280199-.797011 5.409714-1.404732 5.409714-1.424658C5.409714-1.524284 5.32005-1.524284 5.290162-1.524284C5.190535-1.524284 5.180573-1.484433 5.150685-1.344956C5.011208-.787049 4.821918-.109589 4.403487-.109589C4.194271-.109589 4.094645-.239103 4.094645-.56787C4.094645-.787049 4.214197-1.255293 4.293898-1.603985L4.572852-2.67995C4.60274-2.82939 4.702366-3.20797 4.742217-3.35741C4.79203-3.58655 4.891656-3.965131 4.891656-4.024907C4.891656-4.204234 4.752179-4.293898 4.60274-4.293898C4.552927-4.293898 4.293898-4.283935 4.214197-3.945205C4.024907-3.217933 3.58655-1.474471 3.466999-.946451C3.457036-.9066 3.058531-.109589 2.331258-.109589C1.8132-.109589 1.713574-.557908 1.713574-.926526C1.713574-1.484433 1.992528-2.271482 2.251557-2.958904C2.371108-3.257783 2.420922-3.39726 2.420922-3.58655C2.420922-4.034869 2.102117-4.403487 1.603985-4.403487C.657534-4.403487 .288917-2.958904 .288917-2.86924C.288917-2.769614 .388543-2.769614 .408468-2.769614C.508095-2.769614 .518057-2.789539 .56787-2.948941C.816936-3.815691 1.195517-4.184309 1.574097-4.184309C1.663761-4.184309 1.823163-4.174346 1.823163-3.855542C1.823163-3.616438 1.713574-3.327522 1.653798-3.178082C1.285181-2.191781 1.075965-1.574097 1.075965-1.085928C1.075965-.139477 1.763387 .109589 2.30137 .109589C2.958904 .109589 3.317559-.33873 3.486924-.557908Z" id="1-g1-117"/>
    <path d="M3.327522-3.008717C3.387298-3.267746 3.616438-4.184309 4.313823-4.184309C4.363636-4.184309 4.60274-4.184309 4.811955-4.054795C4.533001-4.004981 4.333748-3.755915 4.333748-3.516812C4.333748-3.35741 4.443337-3.16812 4.712329-3.16812C4.931507-3.16812 5.250311-3.347447 5.250311-3.745953C5.250311-4.26401 4.662516-4.403487 4.323786-4.403487C3.745953-4.403487 3.39726-3.875467 3.277709-3.646326C3.028643-4.303861 2.49066-4.403487 2.201743-4.403487C1.165629-4.403487 .597758-3.118306 .597758-2.86924C.597758-2.769614 .697385-2.769614 .71731-2.769614C.797011-2.769614 .826899-2.789539 .846824-2.879203C1.185554-3.935243 1.843088-4.184309 2.181818-4.184309C2.371108-4.184309 2.719801-4.094645 2.719801-3.516812C2.719801-3.20797 2.550436-2.540473 2.181818-1.145704C2.022416-.52802 1.673724-.109589 1.235367-.109589C1.175592-.109589 .946451-.109589 .737235-.239103C.986301-.288917 1.205479-.498132 1.205479-.777086C1.205479-1.046077 .986301-1.125778 .836862-1.125778C.537983-1.125778 .288917-.86675 .288917-.547945C.288917-.089664 .787049 .109589 1.225405 .109589C1.882939 .109589 2.241594-.587796 2.271482-.647572C2.391034-.278954 2.749689 .109589 3.347447 .109589C4.373599 .109589 4.941469-1.175592 4.941469-1.424658C4.941469-1.524284 4.851806-1.524284 4.821918-1.524284C4.732254-1.524284 4.712329-1.484433 4.692403-1.414695C4.363636-.348692 3.686177-.109589 3.367372-.109589C2.978829-.109589 2.819427-.428394 2.819427-.767123C2.819427-.986301 2.879203-1.205479 2.988792-1.643836L3.327522-3.008717Z" id="1-g1-120"/>
    <path d="M2.022416-3.291656C2.078207-3.410212 2.085181-3.466002 2.085181-3.514819C2.085181-3.731009 1.889913-3.898381 1.673724-3.898381C1.408717-3.898381 1.325031-3.682192 1.290162-3.57061L.369614-.550934C.36264-.536986 .334745-.446326 .334745-.439352C.334745-.355666 .550934-.285928 .606725-.285928C.655542-.285928 .662516-.299875 .711333-.404483L2.022416-3.291656Z" id="1-g0-48"/>
    <path d="M3.297634 2.391034C3.297634 2.361146 3.297634 2.34122 3.128269 2.171856C1.882939 .916563 1.564134-.966376 1.564134-2.49066C1.564134-4.224159 1.942715-5.957659 3.16812-7.202989C3.297634-7.32254 3.297634-7.342466 3.297634-7.372354C3.297634-7.442092 3.257783-7.47198 3.198007-7.47198C3.098381-7.47198 2.201743-6.794521 1.613948-5.529265C1.105853-4.433375 .986301-3.327522 .986301-2.49066C.986301-1.713574 1.09589-.508095 1.643836 .617684C2.241594 1.843088 3.098381 2.49066 3.198007 2.49066C3.257783 2.49066 3.297634 2.460772 3.297634 2.391034Z" id="1-g2-40"/>
    <path d="M2.879203-2.49066C2.879203-3.267746 2.769614-4.473225 2.221669-5.599004C1.62391-6.824408 .767123-7.47198 .667497-7.47198C.607721-7.47198 .56787-7.43213 .56787-7.372354C.56787-7.342466 .56787-7.32254 .757161-7.143213C1.733499-6.156912 2.30137-4.572852 2.30137-2.49066C2.30137-.787049 1.932752 .966376 .697385 2.221669C.56787 2.34122 .56787 2.361146 .56787 2.391034C.56787 2.450809 .607721 2.49066 .667497 2.49066C.767123 2.49066 1.663761 1.8132 2.251557 .547945C2.759651-.547945 2.879203-1.653798 2.879203-2.49066Z" id="1-g2-41"/>
   </defs>
   <g fill="rgb(38,38,38)" transform="rotate(-90.000000,31.003918,152.414659) translate(215.003931,337.414672) matrix(3 0 0 3 0 0)">
    <use x="-72.000004" xlink:href="#1-g1-117" y="-64.510268"/>
    <use x="-66.296809" xlink:href="#1-g0-48" y="-68.125632"/>
    <use x="-63.501733" xlink:href="#1-g2-40" y="-64.510268"/>
    <use x="-59.627359" xlink:href="#1-g1-120" y="-64.510268"/>
    <use x="-53.933427" xlink:href="#1-g2-41" y="-64.510268"/>
   </g>
   <g font-family="FreeSans" font-size="30" font-style="normal" font-weight="bold" transform="translate(153.616,24) rotate(-0,64,0)" xml:space="preserve">
    <text fill="rgb(0,0,0)" x="0 22 39 51 59 75 92 111 " y="-1">Derivada</text>
   </g>
   <polyline fill="none" points="282.227,111.101 284.333,116.365 286.423,122.651 288.496,129.318 290.552,136.627 292.59,143.945 294.609,151.254 296.609,158.371 298.59,164.992 300.551,171.204 302.492,176.666 304.412,181.524 306.311,185.524 308.188,188.826 310.042,191.231 311.874,192.978 313.683,193.809 315.468,194.147 317.229,193.552 318.966,192.71 320.678,190.926 322.364,189.157 324.025,186.478 325.66,183.842 327.268,180.756 328.849,177.55 330.403,174.255 331.929,170.78 333.428,167.369 334.897,163.906 336.338,160.498 337.75,157.185 339.132,153.997" stroke="#00ff00" stroke-linecap="butt" stroke-linejoin="round" stroke-width="0.5"/>
   <polyline fill="none" points="366.123,121.264 366.389,121.276 366.618,121.285 366.81,121.293 366.966,121.3 367.086,121.305 367.168,121.309 367.214,121.31" stroke="#00ff00" stroke-linecap="butt" stroke-linejoin="round" stroke-width="0.5"/>
   <polyline fill="none" points="68.0183,56.7725 68.0643,56.978 68.1469,57.3476 68.2662,57.8813 68.4222,58.5789 68.6148,59.4404 68.844,60.4657 69.1097,61.6542 69.4119,63.0057 69.7505,64.52 70.1253,66.1967 70.5364,68.0353 70.9836,70.0356 71.4668,72.1966 71.9859,76.1418 72.5407,82.4065 73.1311,89.0735 73.757,96.1411 74.4183,103.607 75.1146,111.471 75.846,120.759 76.6122,131.616 77.413,142.964 78.2482,154.799 79.1176,167.119 80.021,178.544 80.9582,190.197 81.929,202.267 82.9331,214.751 83.9702,222.087 85.0402,229.453 86.1427,237.043 87.2774,240.629" stroke="#00ff00" stroke-linecap="butt" stroke-linejoin="round" stroke-width="0.5"/>
   <polyline fill="none" points="138.623,206.06 140.624,188.472 142.643,169.344 144.681,148.781 146.736,128.232 148.809,110.688 150.899,95.1262 153.006,84.6791 155.128,78.9962 157.265,77.8466 159.418,83.7892 161.584,92.2117 163.765,107.646 165.958,124.346 168.164,143.636 170.383,162.761 172.613,181.824 174.854,196.99 177.105,210.054 179.367,218.166 181.638,221.19 183.917,221.166 186.205,213.485 188.501,203.56 190.804,189.727 193.113,173.535 195.429,156.421 197.75,139.228 200.075,123.441 202.405,109.075 204.739,99.2646 207.076,91.8383 209.416,88.9053" stroke="#00ff00" stroke-linecap="butt" stroke-linejoin="round" stroke-width="0.5"/>
   <polyline fill="none" points="339.132,153.997 340.485,150.877 341.807,147.967 343.099,145.222 344.36,142.544 345.59,140.157 346.789,137.946 347.955,135.794 349.09,133.897 350.193,132.247 351.262,130.646 352.3,129.107 353.304,127.993 354.274,126.915 355.212,125.876 356.115,124.917 356.985,124.301 357.82,123.708 358.621,123.14 359.387,122.597 360.118,122.224 360.814,122.003 361.476,121.792 362.102,121.593 362.692,121.405 363.247,121.228 363.766,121.164 364.249,121.185 364.696,121.204 365.107,121.221 365.482,121.237 365.821,121.251 366.123,121.264" stroke="#00ff00" stroke-linecap="butt" stroke-linejoin="round" stroke-width="0.5"/>
   <polyline fill="none" points="87.2774,240.629 88.4442,239.991 89.6427,239.336 90.8726,235.718 92.1336,226.261 93.4254,216.574 94.7478,204.183 96.1002,188.049 97.4826,171.559 98.8944,153.985 100.335,135.7 101.805,117.445 103.303,102.795 104.829,87.8698 106.383,78.0654 107.965,71.358 109.573,67.2708 111.208,70.9065 112.868,74.6002 114.555,87.6292 116.267,100.977 118.003,118.971 119.765,138.413 121.55,158.36 123.359,178.695 125.19,196.378 127.045,212.224 128.922,223.196 130.821,230.439 132.74,231.496 134.681,228.315 136.642,218.812 138.623,206.06" stroke="#00ff00" stroke-linecap="butt" stroke-linejoin="round" stroke-width="0.5"/>
   <polyline fill="none" points="209.416,88.9053 211.757,90.4374 214.1,94.4848 216.444,103.535 218.788,114.504 221.132,127.387 223.475,141.801 225.817,156.215 228.156,170.268 230.493,182.576 232.827,193.743 235.157,201.442 237.483,206.804 239.804,209.847 242.119,208.687 244.429,205.872 246.732,200.034 249.027,192.162 251.315,183.178 253.595,172.395 255.866,161.476 258.127,150.307 260.379,139.78 262.62,129.635 264.85,121.324 267.068,114.039 269.275,108.432 271.468,104.891 273.649,102.328 275.815,102.684 277.967,103.776 280.105,106.923 282.227,111.101" stroke="#00ff00" stroke-linecap="butt" stroke-linejoin="round" stroke-width="0.5"/>
   <polyline fill="none" points="138.623,205.786 140.624,188.715 142.643,169.223 144.681,148.691 146.736,128.582 148.809,110.339 150.899,95.2691 153.006,84.4496 155.128,78.6407 157.265,78.2299 159.418,83.2013 161.584,93.1396 163.765,107.264 165.958,124.491 168.164,143.521 170.383,162.939 172.613,181.327 174.854,197.366 177.105,209.939 179.367,218.206 181.638,221.662 183.917,220.163 186.205,213.927 188.501,203.503 190.804,189.724 193.113,173.63 195.429,156.39 197.75,139.209 200.075,123.244 202.405,109.524 204.739,98.8837 207.076,91.919 209.416,88.9568" stroke="#ffff00" stroke-linecap="butt" stroke-linejoin="round" stroke-width="0.5"/>
   <polyline fill="none" points="68.0183,59.4144 68.0643,59.4274 68.1469,59.4633 68.2662,59.5426 68.4222,59.6958 68.6148,59.9616 68.844,60.3881 69.1097,61.0311 69.4119,61.9543 69.7505,63.2281 70.1253,64.9279 70.5364,67.1338 70.9836,69.9272 71.4668,73.3885 71.9859,77.5949 72.5407,82.6163 73.1311,88.511 73.757,95.3212 74.4183,103.069 75.1146,111.75 75.846,121.33 76.6122,131.739 77.413,142.866 78.2482,154.559 79.1176,166.621 80.021,178.807 80.9582,190.835 81.929,202.38 82.9331,213.089 83.9702,222.589 85.0402,230.501 86.1427,236.455 87.2774,240.112" stroke="#ffff00" stroke-linecap="butt" stroke-linejoin="round" stroke-width="0.5"/>
   <polyline fill="none" points="282.227,111.06 284.333,116.39 286.423,122.582 288.496,129.396 290.552,136.596 292.59,143.956 294.609,151.269 296.609,158.349 298.59,165.034 300.551,171.191 302.492,176.715 304.412,181.527 306.311,185.576 308.188,188.832 310.042,191.292 311.874,192.967 313.683,193.888 315.468,194.097 317.229,193.648 318.966,192.602 320.678,191.024 322.364,188.984 324.025,186.552 325.66,183.796 327.268,180.782 328.849,177.574 330.403,174.231 331.929,170.807 333.428,167.35 334.897,163.903 336.338,160.505 337.75,157.187 339.132,153.977" stroke="#ffff00" stroke-linecap="butt" stroke-linejoin="round" stroke-width="0.5"/>
   <polyline fill="none" points="366.123,121.238 366.389,121.271 366.618,121.304 366.81,121.335 366.966,121.363 367.086,121.386 367.168,121.402 367.214,121.412" stroke="#ffff00" stroke-linecap="butt" stroke-linejoin="round" stroke-width="0.5"/>
   <polyline fill="none" points="209.416,88.9568 211.757,90.0494 214.1,94.9857 216.444,103.322 218.788,114.423 221.132,127.519 223.475,141.755 225.817,156.26 228.156,170.192 230.493,182.794 232.827,193.427 235.157,201.601 237.483,206.995 239.804,209.453 242.119,208.988 244.429,205.763 246.732,200.071 249.027,192.306 251.315,182.936 253.595,172.473 255.866,161.442 258.127,150.353 260.379,139.681 262.62,129.846 264.85,121.199 267.068,114.011 269.275,108.474 271.468,104.698 273.649,102.713 275.815,102.481 277.967,103.902 280.105,106.825 282.227,111.06" stroke="#ffff00" stroke-linecap="butt" stroke-linejoin="round" stroke-width="0.5"/>
   <polyline fill="none" points="87.2774,240.112 88.4442,241.182 89.6427,239.446 90.8726,234.779 92.1336,227.167 93.4254,216.722 94.7478,203.696 96.1002,188.482 97.4826,171.614 98.8944,153.747 100.335,135.644 101.805,118.136 103.303,102.086 104.829,88.3419 106.383,77.6836 107.965,70.7709 109.573,68.093 111.208,69.9236 112.868,76.2886 114.555,86.9448 116.267,101.378 118.003,118.817 119.765,138.273 121.55,158.588 123.359,178.507 125.19,196.759 127.045,212.145 128.922,223.624 130.821,230.393 132.74,231.956 134.681,228.164 136.642,219.243 138.623,205.786" stroke="#ffff00" stroke-linecap="butt" stroke-linejoin="round" stroke-width="0.5"/>
   <polyline fill="none" points="339.132,153.977 340.485,150.896 341.807,147.962 343.099,145.187 344.36,142.582 345.59,140.151 346.789,137.897 347.955,135.821 349.09,133.92 350.193,132.19 351.262,130.626 352.3,129.221 353.304,127.966 354.274,126.854 355.212,125.876 356.115,125.021 356.985,124.281 357.82,123.646 358.621,123.107 359.387,122.655 360.118,122.281 360.814,121.977 361.476,121.734 362.102,121.545 362.692,121.402 363.247,121.299 363.766,121.231 364.249,121.19 364.696,121.172 365.107,121.172 365.482,121.185 365.821,121.209 366.123,121.238" stroke="#ffff00" stroke-linecap="butt" stroke-linejoin="round" stroke-width="0.5"/>
  </g>
  <clipPath id="cp00405304">
   <polygon points="0,304 405,304 405,0 0,0"/>
  </clipPath>
  <g clip-path="url(#cp00405304)">
   <polygon fill="#ffffff" points="246.479,146.378 355.396,146.378 355.396,45.8293 246.479,45.8293" shape-rendering="crispEdges"/>
   <polyline fill="none" points="246.479,146.378 355.396,146.378" stroke="#262626" stroke-dasharray="16,0" stroke-linecap="square" stroke-linejoin="miter" stroke-width="0.5"/>
   <polyline fill="none" points="246.479,45.8293 355.396,45.8293" stroke="#262626" stroke-dasharray="16,0" stroke-linecap="square" stroke-linejoin="miter" stroke-width="0.5"/>
   <polyline fill="none" points="246.479,146.378 246.479,45.8293" stroke="#262626" stroke-dasharray="16,0" stroke-linecap="square" stroke-linejoin="miter" stroke-width="0.5"/>
   <polyline fill="none" points="355.396,146.378 355.396,45.8293" stroke="#262626" stroke-dasharray="16,0" stroke-linecap="square" stroke-linejoin="miter" stroke-width="0.5"/>
   <polyline fill="none" points="252.393,72.4451 281.967,72.4451" stroke="#00ff00" stroke-linecap="butt" stroke-linejoin="round" stroke-width="0.5"/>
   <defs>
    <path d="M3.486924-.557908C3.596513-.14944 3.945205 .109589 4.373599 .109589C4.722291 .109589 4.951432-.119552 5.110834-.438356C5.280199-.797011 5.409714-1.404732 5.409714-1.424658C5.409714-1.524284 5.32005-1.524284 5.290162-1.524284C5.190535-1.524284 5.180573-1.484433 5.150685-1.344956C5.011208-.787049 4.821918-.109589 4.403487-.109589C4.194271-.109589 4.094645-.239103 4.094645-.56787C4.094645-.787049 4.214197-1.255293 4.293898-1.603985L4.572852-2.67995C4.60274-2.82939 4.702366-3.20797 4.742217-3.35741C4.79203-3.58655 4.891656-3.965131 4.891656-4.024907C4.891656-4.204234 4.752179-4.293898 4.60274-4.293898C4.552927-4.293898 4.293898-4.283935 4.214197-3.945205C4.024907-3.217933 3.58655-1.474471 3.466999-.946451C3.457036-.9066 3.058531-.109589 2.331258-.109589C1.8132-.109589 1.713574-.557908 1.713574-.926526C1.713574-1.484433 1.992528-2.271482 2.251557-2.958904C2.371108-3.257783 2.420922-3.39726 2.420922-3.58655C2.420922-4.034869 2.102117-4.403487 1.603985-4.403487C.657534-4.403487 .288917-2.958904 .288917-2.86924C.288917-2.769614 .388543-2.769614 .408468-2.769614C.508095-2.769614 .518057-2.789539 .56787-2.948941C.816936-3.815691 1.195517-4.184309 1.574097-4.184309C1.663761-4.184309 1.823163-4.174346 1.823163-3.855542C1.823163-3.616438 1.713574-3.327522 1.653798-3.178082C1.285181-2.191781 1.075965-1.574097 1.075965-1.085928C1.075965-.139477 1.763387 .109589 2.30137 .109589C2.958904 .109589 3.317559-.33873 3.486924-.557908Z" id="2-g1-117"/>
    <path d="M5.732503-2.113076C5.732503-2.719801 5.432628-3.075467 4.686426-3.075467C4.135492-3.075467 3.758904-2.775592 3.57061-2.426899C3.431133-2.922042 3.054545-3.075467 2.545455-3.075467C1.973599-3.075467 1.603985-2.761644 1.408717-2.399004H1.401743V-3.075467L.376588-2.998755V-2.747696C.843836-2.747696 .899626-2.698879 .899626-2.357161V-.550934C.899626-.251059 .829888-.251059 .376588-.251059V0C.390535 0 .878705-.027895 1.171606-.027895C1.429639-.027895 1.910834-.006974 1.973599 0V-.251059C1.520299-.251059 1.45056-.251059 1.45056-.550934V-1.806227C1.45056-2.538481 2.02939-2.880199 2.489664-2.880199C2.977833-2.880199 3.040598-2.496638 3.040598-2.140971V-.550934C3.040598-.251059 2.970859-.251059 2.517559-.251059V0C2.531507 0 3.019676-.027895 3.312578-.027895C3.57061-.027895 4.051806-.006974 4.11457 0V-.251059C3.66127-.251059 3.591532-.251059 3.591532-.550934V-1.806227C3.591532-2.538481 4.170361-2.880199 4.630635-2.880199C5.118804-2.880199 5.181569-2.496638 5.181569-2.140971V-.550934C5.181569-.251059 5.111831-.251059 4.658531-.251059V0C4.672478 0 5.160648-.027895 5.453549-.027895C5.711582-.027895 6.192777-.006974 6.255542 0V-.251059C5.802242-.251059 5.732503-.251059 5.732503-.550934V-2.113076Z" id="2-g2-109"/>
    <path d="M3.591532-2.113076C3.591532-2.719801 3.291656-3.075467 2.545455-3.075467C1.973599-3.075467 1.603985-2.761644 1.408717-2.399004H1.401743V-3.075467L.376588-2.998755V-2.747696C.843836-2.747696 .899626-2.698879 .899626-2.357161V-.550934C.899626-.251059 .829888-.251059 .376588-.251059V0C.390535 0 .878705-.027895 1.171606-.027895C1.429639-.027895 1.910834-.006974 1.973599 0V-.251059C1.520299-.251059 1.45056-.251059 1.45056-.550934V-1.806227C1.45056-2.538481 2.02939-2.880199 2.489664-2.880199C2.977833-2.880199 3.040598-2.496638 3.040598-2.140971V-.550934C3.040598-.251059 2.970859-.251059 2.517559-.251059V0C2.531507 0 3.019676-.027895 3.312578-.027895C3.57061-.027895 4.051806-.006974 4.11457 0V-.251059C3.66127-.251059 3.591532-.251059 3.591532-.550934V-2.113076Z" id="2-g2-110"/>
    <path d="M2.517559-2.998755V-2.747696C2.984807-2.747696 3.040598-2.698879 3.040598-2.357161V-1.164633C3.040598-.550934 2.643088-.125529 2.113076-.125529C1.478456-.125529 1.45056-.425405 1.45056-.781071V-3.075467L.376588-2.998755V-2.747696C.899626-2.747696 .899626-2.726775 .899626-2.106102V-1.060025C.899626-.578829 .899626 .069738 2.064259 .069738C2.217684 .069738 2.726775 .069738 3.061519-.516065H3.068493V.069738L4.11457 0V-.251059C3.647323-.251059 3.591532-.299875 3.591532-.641594V-3.075467L2.517559-2.998755Z" id="2-g2-117"/>
    <path d="M2.022416-3.291656C2.078207-3.410212 2.085181-3.466002 2.085181-3.514819C2.085181-3.731009 1.889913-3.898381 1.673724-3.898381C1.408717-3.898381 1.325031-3.682192 1.290162-3.57061L.369614-.550934C.36264-.536986 .334745-.446326 .334745-.439352C.334745-.355666 .550934-.285928 .606725-.285928C.655542-.285928 .662516-.299875 .711333-.404483L2.022416-3.291656Z" id="2-g0-48"/>
   </defs>
   <g fill="rgb(0,0,0)" transform="translate(503.881235,273.445097) matrix(3 0 0 3 0 0)">
    <use x="-72.000004" xlink:href="#2-g1-117" y="-64.510268"/>
    <use x="-66.296809" xlink:href="#2-g0-48" y="-68.125632"/>
    <use x="-66.296809" xlink:href="#2-g2-110" y="-62.047337"/>
    <use x="-62.111101" xlink:href="#2-g2-117" y="-62.047337"/>
    <use x="-57.710912" xlink:href="#2-g2-109" y="-62.047337"/>
   </g>
   <polyline fill="none" points="252.393,119.762 281.967,119.762" stroke="#ffff00" stroke-linecap="butt" stroke-linejoin="round" stroke-width="0.5"/>
   <defs>
    <path d="M3.486924-.557908C3.596513-.14944 3.945205 .109589 4.373599 .109589C4.722291 .109589 4.951432-.119552 5.110834-.438356C5.280199-.797011 5.409714-1.404732 5.409714-1.424658C5.409714-1.524284 5.32005-1.524284 5.290162-1.524284C5.190535-1.524284 5.180573-1.484433 5.150685-1.344956C5.011208-.787049 4.821918-.109589 4.403487-.109589C4.194271-.109589 4.094645-.239103 4.094645-.56787C4.094645-.787049 4.214197-1.255293 4.293898-1.603985L4.572852-2.67995C4.60274-2.82939 4.702366-3.20797 4.742217-3.35741C4.79203-3.58655 4.891656-3.965131 4.891656-4.024907C4.891656-4.204234 4.752179-4.293898 4.60274-4.293898C4.552927-4.293898 4.293898-4.283935 4.214197-3.945205C4.024907-3.217933 3.58655-1.474471 3.466999-.946451C3.457036-.9066 3.058531-.109589 2.331258-.109589C1.8132-.109589 1.713574-.557908 1.713574-.926526C1.713574-1.484433 1.992528-2.271482 2.251557-2.958904C2.371108-3.257783 2.420922-3.39726 2.420922-3.58655C2.420922-4.034869 2.102117-4.403487 1.603985-4.403487C.657534-4.403487 .288917-2.958904 .288917-2.86924C.288917-2.769614 .388543-2.769614 .408468-2.769614C.508095-2.769614 .518057-2.789539 .56787-2.948941C.816936-3.815691 1.195517-4.184309 1.574097-4.184309C1.663761-4.184309 1.823163-4.174346 1.823163-3.855542C1.823163-3.616438 1.713574-3.327522 1.653798-3.178082C1.285181-2.191781 1.075965-1.574097 1.075965-1.085928C1.075965-.139477 1.763387 .109589 2.30137 .109589C2.958904 .109589 3.317559-.33873 3.486924-.557908Z" id="3-g1-117"/>
    <path d="M2.022416-3.291656C2.078207-3.410212 2.085181-3.466002 2.085181-3.514819C2.085181-3.731009 1.889913-3.898381 1.673724-3.898381C1.408717-3.898381 1.325031-3.682192 1.290162-3.57061L.369614-.550934C.36264-.536986 .334745-.446326 .334745-.439352C.334745-.355666 .550934-.285928 .606725-.285928C.655542-.285928 .662516-.299875 .711333-.404483L2.022416-3.291656Z" id="3-g0-48"/>
    <path d="M3.110336-1.868991C3.110336-2.238605 3.110336-2.503611 2.789539-2.761644C2.503611-2.998755 2.168867-3.110336 1.75741-3.110336C1.094894-3.110336 .627646-2.859278 .627646-2.433873C.627646-2.21071 .781071-2.092154 .962391-2.092154C1.150685-2.092154 1.290162-2.231631 1.290162-2.419925C1.290162-2.538481 1.234371-2.684932 1.046077-2.740722C1.297136-2.915068 1.701619-2.915068 1.743462-2.915068C2.133998-2.915068 2.559402-2.657036 2.559402-2.071233V-1.855044C2.175841-1.841096 1.715567-1.820174 1.206476-1.63188C.578829-1.401743 .383562-1.018182 .383562-.704359C.383562-.104608 1.108842 .069738 1.603985 .069738C2.161893 .069738 2.489664-.244085 2.636115-.516065C2.66401-.230137 2.852304 .034869 3.173101 .034869C3.187049 .034869 3.863512 .034869 3.863512-.627646V-1.011208H3.626401V-.63462C3.626401-.564882 3.626401-.230137 3.368369-.230137S3.110336-.557908 3.110336-.648568V-1.868991ZM2.559402-.983313C2.559402-.313823 1.973599-.125529 1.659776-.125529C1.30411-.125529 .969365-.36264 .969365-.704359C.969365-1.08792 1.30411-1.624907 2.559402-1.673724V-.983313Z" id="3-g2-97"/>
    <path d="M3.591532-2.113076C3.591532-2.719801 3.291656-3.075467 2.545455-3.075467C1.973599-3.075467 1.603985-2.761644 1.408717-2.399004H1.401743V-3.075467L.376588-2.998755V-2.747696C.843836-2.747696 .899626-2.698879 .899626-2.357161V-.550934C.899626-.251059 .829888-.251059 .376588-.251059V0C.390535 0 .878705-.027895 1.171606-.027895C1.429639-.027895 1.910834-.006974 1.973599 0V-.251059C1.520299-.251059 1.45056-.251059 1.45056-.550934V-1.806227C1.45056-2.538481 2.02939-2.880199 2.489664-2.880199C2.977833-2.880199 3.040598-2.496638 3.040598-2.140971V-.550934C3.040598-.251059 2.970859-.251059 2.517559-.251059V0C2.531507 0 3.019676-.027895 3.312578-.027895C3.57061-.027895 4.051806-.006974 4.11457 0V-.251059C3.66127-.251059 3.591532-.251059 3.591532-.550934V-2.113076Z" id="3-g2-110"/>
   </defs>
   <g fill="rgb(0,0,0)" transform="translate(503.881235,320.762123) matrix(3 0 0 3 0 0)">
    <use x="-72.000004" xlink:href="#3-g1-117" y="-64.510268"/>
    <use x="-66.296809" xlink:href="#3-g0-48" y="-68.125632"/>
    <use x="-66.296809" xlink:href="#3-g2-97" y="-62.047337"/>
    <use x="-62.325568" xlink:href="#3-g2-110" y="-62.047337"/>
    <use x="-57.925379" xlink:href="#3-g2-97" y="-62.047337"/>
   </g>
  </g>
 </g>
</svg>
