<?xml version='1.0' encoding='UTF-8' standalone='no'?>
<svg height="304pt" viewBox="0 0 405 304" width="405pt" xmlns="http://www.w3.org/2000/svg" xmlns:xlink="http://www.w3.org/1999/xlink">
 <title>Figure 7</title>
 <desc>
Creator: GL2PS 1.4.2, (C) 1999-2020 C. Geuzaine
For: Octave
CreationDate: Mon Sep  8 17:04:49 2025
</desc>
 <defs/>
 <polygon fill="#ffffff" points="0,0 405,0 405,304 0,304"/>
 <g>
  <polygon fill="#ffffff" points="0,304 405,304 405,0 0,0" shape-rendering="crispEdges"/>
  <clipPath id="cp00405304">
   <polygon points="0,304 405,304 405,0 0,0"/>
  </clipPath>
  <g clip-path="url(#cp00405304)">
   <polygon fill="#ffffff" points="62.0075,270.829 367.225,270.829 367.225,33 62.0075,33" shape-rendering="crispEdges"/>
   <polyline fill="none" points="62.0075,270.829 62.0075,267.779" stroke="#262626" stroke-linecap="butt" stroke-linejoin="miter" stroke-width="0.5"/>
   <polyline fill="none" points="123.051,270.829 123.051,267.779" stroke="#262626" stroke-linecap="butt" stroke-linejoin="miter" stroke-width="0.5"/>
   <polyline fill="none" points="184.095,270.829 184.095,267.779" stroke="#262626" stroke-linecap="butt" stroke-linejoin="miter" stroke-width="0.5"/>
   <polyline fill="none" points="245.138,270.829 245.138,267.779" stroke="#262626" stroke-linecap="butt" stroke-linejoin="miter" stroke-width="0.5"/>
   <polyline fill="none" points="306.182,270.829 306.182,267.779" stroke="#262626" stroke-linecap="butt" stroke-linejoin="miter" stroke-width="0.5"/>
   <polyline fill="none" points="367.225,270.829 367.225,267.779" stroke="#262626" stroke-linecap="butt" stroke-linejoin="miter" stroke-width="0.5"/>
   <g font-family="FreeSans" font-size="10" font-style="normal" font-weight="normal" transform="translate(59.0076,286.324) rotate(-0,3,-8)" xml:space="preserve">
    <text fill="rgb(38,38,38)" x="0 " y="-0">0</text>
   </g>
   <g font-family="FreeSans" font-size="10" font-style="normal" font-weight="normal" transform="translate(115.551,286.324) rotate(-0,7.5,-8)" xml:space="preserve">
    <text fill="rgb(38,38,38)" x="0 6 9 " y="-0">0.2</text>
   </g>
   <g font-family="FreeSans" font-size="10" font-style="normal" font-weight="normal" transform="translate(176.595,286.324) rotate(-0,7.5,-8)" xml:space="preserve">
    <text fill="rgb(38,38,38)" x="0 6 9 " y="-0">0.4</text>
   </g>
   <g font-family="FreeSans" font-size="10" font-style="normal" font-weight="normal" transform="translate(237.638,286.324) rotate(-0,7.5,-8)" xml:space="preserve">
    <text fill="rgb(38,38,38)" x="0 6 9 " y="-0">0.6</text>
   </g>
   <g font-family="FreeSans" font-size="10" font-style="normal" font-weight="normal" transform="translate(298.682,286.324) rotate(-0,7.5,-8)" xml:space="preserve">
    <text fill="rgb(38,38,38)" x="0 6 9 " y="-0">0.8</text>
   </g>
   <g font-family="FreeSans" font-size="10" font-style="normal" font-weight="normal" transform="translate(364.225,286.324) rotate(-0,3,-8)" xml:space="preserve">
    <text fill="rgb(38,38,38)" x="0 " y="-0">1</text>
   </g>
   <polyline fill="none" points="62.0075,270.829 65.0619,270.829" stroke="#262626" stroke-linecap="butt" stroke-linejoin="miter" stroke-width="0.5"/>
   <polyline fill="none" points="62.0075,231.191 65.0619,231.191" stroke="#262626" stroke-linecap="butt" stroke-linejoin="miter" stroke-width="0.5"/>
   <polyline fill="none" points="62.0075,191.553 65.0619,191.553" stroke="#262626" stroke-linecap="butt" stroke-linejoin="miter" stroke-width="0.5"/>
   <polyline fill="none" points="62.0075,151.915 65.0619,151.915" stroke="#262626" stroke-linecap="butt" stroke-linejoin="miter" stroke-width="0.5"/>
   <polyline fill="none" points="62.0075,112.276 65.0619,112.276" stroke="#262626" stroke-linecap="butt" stroke-linejoin="miter" stroke-width="0.5"/>
   <polyline fill="none" points="62.0075,72.6382 65.0619,72.6382" stroke="#262626" stroke-linecap="butt" stroke-linejoin="miter" stroke-width="0.5"/>
   <polyline fill="none" points="62.0075,33 65.0619,33" stroke="#262626" stroke-linecap="butt" stroke-linejoin="miter" stroke-width="0.5"/>
   <g font-family="FreeSans" font-size="10" font-style="normal" font-weight="normal" transform="translate(36.004,274.829) rotate(-0,21,-4)" xml:space="preserve">
    <text fill="rgb(38,38,38)" x="0 3 9 15 " y="-0">-150</text>
   </g>
   <g font-family="FreeSans" font-size="10" font-style="normal" font-weight="normal" transform="translate(36.004,235.191) rotate(-0,21,-4)" xml:space="preserve">
    <text fill="rgb(38,38,38)" x="0 3 9 15 " y="-0">-100</text>
   </g>
   <g font-family="FreeSans" font-size="10" font-style="normal" font-weight="normal" transform="translate(42.004,195.553) rotate(-0,15,-4)" xml:space="preserve">
    <text fill="rgb(38,38,38)" x="0 3 9 " y="-0">-50</text>
   </g>
   <g font-family="FreeSans" font-size="10" font-style="normal" font-weight="normal" transform="translate(51.004,155.915) rotate(-0,6,-4)" xml:space="preserve">
    <text fill="rgb(38,38,38)" x="0 " y="-0">0</text>
   </g>
   <g font-family="FreeSans" font-size="10" font-style="normal" font-weight="normal" transform="translate(45.004,116.276) rotate(-0,12,-4)" xml:space="preserve">
    <text fill="rgb(38,38,38)" x="0 6 " y="-0">50</text>
   </g>
   <g font-family="FreeSans" font-size="10" font-style="normal" font-weight="normal" transform="translate(39.004,76.6382) rotate(-0,18,-4)" xml:space="preserve">
    <text fill="rgb(38,38,38)" x="0 6 12 " y="-0">100</text>
   </g>
   <g font-family="FreeSans" font-size="10" font-style="normal" font-weight="normal" transform="translate(39.004,37) rotate(-0,18,-4)" xml:space="preserve">
    <text fill="rgb(38,38,38)" x="0 6 12 " y="-0">150</text>
   </g>
   <polyline fill="none" points="62.0075,270.829 367.225,270.829" stroke="#262626" stroke-dasharray="16,0" stroke-linecap="square" stroke-linejoin="miter" stroke-width="0.5"/>
   <polyline fill="none" points="62.0075,270.829 62.0075,33" stroke="#262626" stroke-dasharray="16,0" stroke-linecap="square" stroke-linejoin="miter" stroke-width="0.5"/>
   <defs>
    <path d="M2.859278-2.34122C3.158157-2.719801 3.536737-3.20797 3.775841-3.466999C4.084682-3.825654 4.493151-3.975093 4.961395-3.985056V-4.293898C4.702366-4.273973 4.403487-4.26401 4.144458-4.26401C3.845579-4.26401 3.317559-4.283935 3.188045-4.293898V-3.985056C3.39726-3.965131 3.476961-3.835616 3.476961-3.676214S3.377335-3.387298 3.327522-3.327522L2.709838-2.550436L1.932752-3.556663C1.843088-3.656289 1.843088-3.676214 1.843088-3.73599C1.843088-3.88543 1.992528-3.975093 2.191781-3.985056V-4.293898C1.932752-4.283935 1.275218-4.26401 1.115816-4.26401C.9066-4.26401 .438356-4.273973 .169365-4.293898V-3.985056C.86675-3.985056 .876712-3.975093 1.344956-3.377335L2.331258-2.092154L1.39477-.9066C.916563-.328767 .328767-.308842 .119552-.308842V0C.37858-.019925 .687422-.029888 .946451-.029888C1.235367-.029888 1.653798-.009963 1.892902 0V-.308842C1.673724-.33873 1.603985-.468244 1.603985-.617684C1.603985-.836862 1.892902-1.165629 2.500623-1.882939L3.257783-.886675C3.337484-.777086 3.466999-.617684 3.466999-.557908C3.466999-.468244 3.377335-.318804 3.108344-.308842V0C3.407223-.009963 3.965131-.029888 4.184309-.029888C4.4533-.029888 4.841843-.019925 5.140722 0V-.308842C4.60274-.308842 4.423412-.328767 4.194271-.617684L2.859278-2.34122Z" id="0-g0-120"/>
   </defs>
   <g fill="rgb(38,38,38)" transform="translate(422.616345,507.323987) matrix(3 0 0 3 0 0)">
    <use x="-72.000004" xlink:href="#0-g0-120" y="-67.710548"/>
   </g>
   <defs>
    <path d="M3.297634 2.391034C3.297634 2.361146 3.297634 2.34122 3.128269 2.171856C1.882939 .916563 1.564134-.966376 1.564134-2.49066C1.564134-4.224159 1.942715-5.957659 3.16812-7.202989C3.297634-7.32254 3.297634-7.342466 3.297634-7.372354C3.297634-7.442092 3.257783-7.47198 3.198007-7.47198C3.098381-7.47198 2.201743-6.794521 1.613948-5.529265C1.105853-4.433375 .986301-3.327522 .986301-2.49066C.986301-1.713574 1.09589-.508095 1.643836 .617684C2.241594 1.843088 3.098381 2.49066 3.198007 2.49066C3.257783 2.49066 3.297634 2.460772 3.297634 2.391034Z" id="1-g0-40"/>
    <path d="M2.879203-2.49066C2.879203-3.267746 2.769614-4.473225 2.221669-5.599004C1.62391-6.824408 .767123-7.47198 .667497-7.47198C.607721-7.47198 .56787-7.43213 .56787-7.372354C.56787-7.342466 .56787-7.32254 .757161-7.143213C1.733499-6.156912 2.30137-4.572852 2.30137-2.49066C2.30137-.787049 1.932752 .966376 .697385 2.221669C.56787 2.34122 .56787 2.361146 .56787 2.391034C.56787 2.450809 .607721 2.49066 .667497 2.49066C.767123 2.49066 1.663761 1.8132 2.251557 .547945C2.759651-.547945 2.879203-1.653798 2.879203-2.49066Z" id="1-g0-41"/>
    <path d="M3.895392-.787049V.109589L5.330012 0V-.308842C4.632628-.308842 4.552927-.37858 4.552927-.86675V-4.403487L3.088418-4.293898V-3.985056C3.785803-3.985056 3.865504-3.915318 3.865504-3.427148V-1.653798C3.865504-.787049 3.387298-.109589 2.660025-.109589C1.823163-.109589 1.783313-.577833 1.783313-1.09589V-4.403487L.318804-4.293898V-3.985056C1.09589-3.985056 1.09589-3.955168 1.09589-3.068493V-1.574097C1.09589-.797011 1.09589 .109589 2.610212 .109589C3.16812 .109589 3.606476-.169365 3.895392-.787049Z" id="1-g0-117"/>
    <path d="M2.859278-2.34122C3.158157-2.719801 3.536737-3.20797 3.775841-3.466999C4.084682-3.825654 4.493151-3.975093 4.961395-3.985056V-4.293898C4.702366-4.273973 4.403487-4.26401 4.144458-4.26401C3.845579-4.26401 3.317559-4.283935 3.188045-4.293898V-3.985056C3.39726-3.965131 3.476961-3.835616 3.476961-3.676214S3.377335-3.387298 3.327522-3.327522L2.709838-2.550436L1.932752-3.556663C1.843088-3.656289 1.843088-3.676214 1.843088-3.73599C1.843088-3.88543 1.992528-3.975093 2.191781-3.985056V-4.293898C1.932752-4.283935 1.275218-4.26401 1.115816-4.26401C.9066-4.26401 .438356-4.273973 .169365-4.293898V-3.985056C.86675-3.985056 .876712-3.975093 1.344956-3.377335L2.331258-2.092154L1.39477-.9066C.916563-.328767 .328767-.308842 .119552-.308842V0C.37858-.019925 .687422-.029888 .946451-.029888C1.235367-.029888 1.653798-.009963 1.892902 0V-.308842C1.673724-.33873 1.603985-.468244 1.603985-.617684C1.603985-.836862 1.892902-1.165629 2.500623-1.882939L3.257783-.886675C3.337484-.777086 3.466999-.617684 3.466999-.557908C3.466999-.468244 3.377335-.318804 3.108344-.308842V0C3.407223-.009963 3.965131-.029888 4.184309-.029888C4.4533-.029888 4.841843-.019925 5.140722 0V-.308842C4.60274-.308842 4.423412-.328767 4.194271-.617684L2.859278-2.34122Z" id="1-g0-120"/>
   </defs>
   <g fill="rgb(38,38,38)" transform="rotate(-90.000000,31.003990,151.914659) translate(220.004003,336.914672) matrix(3 0 0 3 0 0)">
    <use x="-72.000004" xlink:href="#1-g0-117" y="-64.528024"/>
    <use x="-66.465187" xlink:href="#1-g0-40" y="-64.528024"/>
    <use x="-62.590814" xlink:href="#1-g0-120" y="-64.528024"/>
    <use x="-57.332726" xlink:href="#1-g0-41" y="-64.528024"/>
   </g>
   <g font-family="FreeSans" font-size="30" font-style="normal" font-weight="bold" transform="translate(152.116,23) rotate(-0,62.5,0)" xml:space="preserve">
    <text fill="rgb(0,0,0)" x="0 20 38 46 64 81 89 107 " y="-0">Solución</text>
   </g>
   <polyline fill="none" points="280.523,109.356 282.671,98.7527 284.803,90.0569 286.918,83.2271 289.014,78.2205 291.093,74.9932 293.153,73.5446 295.193,73.8587 297.214,75.8854 299.215,79.5736 301.194,84.8708 303.153,91.7236 305.089,100.077 307.004,109.736 308.896,119.532 310.764,129.213 312.609,138.778 314.43,148.224 316.227,157.548 317.998,166.747 319.744,175.82 321.465,184.763 323.159,193.14 324.826,200.562 326.467,207.067 328.08,212.692 329.665,217.476 331.222,221.456 332.75,224.671 334.249,227.158 335.719,228.955 337.159,230.104 338.569,230.685" stroke="#ff0000" stroke-linecap="butt" stroke-linejoin="round" stroke-width="0.5"/>
   <polyline fill="none" points="366.101,156.735 366.372,155.581 366.606,154.581 366.802,153.738 366.961,153.053 367.083,152.529 367.167,152.165 367.214,151.962" stroke="#ff0000" stroke-linecap="butt" stroke-linejoin="round" stroke-width="0.5"/>
   <polyline fill="none" points="62.0185,151.729 62.0654,150.939 62.1497,149.528 62.2714,147.513 62.4305,144.92 62.627,141.783 62.8608,138.142 63.1318,134.047 63.4401,129.555 63.7854,124.729 64.1678,119.642 64.5871,114.373 65.0433,109.009 65.5361,103.643 66.0656,98.3763 66.6316,93.3176 67.2338,88.5814 67.8723,84.2896 68.5468,80.5704 69.2571,77.5584 70.0032,75.3949 70.7847,74.2268 71.6016,74.2073 72.4535,75.495 73.3404,78.2542 74.2619,82.6548 75.2179,88.8713 76.2081,97.0836 77.2324,107.476 78.2903,118.982 79.3817,130.193 80.5063,141.042 81.6638,151.464" stroke="#ff0000" stroke-linecap="butt" stroke-linejoin="round" stroke-width="0.5"/>
   <polyline fill="none" points="134.039,203.134 136.08,212.287 138.14,218.993 140.218,222.464 142.315,221.618 144.43,216.337 146.561,206.513 148.71,192.04 150.875,172.816 153.055,148.743 155.251,122.771 157.461,102.023 159.685,86.9055 161.922,77.5291 164.173,73.9997 166.436,76.4182 168.71,84.8799 170.996,97.3358 173.293,111.193 175.6,126.459 177.916,143.148 180.242,161.271 182.576,180.84 184.917,201.415 187.266,217.673 189.622,228.022 191.984,232.414 194.351,230.8 196.724,223.142 199.1,209.407 201.481,192.056 203.865,174.805 206.251,157.695" stroke="#ff0000" stroke-linecap="butt" stroke-linejoin="round" stroke-width="0.5"/>
   <polyline fill="none" points="338.569,230.685 339.949,230.747 341.298,230.324 342.615,229.447 343.902,228.151 345.156,226.466 346.379,224.427 347.569,222.063 348.726,219.406 349.851,216.487 350.942,213.335 352,209.981 353.025,206.563 354.015,203.192 354.971,199.875 355.892,196.619 356.779,193.432 357.631,190.32 358.448,187.291 359.229,184.351 359.976,181.506 360.686,178.762 361.36,176.126 361.999,173.602 362.601,171.197 363.167,168.914 363.697,166.759 364.189,164.735 364.646,162.849 365.065,161.102 365.447,159.498 365.793,158.042 366.101,156.735" stroke="#ff0000" stroke-linecap="butt" stroke-linejoin="round" stroke-width="0.5"/>
   <polyline fill="none" points="81.6638,151.464 82.854,161.392 84.0765,170.758 85.3311,179.494 86.6174,187.529 87.9351,194.794 89.2839,201.215 90.6636,206.723 92.0736,211.242 93.5137,214.456 94.9836,215.502 96.4828,214.188 98.011,210.374 99.5678,203.919 101.153,194.683 102.766,182.526 104.406,167.307 106.074,148.887 107.768,127.126 109.488,105.833 111.234,89.2714 113.006,77.6678 114.802,71.2485 116.623,70.2377 118.468,74.8567 120.337,85.3246 122.229,101.857 124.143,123.315 126.08,143.559 128.038,161.743 130.018,177.786 132.019,191.609 134.039,203.134" stroke="#ff0000" stroke-linecap="butt" stroke-linejoin="round" stroke-width="0.5"/>
   <polyline fill="none" points="206.251,157.695 208.64,140.73 211.03,123.916 213.421,107.256 215.812,91.3578 218.203,79.8447 220.593,73.3191 222.981,71.7757 225.368,75.2027 227.752,83.5856 230.132,96.8765 232.509,112.219 234.881,127.71 237.249,143.343 239.611,159.113 241.966,175.016 244.315,191.046 246.657,206.377 248.991,218.186 251.316,226.267 253.633,230.661 255.94,231.41 258.236,228.56 260.522,222.164 262.797,213.502 265.06,203.601 267.31,192.484 269.548,180.175 271.772,166.699 273.982,152.083 276.178,136.441 278.358,121.906 280.523,109.356" stroke="#ff0000" stroke-linecap="butt" stroke-linejoin="round" stroke-width="0.5"/>
   <polyline fill="none" points="62.0185,151.78 62.0654,151.207 62.1497,150.176 62.2714,148.687 62.4305,146.744 62.627,144.35 62.8608,141.511 63.1318,138.239 63.4401,134.55 63.7854,130.467 64.1678,126.02 64.5871,121.251 65.0433,116.213 65.5361,110.973 66.0656,105.61 66.6316,100.221 67.2338,94.9181 67.8723,89.8308 68.5468,85.1027 69.2571,80.8916 70.0032,77.366 70.7847,74.7014 71.6016,73.0753 72.4535,72.6603 73.3404,73.6167 74.2619,76.0833 75.2179,80.1685 76.2081,85.9391 77.2324,93.4113 78.2903,102.54 79.3817,113.212 80.5063,125.239 81.6638,138.352" stroke="#0000ff" stroke-linecap="butt" stroke-linejoin="round" stroke-width="0.5"/>
   <polyline fill="none" points="134.039,209.966 136.08,222.072 138.14,229.306 140.218,231.099 142.315,227.266 144.43,218.032 146.561,204.022 148.71,186.222 150.875,165.905 153.055,144.546 155.251,123.704 157.461,104.907 159.685,89.5361 161.922,78.7182 164.173,73.2412 166.436,73.4948 168.71,79.4431 170.996,90.6301 173.293,106.218 175.6,125.055 177.916,145.765 180.242,166.854 182.576,186.82 184.917,204.268 187.266,218.005 189.622,227.122 191.984,231.05 194.351,229.594 196.724,222.932 199.1,211.59 201.481,196.396 203.865,178.407 206.251,158.835" stroke="#0000ff" stroke-linecap="butt" stroke-linejoin="round" stroke-width="0.5"/>
   <polyline fill="none" points="366.101,156.516 366.372,155.404 366.606,154.447 366.802,153.643 366.961,152.992 367.083,152.495 367.167,152.151 367.214,151.959" stroke="#0000ff" stroke-linecap="butt" stroke-linejoin="round" stroke-width="0.5"/>
   <polyline fill="none" points="280.523,110.241 282.671,99.2766 284.803,90.0196 286.918,82.6525 289.014,77.286 291.093,73.9628 293.153,72.6628 295.193,73.3113 297.214,75.7872 299.215,79.9315 301.194,85.5566 303.153,92.455 305.089,100.407 307.004,109.188 308.896,118.577 310.764,128.36 312.609,138.333 314.43,148.311 316.227,158.126 317.998,167.628 319.744,176.693 321.465,185.212 323.159,193.102 324.826,200.297 326.467,206.751 328.08,212.436 329.665,217.339 331.222,221.46 332.75,224.813 334.249,227.42 335.719,229.314 337.159,230.533 338.569,231.12" stroke="#0000ff" stroke-linecap="butt" stroke-linejoin="round" stroke-width="0.5"/>
   <polyline fill="none" points="81.6638,138.352 82.854,152.208 84.0765,166.389 85.3311,180.412 86.6174,193.75 87.9351,205.844 89.2839,216.135 90.6636,224.089 92.0736,229.232 93.5137,231.182 94.9836,229.68 96.4828,224.621 98.011,216.076 99.5678,204.305 101.153,189.764 102.766,173.094 104.406,155.098 106.074,136.712 107.768,118.948 109.488,102.845 111.234,89.3958 113.006,79.485 114.802,73.8179 116.623,72.8637 118.468,76.8071 120.337,85.5198 122.229,98.5506 124.143,115.141 126.08,134.262 128.038,154.677 130.018,175.021 132.019,193.895 134.039,209.966" stroke="#0000ff" stroke-linecap="butt" stroke-linejoin="round" stroke-width="0.5"/>
   <polyline fill="none" points="206.251,158.835 208.64,138.954 211.03,120.018 213.421,103.178 215.812,89.4124 218.203,79.4771 220.593,73.8666 222.981,72.7995 225.368,76.2202 227.752,83.8176 230.132,95.0592 232.509,109.235 234.881,125.509 237.249,142.975 239.611,160.706 241.966,177.814 244.315,193.486 246.657,207.025 248.991,217.874 251.316,225.636 253.633,230.079 255.94,231.132 258.236,228.881 260.522,223.547 262.797,215.464 265.06,205.059 267.31,192.823 269.548,179.284 271.772,164.983 273.982,150.452 276.178,136.191 278.358,122.655 280.523,110.241" stroke="#0000ff" stroke-linecap="butt" stroke-linejoin="round" stroke-width="0.5"/>
   <polyline fill="none" points="338.569,231.12 339.949,231.123 341.298,230.591 342.615,229.577 343.902,228.132 345.156,226.306 346.379,224.15 347.569,221.712 348.726,219.037 349.851,216.171 350.942,213.152 352,210.019 353.025,206.807 354.015,203.547 354.971,200.269 355.892,196.997 356.779,193.756 357.631,190.565 358.448,187.443 359.229,184.405 359.976,181.464 360.686,178.632 361.36,175.919 361.999,173.333 362.601,170.881 363.167,168.567 363.697,166.396 364.189,164.372 364.646,162.496 365.065,160.772 365.447,159.2 365.793,157.781 366.101,156.516" stroke="#0000ff" stroke-linecap="butt" stroke-linejoin="round" stroke-width="0.5"/>
  </g>
  <clipPath id="cp00405304">
   <polygon points="0,304 405,304 405,0 0,0"/>
  </clipPath>
  <g clip-path="url(#cp00405304)">
   <polygon fill="#ffffff" points="246.479,145.378 355.396,145.378 355.396,44.8293 246.479,44.8293" shape-rendering="crispEdges"/>
   <polyline fill="none" points="246.479,145.378 355.396,145.378" stroke="#262626" stroke-dasharray="16,0" stroke-linecap="square" stroke-linejoin="miter" stroke-width="0.5"/>
   <polyline fill="none" points="246.479,44.8293 355.396,44.8293" stroke="#262626" stroke-dasharray="16,0" stroke-linecap="square" stroke-linejoin="miter" stroke-width="0.5"/>
   <polyline fill="none" points="246.479,145.378 246.479,44.8293" stroke="#262626" stroke-dasharray="16,0" stroke-linecap="square" stroke-linejoin="miter" stroke-width="0.5"/>
   <polyline fill="none" points="355.396,145.378 355.396,44.8293" stroke="#262626" stroke-dasharray="16,0" stroke-linecap="square" stroke-linejoin="miter" stroke-width="0.5"/>
   <polyline fill="none" points="252.393,71.4451 281.967,71.4451" stroke="#ff0000" stroke-linecap="butt" stroke-linejoin="round" stroke-width="0.5"/>
   <defs>
    <path d="M3.486924-.557908C3.596513-.14944 3.945205 .109589 4.373599 .109589C4.722291 .109589 4.951432-.119552 5.110834-.438356C5.280199-.797011 5.409714-1.404732 5.409714-1.424658C5.409714-1.524284 5.32005-1.524284 5.290162-1.524284C5.190535-1.524284 5.180573-1.484433 5.150685-1.344956C5.011208-.787049 4.821918-.109589 4.403487-.109589C4.194271-.109589 4.094645-.239103 4.094645-.56787C4.094645-.787049 4.214197-1.255293 4.293898-1.603985L4.572852-2.67995C4.60274-2.82939 4.702366-3.20797 4.742217-3.35741C4.79203-3.58655 4.891656-3.965131 4.891656-4.024907C4.891656-4.204234 4.752179-4.293898 4.60274-4.293898C4.552927-4.293898 4.293898-4.283935 4.214197-3.945205C4.024907-3.217933 3.58655-1.474471 3.466999-.946451C3.457036-.9066 3.058531-.109589 2.331258-.109589C1.8132-.109589 1.713574-.557908 1.713574-.926526C1.713574-1.484433 1.992528-2.271482 2.251557-2.958904C2.371108-3.257783 2.420922-3.39726 2.420922-3.58655C2.420922-4.034869 2.102117-4.403487 1.603985-4.403487C.657534-4.403487 .288917-2.958904 .288917-2.86924C.288917-2.769614 .388543-2.769614 .408468-2.769614C.508095-2.769614 .518057-2.789539 .56787-2.948941C.816936-3.815691 1.195517-4.184309 1.574097-4.184309C1.663761-4.184309 1.823163-4.174346 1.823163-3.855542C1.823163-3.616438 1.713574-3.327522 1.653798-3.178082C1.285181-2.191781 1.075965-1.574097 1.075965-1.085928C1.075965-.139477 1.763387 .109589 2.30137 .109589C2.958904 .109589 3.317559-.33873 3.486924-.557908Z" id="2-g0-117"/>
    <path d="M5.732503-2.113076C5.732503-2.719801 5.432628-3.075467 4.686426-3.075467C4.135492-3.075467 3.758904-2.775592 3.57061-2.426899C3.431133-2.922042 3.054545-3.075467 2.545455-3.075467C1.973599-3.075467 1.603985-2.761644 1.408717-2.399004H1.401743V-3.075467L.376588-2.998755V-2.747696C.843836-2.747696 .899626-2.698879 .899626-2.357161V-.550934C.899626-.251059 .829888-.251059 .376588-.251059V0C.390535 0 .878705-.027895 1.171606-.027895C1.429639-.027895 1.910834-.006974 1.973599 0V-.251059C1.520299-.251059 1.45056-.251059 1.45056-.550934V-1.806227C1.45056-2.538481 2.02939-2.880199 2.489664-2.880199C2.977833-2.880199 3.040598-2.496638 3.040598-2.140971V-.550934C3.040598-.251059 2.970859-.251059 2.517559-.251059V0C2.531507 0 3.019676-.027895 3.312578-.027895C3.57061-.027895 4.051806-.006974 4.11457 0V-.251059C3.66127-.251059 3.591532-.251059 3.591532-.550934V-1.806227C3.591532-2.538481 4.170361-2.880199 4.630635-2.880199C5.118804-2.880199 5.181569-2.496638 5.181569-2.140971V-.550934C5.181569-.251059 5.111831-.251059 4.658531-.251059V0C4.672478 0 5.160648-.027895 5.453549-.027895C5.711582-.027895 6.192777-.006974 6.255542 0V-.251059C5.802242-.251059 5.732503-.251059 5.732503-.550934V-2.113076Z" id="2-g1-109"/>
    <path d="M3.591532-2.113076C3.591532-2.719801 3.291656-3.075467 2.545455-3.075467C1.973599-3.075467 1.603985-2.761644 1.408717-2.399004H1.401743V-3.075467L.376588-2.998755V-2.747696C.843836-2.747696 .899626-2.698879 .899626-2.357161V-.550934C.899626-.251059 .829888-.251059 .376588-.251059V0C.390535 0 .878705-.027895 1.171606-.027895C1.429639-.027895 1.910834-.006974 1.973599 0V-.251059C1.520299-.251059 1.45056-.251059 1.45056-.550934V-1.806227C1.45056-2.538481 2.02939-2.880199 2.489664-2.880199C2.977833-2.880199 3.040598-2.496638 3.040598-2.140971V-.550934C3.040598-.251059 2.970859-.251059 2.517559-.251059V0C2.531507 0 3.019676-.027895 3.312578-.027895C3.57061-.027895 4.051806-.006974 4.11457 0V-.251059C3.66127-.251059 3.591532-.251059 3.591532-.550934V-2.113076Z" id="2-g1-110"/>
    <path d="M2.517559-2.998755V-2.747696C2.984807-2.747696 3.040598-2.698879 3.040598-2.357161V-1.164633C3.040598-.550934 2.643088-.125529 2.113076-.125529C1.478456-.125529 1.45056-.425405 1.45056-.781071V-3.075467L.376588-2.998755V-2.747696C.899626-2.747696 .899626-2.726775 .899626-2.106102V-1.060025C.899626-.578829 .899626 .069738 2.064259 .069738C2.217684 .069738 2.726775 .069738 3.061519-.516065H3.068493V.069738L4.11457 0V-.251059C3.647323-.251059 3.591532-.299875 3.591532-.641594V-3.075467L2.517559-2.998755Z" id="2-g1-117"/>
   </defs>
   <g fill="rgb(0,0,0)" transform="translate(503.881235,278.945131) matrix(3 0 0 3 0 0)">
    <use x="-72.000004" xlink:href="#2-g0-117" y="-67.710548"/>
    <use x="-66.296809" xlink:href="#2-g1-110" y="-66.216167"/>
    <use x="-62.111101" xlink:href="#2-g1-117" y="-66.216167"/>
    <use x="-57.710912" xlink:href="#2-g1-109" y="-66.216167"/>
   </g>
   <polyline fill="none" points="252.393,118.762 281.967,118.762" stroke="#0000ff" stroke-linecap="butt" stroke-linejoin="round" stroke-width="0.5"/>
   <defs>
    <path d="M3.486924-.557908C3.596513-.14944 3.945205 .109589 4.373599 .109589C4.722291 .109589 4.951432-.119552 5.110834-.438356C5.280199-.797011 5.409714-1.404732 5.409714-1.424658C5.409714-1.524284 5.32005-1.524284 5.290162-1.524284C5.190535-1.524284 5.180573-1.484433 5.150685-1.344956C5.011208-.787049 4.821918-.109589 4.403487-.109589C4.194271-.109589 4.094645-.239103 4.094645-.56787C4.094645-.787049 4.214197-1.255293 4.293898-1.603985L4.572852-2.67995C4.60274-2.82939 4.702366-3.20797 4.742217-3.35741C4.79203-3.58655 4.891656-3.965131 4.891656-4.024907C4.891656-4.204234 4.752179-4.293898 4.60274-4.293898C4.552927-4.293898 4.293898-4.283935 4.214197-3.945205C4.024907-3.217933 3.58655-1.474471 3.466999-.946451C3.457036-.9066 3.058531-.109589 2.331258-.109589C1.8132-.109589 1.713574-.557908 1.713574-.926526C1.713574-1.484433 1.992528-2.271482 2.251557-2.958904C2.371108-3.257783 2.420922-3.39726 2.420922-3.58655C2.420922-4.034869 2.102117-4.403487 1.603985-4.403487C.657534-4.403487 .288917-2.958904 .288917-2.86924C.288917-2.769614 .388543-2.769614 .408468-2.769614C.508095-2.769614 .518057-2.789539 .56787-2.948941C.816936-3.815691 1.195517-4.184309 1.574097-4.184309C1.663761-4.184309 1.823163-4.174346 1.823163-3.855542C1.823163-3.616438 1.713574-3.327522 1.653798-3.178082C1.285181-2.191781 1.075965-1.574097 1.075965-1.085928C1.075965-.139477 1.763387 .109589 2.30137 .109589C2.958904 .109589 3.317559-.33873 3.486924-.557908Z" id="3-g0-117"/>
    <path d="M3.110336-1.868991C3.110336-2.238605 3.110336-2.503611 2.789539-2.761644C2.503611-2.998755 2.168867-3.110336 1.75741-3.110336C1.094894-3.110336 .627646-2.859278 .627646-2.433873C.627646-2.21071 .781071-2.092154 .962391-2.092154C1.150685-2.092154 1.290162-2.231631 1.290162-2.419925C1.290162-2.538481 1.234371-2.684932 1.046077-2.740722C1.297136-2.915068 1.701619-2.915068 1.743462-2.915068C2.133998-2.915068 2.559402-2.657036 2.559402-2.071233V-1.855044C2.175841-1.841096 1.715567-1.820174 1.206476-1.63188C.578829-1.401743 .383562-1.018182 .383562-.704359C.383562-.104608 1.108842 .069738 1.603985 .069738C2.161893 .069738 2.489664-.244085 2.636115-.516065C2.66401-.230137 2.852304 .034869 3.173101 .034869C3.187049 .034869 3.863512 .034869 3.863512-.627646V-1.011208H3.626401V-.63462C3.626401-.564882 3.626401-.230137 3.368369-.230137S3.110336-.557908 3.110336-.648568V-1.868991ZM2.559402-.983313C2.559402-.313823 1.973599-.125529 1.659776-.125529C1.30411-.125529 .969365-.36264 .969365-.704359C.969365-1.08792 1.30411-1.624907 2.559402-1.673724V-.983313Z" id="3-g1-97"/>
    <path d="M3.591532-2.113076C3.591532-2.719801 3.291656-3.075467 2.545455-3.075467C1.973599-3.075467 1.603985-2.761644 1.408717-2.399004H1.401743V-3.075467L.376588-2.998755V-2.747696C.843836-2.747696 .899626-2.698879 .899626-2.357161V-.550934C.899626-.251059 .829888-.251059 .376588-.251059V0C.390535 0 .878705-.027895 1.171606-.027895C1.429639-.027895 1.910834-.006974 1.973599 0V-.251059C1.520299-.251059 1.45056-.251059 1.45056-.550934V-1.806227C1.45056-2.538481 2.02939-2.880199 2.489664-2.880199C2.977833-2.880199 3.040598-2.496638 3.040598-2.140971V-.550934C3.040598-.251059 2.970859-.251059 2.517559-.251059V0C2.531507 0 3.019676-.027895 3.312578-.027895C3.57061-.027895 4.051806-.006974 4.11457 0V-.251059C3.66127-.251059 3.591532-.251059 3.591532-.550934V-2.113076Z" id="3-g1-110"/>
   </defs>
   <g fill="rgb(0,0,0)" transform="translate(503.881235,326.262157) matrix(3 0 0 3 0 0)">
    <use x="-72.000004" xlink:href="#3-g0-117" y="-67.710548"/>
    <use x="-66.296809" xlink:href="#3-g1-97" y="-66.216167"/>
    <use x="-62.325568" xlink:href="#3-g1-110" y="-66.216167"/>
    <use x="-57.925379" xlink:href="#3-g1-97" y="-66.216167"/>
   </g>
  </g>
 </g>
</svg>
