<?xml version='1.0' encoding='UTF-8' standalone='no'?>
<svg height="304pt" viewBox="0 0 405 304" width="405pt" xmlns="http://www.w3.org/2000/svg" xmlns:xlink="http://www.w3.org/1999/xlink">
 <title>Figure 1</title>
 <desc>
Creator: GL2PS 1.4.2, (C) 1999-2020 C. Geuzaine
For: Octave
CreationDate: Mon Sep  8 16:36:40 2025
</desc>
 <defs/>
 <polygon fill="#ffffff" points="0,0 405,0 405,304 0,304"/>
 <g>
  <polygon fill="#ffffff" points="0,304 405,304 405,0 0,0" shape-rendering="crispEdges"/>
  <clipPath id="cp00405304">
   <polygon points="0,304 405,304 405,0 0,0"/>
  </clipPath>
  <g clip-path="url(#cp00405304)">
   <polygon fill="#ffffff" points="62.0075,270.829 367.225,270.829 367.225,33 62.0075,33" shape-rendering="crispEdges"/>
   <polyline fill="none" points="62.0075,270.829 62.0075,267.779" stroke="#262626" stroke-linecap="butt" stroke-linejoin="miter" stroke-width="0.5"/>
   <polyline fill="none" points="123.051,270.829 123.051,267.779" stroke="#262626" stroke-linecap="butt" stroke-linejoin="miter" stroke-width="0.5"/>
   <polyline fill="none" points="184.095,270.829 184.095,267.779" stroke="#262626" stroke-linecap="butt" stroke-linejoin="miter" stroke-width="0.5"/>
   <polyline fill="none" points="245.138,270.829 245.138,267.779" stroke="#262626" stroke-linecap="butt" stroke-linejoin="miter" stroke-width="0.5"/>
   <polyline fill="none" points="306.182,270.829 306.182,267.779" stroke="#262626" stroke-linecap="butt" stroke-linejoin="miter" stroke-width="0.5"/>
   <polyline fill="none" points="367.225,270.829 367.225,267.779" stroke="#262626" stroke-linecap="butt" stroke-linejoin="miter" stroke-width="0.5"/>
   <g font-family="FreeSans" font-size="10" font-style="normal" font-weight="normal" transform="translate(59.0076,286.324) rotate(-0,3,-8)" xml:space="preserve">
    <text fill="rgb(38,38,38)" x="0 " y="-0">0</text>
   </g>
   <g font-family="FreeSans" font-size="10" font-style="normal" font-weight="normal" transform="translate(115.551,286.324) rotate(-0,7.5,-8)" xml:space="preserve">
    <text fill="rgb(38,38,38)" x="0 6 9 " y="-0">0.2</text>
   </g>
   <g font-family="FreeSans" font-size="10" font-style="normal" font-weight="normal" transform="translate(176.595,286.324) rotate(-0,7.5,-8)" xml:space="preserve">
    <text fill="rgb(38,38,38)" x="0 6 9 " y="-0">0.4</text>
   </g>
   <g font-family="FreeSans" font-size="10" font-style="normal" font-weight="normal" transform="translate(237.638,286.324) rotate(-0,7.5,-8)" xml:space="preserve">
    <text fill="rgb(38,38,38)" x="0 6 9 " y="-0">0.6</text>
   </g>
   <g font-family="FreeSans" font-size="10" font-style="normal" font-weight="normal" transform="translate(298.682,286.324) rotate(-0,7.5,-8)" xml:space="preserve">
    <text fill="rgb(38,38,38)" x="0 6 9 " y="-0">0.8</text>
   </g>
   <g font-family="FreeSans" font-size="10" font-style="normal" font-weight="normal" transform="translate(364.225,286.324) rotate(-0,3,-8)" xml:space="preserve">
    <text fill="rgb(38,38,38)" x="0 " y="-0">1</text>
   </g>
   <polyline fill="none" points="62.0075,270.829 65.0619,270.829" stroke="#262626" stroke-linecap="butt" stroke-linejoin="miter" stroke-width="0.5"/>
   <polyline fill="none" points="62.0075,231.191 65.0619,231.191" stroke="#262626" stroke-linecap="butt" stroke-linejoin="miter" stroke-width="0.5"/>
   <polyline fill="none" points="62.0075,191.553 65.0619,191.553" stroke="#262626" stroke-linecap="butt" stroke-linejoin="miter" stroke-width="0.5"/>
   <polyline fill="none" points="62.0075,151.915 65.0619,151.915" stroke="#262626" stroke-linecap="butt" stroke-linejoin="miter" stroke-width="0.5"/>
   <polyline fill="none" points="62.0075,112.276 65.0619,112.276" stroke="#262626" stroke-linecap="butt" stroke-linejoin="miter" stroke-width="0.5"/>
   <polyline fill="none" points="62.0075,72.6382 65.0619,72.6382" stroke="#262626" stroke-linecap="butt" stroke-linejoin="miter" stroke-width="0.5"/>
   <polyline fill="none" points="62.0075,33 65.0619,33" stroke="#262626" stroke-linecap="butt" stroke-linejoin="miter" stroke-width="0.5"/>
   <g font-family="FreeSans" font-size="10" font-style="normal" font-weight="normal" transform="translate(36.004,274.829) rotate(-0,21,-4)" xml:space="preserve">
    <text fill="rgb(38,38,38)" x="0 3 9 15 " y="-0">-150</text>
   </g>
   <g font-family="FreeSans" font-size="10" font-style="normal" font-weight="normal" transform="translate(36.004,235.191) rotate(-0,21,-4)" xml:space="preserve">
    <text fill="rgb(38,38,38)" x="0 3 9 15 " y="-0">-100</text>
   </g>
   <g font-family="FreeSans" font-size="10" font-style="normal" font-weight="normal" transform="translate(42.004,195.553) rotate(-0,15,-4)" xml:space="preserve">
    <text fill="rgb(38,38,38)" x="0 3 9 " y="-0">-50</text>
   </g>
   <g font-family="FreeSans" font-size="10" font-style="normal" font-weight="normal" transform="translate(51.004,155.915) rotate(-0,6,-4)" xml:space="preserve">
    <text fill="rgb(38,38,38)" x="0 " y="-0">0</text>
   </g>
   <g font-family="FreeSans" font-size="10" font-style="normal" font-weight="normal" transform="translate(45.004,116.276) rotate(-0,12,-4)" xml:space="preserve">
    <text fill="rgb(38,38,38)" x="0 6 " y="-0">50</text>
   </g>
   <g font-family="FreeSans" font-size="10" font-style="normal" font-weight="normal" transform="translate(39.004,76.6382) rotate(-0,18,-4)" xml:space="preserve">
    <text fill="rgb(38,38,38)" x="0 6 12 " y="-0">100</text>
   </g>
   <g font-family="FreeSans" font-size="10" font-style="normal" font-weight="normal" transform="translate(39.004,37) rotate(-0,18,-4)" xml:space="preserve">
    <text fill="rgb(38,38,38)" x="0 6 12 " y="-0">150</text>
   </g>
   <polyline fill="none" points="62.0075,270.829 367.225,270.829" stroke="#262626" stroke-dasharray="16,0" stroke-linecap="square" stroke-linejoin="miter" stroke-width="0.5"/>
   <polyline fill="none" points="62.0075,270.829 62.0075,33" stroke="#262626" stroke-dasharray="16,0" stroke-linecap="square" stroke-linejoin="miter" stroke-width="0.5"/>
   <defs>
    <path d="M2.859278-2.34122C3.158157-2.719801 3.536737-3.20797 3.775841-3.466999C4.084682-3.825654 4.493151-3.975093 4.961395-3.985056V-4.293898C4.702366-4.273973 4.403487-4.26401 4.144458-4.26401C3.845579-4.26401 3.317559-4.283935 3.188045-4.293898V-3.985056C3.39726-3.965131 3.476961-3.835616 3.476961-3.676214S3.377335-3.387298 3.327522-3.327522L2.709838-2.550436L1.932752-3.556663C1.843088-3.656289 1.843088-3.676214 1.843088-3.73599C1.843088-3.88543 1.992528-3.975093 2.191781-3.985056V-4.293898C1.932752-4.283935 1.275218-4.26401 1.115816-4.26401C.9066-4.26401 .438356-4.273973 .169365-4.293898V-3.985056C.86675-3.985056 .876712-3.975093 1.344956-3.377335L2.331258-2.092154L1.39477-.9066C.916563-.328767 .328767-.308842 .119552-.308842V0C.37858-.019925 .687422-.029888 .946451-.029888C1.235367-.029888 1.653798-.009963 1.892902 0V-.308842C1.673724-.33873 1.603985-.468244 1.603985-.617684C1.603985-.836862 1.892902-1.165629 2.500623-1.882939L3.257783-.886675C3.337484-.777086 3.466999-.617684 3.466999-.557908C3.466999-.468244 3.377335-.318804 3.108344-.308842V0C3.407223-.009963 3.965131-.029888 4.184309-.029888C4.4533-.029888 4.841843-.019925 5.140722 0V-.308842C4.60274-.308842 4.423412-.328767 4.194271-.617684L2.859278-2.34122Z" id="0-g0-120"/>
   </defs>
   <g fill="rgb(38,38,38)" transform="translate(422.616345,507.323987) matrix(3 0 0 3 0 0)">
    <use x="-72.000004" xlink:href="#0-g0-120" y="-67.710548"/>
   </g>
   <defs>
    <path d="M3.297634 2.391034C3.297634 2.361146 3.297634 2.34122 3.128269 2.171856C1.882939 .916563 1.564134-.966376 1.564134-2.49066C1.564134-4.224159 1.942715-5.957659 3.16812-7.202989C3.297634-7.32254 3.297634-7.342466 3.297634-7.372354C3.297634-7.442092 3.257783-7.47198 3.198007-7.47198C3.098381-7.47198 2.201743-6.794521 1.613948-5.529265C1.105853-4.433375 .986301-3.327522 .986301-2.49066C.986301-1.713574 1.09589-.508095 1.643836 .617684C2.241594 1.843088 3.098381 2.49066 3.198007 2.49066C3.257783 2.49066 3.297634 2.460772 3.297634 2.391034Z" id="1-g0-40"/>
    <path d="M2.879203-2.49066C2.879203-3.267746 2.769614-4.473225 2.221669-5.599004C1.62391-6.824408 .767123-7.47198 .667497-7.47198C.607721-7.47198 .56787-7.43213 .56787-7.372354C.56787-7.342466 .56787-7.32254 .757161-7.143213C1.733499-6.156912 2.30137-4.572852 2.30137-2.49066C2.30137-.787049 1.932752 .966376 .697385 2.221669C.56787 2.34122 .56787 2.361146 .56787 2.391034C.56787 2.450809 .607721 2.49066 .667497 2.49066C.767123 2.49066 1.663761 1.8132 2.251557 .547945C2.759651-.547945 2.879203-1.653798 2.879203-2.49066Z" id="1-g0-41"/>
    <path d="M3.895392-.787049V.109589L5.330012 0V-.308842C4.632628-.308842 4.552927-.37858 4.552927-.86675V-4.403487L3.088418-4.293898V-3.985056C3.785803-3.985056 3.865504-3.915318 3.865504-3.427148V-1.653798C3.865504-.787049 3.387298-.109589 2.660025-.109589C1.823163-.109589 1.783313-.577833 1.783313-1.09589V-4.403487L.318804-4.293898V-3.985056C1.09589-3.985056 1.09589-3.955168 1.09589-3.068493V-1.574097C1.09589-.797011 1.09589 .109589 2.610212 .109589C3.16812 .109589 3.606476-.169365 3.895392-.787049Z" id="1-g0-117"/>
    <path d="M2.859278-2.34122C3.158157-2.719801 3.536737-3.20797 3.775841-3.466999C4.084682-3.825654 4.493151-3.975093 4.961395-3.985056V-4.293898C4.702366-4.273973 4.403487-4.26401 4.144458-4.26401C3.845579-4.26401 3.317559-4.283935 3.188045-4.293898V-3.985056C3.39726-3.965131 3.476961-3.835616 3.476961-3.676214S3.377335-3.387298 3.327522-3.327522L2.709838-2.550436L1.932752-3.556663C1.843088-3.656289 1.843088-3.676214 1.843088-3.73599C1.843088-3.88543 1.992528-3.975093 2.191781-3.985056V-4.293898C1.932752-4.283935 1.275218-4.26401 1.115816-4.26401C.9066-4.26401 .438356-4.273973 .169365-4.293898V-3.985056C.86675-3.985056 .876712-3.975093 1.344956-3.377335L2.331258-2.092154L1.39477-.9066C.916563-.328767 .328767-.308842 .119552-.308842V0C.37858-.019925 .687422-.029888 .946451-.029888C1.235367-.029888 1.653798-.009963 1.892902 0V-.308842C1.673724-.33873 1.603985-.468244 1.603985-.617684C1.603985-.836862 1.892902-1.165629 2.500623-1.882939L3.257783-.886675C3.337484-.777086 3.466999-.617684 3.466999-.557908C3.466999-.468244 3.377335-.318804 3.108344-.308842V0C3.407223-.009963 3.965131-.029888 4.184309-.029888C4.4533-.029888 4.841843-.019925 5.140722 0V-.308842C4.60274-.308842 4.423412-.328767 4.194271-.617684L2.859278-2.34122Z" id="1-g0-120"/>
   </defs>
   <g fill="rgb(38,38,38)" transform="rotate(-90.000000,31.003990,151.914659) translate(220.004003,336.914672) matrix(3 0 0 3 0 0)">
    <use x="-72.000004" xlink:href="#1-g0-117" y="-64.528024"/>
    <use x="-66.465187" xlink:href="#1-g0-40" y="-64.528024"/>
    <use x="-62.590814" xlink:href="#1-g0-120" y="-64.528024"/>
    <use x="-57.332726" xlink:href="#1-g0-41" y="-64.528024"/>
   </g>
   <g font-family="FreeSans" font-size="30" font-style="normal" font-weight="bold" transform="translate(152.116,23) rotate(-0,62.5,0)" xml:space="preserve">
    <text fill="rgb(0,0,0)" x="0 20 38 46 64 81 89 107 " y="-0">Solución</text>
   </g>
   <polyline fill="none" points="62.0185,151.897 62.0654,151.82 62.1497,151.683 62.2714,151.484 62.4305,151.225 62.627,150.904 62.8608,150.523 63.1318,150.081 63.4401,149.578 63.7854,149.014 64.1678,148.389 64.5871,147.703 65.0433,146.957 65.5361,146.15 66.0656,145.282 66.6316,144.353 67.2338,143.362 67.8723,142.31 68.5468,141.197 69.2571,140.021 70.0032,138.783 70.7847,137.482 71.6016,136.118 72.4535,134.691 73.3404,133.198 74.2619,131.641 75.2179,130.018 76.2081,128.328 77.2324,126.572 78.2903,124.747 79.3817,122.853 80.5063,120.891 81.6638,118.86" stroke="#ff0000" stroke-linecap="butt" stroke-linejoin="round" stroke-width="0.5"/>
   <polyline fill="none" points="134.039,109.129 136.08,118.164 138.14,128.155 140.218,138.99 142.315,150.513 144.43,162.514 146.561,174.723 148.71,186.808 150.875,198.374 153.055,208.955 155.251,218.016 157.461,225.002 159.685,229.429 161.922,230.902 164.173,229.127 166.436,223.913 168.71,215.184 170.996,202.985 173.293,187.559 175.6,169.436 177.916,149.447 180.242,128.736 182.576,108.771 184.917,91.3523 187.266,78.475 189.622,71.7392 191.984,72.0532 194.351,79.6042 196.724,93.8405 199.1,113.457 201.481,136.408 203.865,160.315 206.251,182.98" stroke="#ff0000" stroke-linecap="butt" stroke-linejoin="round" stroke-width="0.5"/>
   <polyline fill="none" points="280.523,129.631 282.671,149.876 284.803,169.875 286.918,188.06 289.014,203.045 291.093,213.623 293.153,218.786 295.193,217.929 297.214,211 299.215,198.462 301.194,181.247 303.153,160.7 305.089,138.529 307.004,116.759 308.896,97.5233 310.764,82.5051 312.609,72.7686 314.43,68.8195 316.227,70.6658 317.998,77.8751 319.744,89.637 321.465,104.817 323.159,122.035 324.826,139.951 326.467,157.498 328.08,173.871 329.665,188.504 331.222,201.033 332.75,211.276 334.249,219.208 335.719,224.929 337.159,228.65 338.569,230.655" stroke="#ff0000" stroke-linecap="butt" stroke-linejoin="round" stroke-width="0.5"/>
   <polyline fill="none" points="366.101,153.846 366.372,153.345 366.606,152.93 366.802,152.595 366.961,152.333 367.083,152.137 367.167,152.004 367.214,151.932" stroke="#ff0000" stroke-linecap="butt" stroke-linejoin="round" stroke-width="0.5"/>
   <polyline fill="none" points="206.251,182.98 208.64,202.46 211.03,217.075 213.421,225.412 215.812,226.334 218.203,219.119 220.593,203.879 222.981,181.69 225.368,154.595 227.752,125.584 230.132,98.5796 232.509,78.2374 234.881,68.4461 237.249,71.1732 239.611,86.4192 241.966,112.263 244.315,144.913 246.657,178.792 248.991,207.653 251.316,226.848 253.633,233.798 255.94,227.932 258.236,210.604 260.522,185.017 262.797,155.968 265.06,128.324 267.31,105.729 269.548,90.5607 271.772,83.9881 273.982,86.0371 276.178,95.6578 278.358,110.905 280.523,129.631" stroke="#ff0000" stroke-linecap="butt" stroke-linejoin="round" stroke-width="0.5"/>
   <polyline fill="none" points="81.6638,118.86 82.854,116.76 84.0765,114.593 85.3311,112.36 86.6174,110.065 87.9351,107.711 89.2839,105.304 90.6636,102.849 92.0736,100.355 93.5137,97.8324 94.9836,95.2926 96.4828,92.7506 98.011,90.2243 99.5678,87.7352 101.153,85.3083 102.766,82.9732 104.406,80.7636 106.074,78.7186 107.768,76.8825 109.488,75.3056 111.234,74.0434 113.006,73.1559 114.802,72.7078 116.623,72.7688 118.468,73.4133 120.337,74.721 122.229,76.7765 124.143,79.6698 126.08,83.4902 128.038,88.3105 130.018,94.1798 132.019,101.121 134.039,109.129" stroke="#ff0000" stroke-linecap="butt" stroke-linejoin="round" stroke-width="0.5"/>
   <polyline fill="none" points="338.569,230.655 339.949,231.225 341.298,230.612 342.615,229.038 343.902,226.698 345.156,223.762 346.379,220.376 347.569,216.668 348.726,212.745 349.851,208.699 350.942,204.606 352,200.529 353.025,196.519 354.015,192.619 354.971,188.861 355.892,185.271 356.779,181.869 357.631,178.669 358.448,175.678 359.229,172.902 359.976,170.341 360.686,167.993 361.36,165.854 361.999,163.915 362.601,162.17 363.167,160.607 363.697,159.216 364.189,157.985 364.646,156.904 365.065,155.961 365.447,155.144 365.793,154.442 366.101,153.846" stroke="#ff0000" stroke-linecap="butt" stroke-linejoin="round" stroke-width="0.5"/>
   <polyline fill="none" points="366.101,153.911 366.372,153.4 366.606,152.975 366.802,152.628 366.961,152.354 367.083,152.149 367.167,152.009 367.214,151.933" stroke="#0000ff" stroke-linecap="butt" stroke-linejoin="round" stroke-width="0.5"/>
   <polyline fill="none" points="62.0185,151.897 62.0654,151.82 62.1497,151.683 62.2714,151.484 62.4305,151.224 62.627,150.904 62.8608,150.522 63.1318,150.08 63.4401,149.576 63.7854,149.012 64.1678,148.388 64.5871,147.702 65.0433,146.956 65.5361,146.149 66.0656,145.281 66.6316,144.352 67.2338,143.363 67.8723,142.311 68.5468,141.199 69.2571,140.024 70.0032,138.786 70.7847,137.486 71.6016,136.122 72.4535,134.694 73.3404,133.201 74.2619,131.643 75.2179,130.019 76.2081,128.328 77.2324,126.569 78.2903,124.742 79.3817,122.847 80.5063,120.884 81.6638,118.852" stroke="#0000ff" stroke-linecap="butt" stroke-linejoin="round" stroke-width="0.5"/>
   <polyline fill="none" points="134.039,109.053 136.08,118.051 138.14,128.03 140.218,138.882 142.315,150.445 144.43,162.498 146.561,174.758 148.71,186.877 150.875,198.45 153.055,209.017 155.251,218.081 157.461,225.127 159.685,229.65 161.922,231.19 164.173,229.373 166.436,223.955 168.71,214.866 170.996,202.259 173.293,186.534 175.6,168.367 177.916,148.702 180.242,128.73 182.576,109.824 184.917,93.4571 187.266,81.0762 189.622,73.9635 191.984,73.0808 194.351,78.9211 196.724,91.3844 199.1,109.701 201.481,132.421 203.865,157.488 206.251,182.399" stroke="#0000ff" stroke-linecap="butt" stroke-linejoin="round" stroke-width="0.5"/>
   <polyline fill="none" points="280.523,120.271 282.671,147.313 284.803,174.575 286.918,198.814 289.014,217.356 291.093,228.381 293.153,231.048 295.193,225.499 297.214,212.733 299.215,194.398 301.194,172.541 303.153,149.341 305.089,126.88 307.004,106.949 308.896,90.9263 310.764,79.7124 312.609,73.7239 314.43,72.9365 316.227,76.9589 317.998,85.1254 319.744,96.5943 321.465,110.441 323.159,125.738 324.826,141.619 326.467,157.323 328.08,172.223 329.665,185.835 331.222,197.821 332.75,207.974 334.249,216.206 335.719,222.523 337.159,227.008 338.569,229.797" stroke="#0000ff" stroke-linecap="butt" stroke-linejoin="round" stroke-width="0.5"/>
   <polyline fill="none" points="206.251,182.399 208.64,204.45 211.03,221.044 213.421,230.025 215.812,230.01 218.203,220.636 220.593,202.714 222.981,178.214 225.368,150.094 227.752,121.953 230.132,97.5655 232.509,80.3485 234.881,72.84 237.249,76.2803 239.611,90.3686 241.966,113.247 244.315,141.73 246.657,171.75 248.991,198.959 251.316,219.387 253.633,230.049 255.94,229.407 258.236,217.597 260.522,196.392 262.797,168.92 265.06,139.16 267.31,111.337 269.548,89.2898 271.772,75.9337 273.982,72.8814 276.178,80.2813 278.358,96.8781 280.523,120.271" stroke="#0000ff" stroke-linecap="butt" stroke-linejoin="round" stroke-width="0.5"/>
   <polyline fill="none" points="81.6638,118.852 82.854,116.753 84.0765,114.588 85.3311,112.357 86.6174,110.065 87.9351,107.713 89.2839,105.309 90.6636,102.856 92.0736,100.364 93.5137,97.8421 94.9836,95.3026 96.4828,92.7602 98.011,90.2328 99.5678,87.7417 101.153,85.3118 102.766,82.9729 104.406,80.7586 106.074,78.7083 107.768,76.8665 109.488,75.2835 111.234,74.0153 113.006,73.1239 114.802,72.6767 116.623,72.7463 118.468,73.4093 120.337,74.7454 122.229,76.8349 124.143,79.7569 126.08,83.5858 128.038,88.3875 130.018,94.2144 132.019,101.1 134.039,109.053" stroke="#0000ff" stroke-linecap="butt" stroke-linejoin="round" stroke-width="0.5"/>
   <polyline fill="none" points="338.569,229.797 339.949,231.065 341.298,231.007 342.615,229.823 343.902,227.715 345.156,224.87 346.379,221.463 347.569,217.65 348.726,213.568 349.851,209.333 350.942,205.044 352,200.779 353.025,196.603 354.015,192.565 354.971,188.701 355.892,185.038 356.779,181.593 357.631,178.377 358.448,175.392 359.229,172.64 359.976,170.115 360.686,167.81 361.36,165.717 361.999,163.824 362.601,162.121 363.167,160.596 363.697,159.236 364.189,158.03 364.646,156.965 365.065,156.032 365.447,155.218 365.793,154.514 366.101,153.911" stroke="#0000ff" stroke-linecap="butt" stroke-linejoin="round" stroke-width="0.5"/>
  </g>
  <clipPath id="cp00405304">
   <polygon points="0,304 405,304 405,0 0,0"/>
  </clipPath>
  <g clip-path="url(#cp00405304)">
   <polygon fill="#ffffff" points="246.479,145.378 355.396,145.378 355.396,44.8293 246.479,44.8293" shape-rendering="crispEdges"/>
   <polyline fill="none" points="246.479,145.378 355.396,145.378" stroke="#262626" stroke-dasharray="16,0" stroke-linecap="square" stroke-linejoin="miter" stroke-width="0.5"/>
   <polyline fill="none" points="246.479,44.8293 355.396,44.8293" stroke="#262626" stroke-dasharray="16,0" stroke-linecap="square" stroke-linejoin="miter" stroke-width="0.5"/>
   <polyline fill="none" points="246.479,145.378 246.479,44.8293" stroke="#262626" stroke-dasharray="16,0" stroke-linecap="square" stroke-linejoin="miter" stroke-width="0.5"/>
   <polyline fill="none" points="355.396,145.378 355.396,44.8293" stroke="#262626" stroke-dasharray="16,0" stroke-linecap="square" stroke-linejoin="miter" stroke-width="0.5"/>
   <polyline fill="none" points="252.393,71.4451 281.967,71.4451" stroke="#ff0000" stroke-linecap="butt" stroke-linejoin="round" stroke-width="0.5"/>
   <defs>
    <path d="M3.486924-.557908C3.596513-.14944 3.945205 .109589 4.373599 .109589C4.722291 .109589 4.951432-.119552 5.110834-.438356C5.280199-.797011 5.409714-1.404732 5.409714-1.424658C5.409714-1.524284 5.32005-1.524284 5.290162-1.524284C5.190535-1.524284 5.180573-1.484433 5.150685-1.344956C5.011208-.787049 4.821918-.109589 4.403487-.109589C4.194271-.109589 4.094645-.239103 4.094645-.56787C4.094645-.787049 4.214197-1.255293 4.293898-1.603985L4.572852-2.67995C4.60274-2.82939 4.702366-3.20797 4.742217-3.35741C4.79203-3.58655 4.891656-3.965131 4.891656-4.024907C4.891656-4.204234 4.752179-4.293898 4.60274-4.293898C4.552927-4.293898 4.293898-4.283935 4.214197-3.945205C4.024907-3.217933 3.58655-1.474471 3.466999-.946451C3.457036-.9066 3.058531-.109589 2.331258-.109589C1.8132-.109589 1.713574-.557908 1.713574-.926526C1.713574-1.484433 1.992528-2.271482 2.251557-2.958904C2.371108-3.257783 2.420922-3.39726 2.420922-3.58655C2.420922-4.034869 2.102117-4.403487 1.603985-4.403487C.657534-4.403487 .288917-2.958904 .288917-2.86924C.288917-2.769614 .388543-2.769614 .408468-2.769614C.508095-2.769614 .518057-2.789539 .56787-2.948941C.816936-3.815691 1.195517-4.184309 1.574097-4.184309C1.663761-4.184309 1.823163-4.174346 1.823163-3.855542C1.823163-3.616438 1.713574-3.327522 1.653798-3.178082C1.285181-2.191781 1.075965-1.574097 1.075965-1.085928C1.075965-.139477 1.763387 .109589 2.30137 .109589C2.958904 .109589 3.317559-.33873 3.486924-.557908Z" id="2-g0-117"/>
    <path d="M5.732503-2.113076C5.732503-2.719801 5.432628-3.075467 4.686426-3.075467C4.135492-3.075467 3.758904-2.775592 3.57061-2.426899C3.431133-2.922042 3.054545-3.075467 2.545455-3.075467C1.973599-3.075467 1.603985-2.761644 1.408717-2.399004H1.401743V-3.075467L.376588-2.998755V-2.747696C.843836-2.747696 .899626-2.698879 .899626-2.357161V-.550934C.899626-.251059 .829888-.251059 .376588-.251059V0C.390535 0 .878705-.027895 1.171606-.027895C1.429639-.027895 1.910834-.006974 1.973599 0V-.251059C1.520299-.251059 1.45056-.251059 1.45056-.550934V-1.806227C1.45056-2.538481 2.02939-2.880199 2.489664-2.880199C2.977833-2.880199 3.040598-2.496638 3.040598-2.140971V-.550934C3.040598-.251059 2.970859-.251059 2.517559-.251059V0C2.531507 0 3.019676-.027895 3.312578-.027895C3.57061-.027895 4.051806-.006974 4.11457 0V-.251059C3.66127-.251059 3.591532-.251059 3.591532-.550934V-1.806227C3.591532-2.538481 4.170361-2.880199 4.630635-2.880199C5.118804-2.880199 5.181569-2.496638 5.181569-2.140971V-.550934C5.181569-.251059 5.111831-.251059 4.658531-.251059V0C4.672478 0 5.160648-.027895 5.453549-.027895C5.711582-.027895 6.192777-.006974 6.255542 0V-.251059C5.802242-.251059 5.732503-.251059 5.732503-.550934V-2.113076Z" id="2-g1-109"/>
    <path d="M3.591532-2.113076C3.591532-2.719801 3.291656-3.075467 2.545455-3.075467C1.973599-3.075467 1.603985-2.761644 1.408717-2.399004H1.401743V-3.075467L.376588-2.998755V-2.747696C.843836-2.747696 .899626-2.698879 .899626-2.357161V-.550934C.899626-.251059 .829888-.251059 .376588-.251059V0C.390535 0 .878705-.027895 1.171606-.027895C1.429639-.027895 1.910834-.006974 1.973599 0V-.251059C1.520299-.251059 1.45056-.251059 1.45056-.550934V-1.806227C1.45056-2.538481 2.02939-2.880199 2.489664-2.880199C2.977833-2.880199 3.040598-2.496638 3.040598-2.140971V-.550934C3.040598-.251059 2.970859-.251059 2.517559-.251059V0C2.531507 0 3.019676-.027895 3.312578-.027895C3.57061-.027895 4.051806-.006974 4.11457 0V-.251059C3.66127-.251059 3.591532-.251059 3.591532-.550934V-2.113076Z" id="2-g1-110"/>
    <path d="M2.517559-2.998755V-2.747696C2.984807-2.747696 3.040598-2.698879 3.040598-2.357161V-1.164633C3.040598-.550934 2.643088-.125529 2.113076-.125529C1.478456-.125529 1.45056-.425405 1.45056-.781071V-3.075467L.376588-2.998755V-2.747696C.899626-2.747696 .899626-2.726775 .899626-2.106102V-1.060025C.899626-.578829 .899626 .069738 2.064259 .069738C2.217684 .069738 2.726775 .069738 3.061519-.516065H3.068493V.069738L4.11457 0V-.251059C3.647323-.251059 3.591532-.299875 3.591532-.641594V-3.075467L2.517559-2.998755Z" id="2-g1-117"/>
   </defs>
   <g fill="rgb(0,0,0)" transform="translate(503.881235,278.945131) matrix(3 0 0 3 0 0)">
    <use x="-72.000004" xlink:href="#2-g0-117" y="-67.710548"/>
    <use x="-66.296809" xlink:href="#2-g1-110" y="-66.216167"/>
    <use x="-62.111101" xlink:href="#2-g1-117" y="-66.216167"/>
    <use x="-57.710912" xlink:href="#2-g1-109" y="-66.216167"/>
   </g>
   <polyline fill="none" points="252.393,118.762 281.967,118.762" stroke="#0000ff" stroke-linecap="butt" stroke-linejoin="round" stroke-width="0.5"/>
   <defs>
    <path d="M3.486924-.557908C3.596513-.14944 3.945205 .109589 4.373599 .109589C4.722291 .109589 4.951432-.119552 5.110834-.438356C5.280199-.797011 5.409714-1.404732 5.409714-1.424658C5.409714-1.524284 5.32005-1.524284 5.290162-1.524284C5.190535-1.524284 5.180573-1.484433 5.150685-1.344956C5.011208-.787049 4.821918-.109589 4.403487-.109589C4.194271-.109589 4.094645-.239103 4.094645-.56787C4.094645-.787049 4.214197-1.255293 4.293898-1.603985L4.572852-2.67995C4.60274-2.82939 4.702366-3.20797 4.742217-3.35741C4.79203-3.58655 4.891656-3.965131 4.891656-4.024907C4.891656-4.204234 4.752179-4.293898 4.60274-4.293898C4.552927-4.293898 4.293898-4.283935 4.214197-3.945205C4.024907-3.217933 3.58655-1.474471 3.466999-.946451C3.457036-.9066 3.058531-.109589 2.331258-.109589C1.8132-.109589 1.713574-.557908 1.713574-.926526C1.713574-1.484433 1.992528-2.271482 2.251557-2.958904C2.371108-3.257783 2.420922-3.39726 2.420922-3.58655C2.420922-4.034869 2.102117-4.403487 1.603985-4.403487C.657534-4.403487 .288917-2.958904 .288917-2.86924C.288917-2.769614 .388543-2.769614 .408468-2.769614C.508095-2.769614 .518057-2.789539 .56787-2.948941C.816936-3.815691 1.195517-4.184309 1.574097-4.184309C1.663761-4.184309 1.823163-4.174346 1.823163-3.855542C1.823163-3.616438 1.713574-3.327522 1.653798-3.178082C1.285181-2.191781 1.075965-1.574097 1.075965-1.085928C1.075965-.139477 1.763387 .109589 2.30137 .109589C2.958904 .109589 3.317559-.33873 3.486924-.557908Z" id="3-g0-117"/>
    <path d="M3.110336-1.868991C3.110336-2.238605 3.110336-2.503611 2.789539-2.761644C2.503611-2.998755 2.168867-3.110336 1.75741-3.110336C1.094894-3.110336 .627646-2.859278 .627646-2.433873C.627646-2.21071 .781071-2.092154 .962391-2.092154C1.150685-2.092154 1.290162-2.231631 1.290162-2.419925C1.290162-2.538481 1.234371-2.684932 1.046077-2.740722C1.297136-2.915068 1.701619-2.915068 1.743462-2.915068C2.133998-2.915068 2.559402-2.657036 2.559402-2.071233V-1.855044C2.175841-1.841096 1.715567-1.820174 1.206476-1.63188C.578829-1.401743 .383562-1.018182 .383562-.704359C.383562-.104608 1.108842 .069738 1.603985 .069738C2.161893 .069738 2.489664-.244085 2.636115-.516065C2.66401-.230137 2.852304 .034869 3.173101 .034869C3.187049 .034869 3.863512 .034869 3.863512-.627646V-1.011208H3.626401V-.63462C3.626401-.564882 3.626401-.230137 3.368369-.230137S3.110336-.557908 3.110336-.648568V-1.868991ZM2.559402-.983313C2.559402-.313823 1.973599-.125529 1.659776-.125529C1.30411-.125529 .969365-.36264 .969365-.704359C.969365-1.08792 1.30411-1.624907 2.559402-1.673724V-.983313Z" id="3-g1-97"/>
    <path d="M3.591532-2.113076C3.591532-2.719801 3.291656-3.075467 2.545455-3.075467C1.973599-3.075467 1.603985-2.761644 1.408717-2.399004H1.401743V-3.075467L.376588-2.998755V-2.747696C.843836-2.747696 .899626-2.698879 .899626-2.357161V-.550934C.899626-.251059 .829888-.251059 .376588-.251059V0C.390535 0 .878705-.027895 1.171606-.027895C1.429639-.027895 1.910834-.006974 1.973599 0V-.251059C1.520299-.251059 1.45056-.251059 1.45056-.550934V-1.806227C1.45056-2.538481 2.02939-2.880199 2.489664-2.880199C2.977833-2.880199 3.040598-2.496638 3.040598-2.140971V-.550934C3.040598-.251059 2.970859-.251059 2.517559-.251059V0C2.531507 0 3.019676-.027895 3.312578-.027895C3.57061-.027895 4.051806-.006974 4.11457 0V-.251059C3.66127-.251059 3.591532-.251059 3.591532-.550934V-2.113076Z" id="3-g1-110"/>
   </defs>
   <g fill="rgb(0,0,0)" transform="translate(503.881235,326.262157) matrix(3 0 0 3 0 0)">
    <use x="-72.000004" xlink:href="#3-g0-117" y="-67.710548"/>
    <use x="-66.296809" xlink:href="#3-g1-97" y="-66.216167"/>
    <use x="-62.325568" xlink:href="#3-g1-110" y="-66.216167"/>
    <use x="-57.925379" xlink:href="#3-g1-97" y="-66.216167"/>
   </g>
  </g>
 </g>
</svg>
