<?xml version='1.0' encoding='UTF-8' standalone='no'?>
<svg height="304pt" viewBox="0 0 405 304" width="405pt" xmlns="http://www.w3.org/2000/svg" xmlns:xlink="http://www.w3.org/1999/xlink">
 <title>Figure 2</title>
 <desc>
Creator: GL2PS 1.4.2, (C) 1999-2020 C. Geuzaine
For: Octave
CreationDate: Mon Sep  8 16:36:43 2025
</desc>
 <defs/>
 <polygon fill="#ffffff" points="0,0 405,0 405,304 0,304"/>
 <g>
  <polygon fill="#ffffff" points="0,304 405,304 405,0 0,0" shape-rendering="crispEdges"/>
  <clipPath id="cp00405304">
   <polygon points="0,304 405,304 405,0 0,0"/>
  </clipPath>
  <g clip-path="url(#cp00405304)">
   <polygon fill="#ffffff" points="68.0076,270.829 367.225,270.829 367.225,34 68.0076,34" shape-rendering="crispEdges"/>
   <polyline fill="none" points="68.0076,270.829 68.0076,267.839" stroke="#262626" stroke-linecap="butt" stroke-linejoin="miter" stroke-width="0.5"/>
   <polyline fill="none" points="127.851,270.829 127.851,267.839" stroke="#262626" stroke-linecap="butt" stroke-linejoin="miter" stroke-width="0.5"/>
   <polyline fill="none" points="187.695,270.829 187.695,267.839" stroke="#262626" stroke-linecap="butt" stroke-linejoin="miter" stroke-width="0.5"/>
   <polyline fill="none" points="247.538,270.829 247.538,267.839" stroke="#262626" stroke-linecap="butt" stroke-linejoin="miter" stroke-width="0.5"/>
   <polyline fill="none" points="307.382,270.829 307.382,267.839" stroke="#262626" stroke-linecap="butt" stroke-linejoin="miter" stroke-width="0.5"/>
   <polyline fill="none" points="367.225,270.829 367.225,267.839" stroke="#262626" stroke-linecap="butt" stroke-linejoin="miter" stroke-width="0.5"/>
   <g font-family="FreeSans" font-size="10" font-style="normal" font-weight="normal" transform="translate(65.0076,286.324) rotate(-0,3,-8)" xml:space="preserve">
    <text fill="rgb(38,38,38)" x="0 " y="-0">0</text>
   </g>
   <g font-family="FreeSans" font-size="10" font-style="normal" font-weight="normal" transform="translate(120.351,286.324) rotate(-0,7.5,-8)" xml:space="preserve">
    <text fill="rgb(38,38,38)" x="0 6 9 " y="-0">0.2</text>
   </g>
   <g font-family="FreeSans" font-size="10" font-style="normal" font-weight="normal" transform="translate(180.195,286.324) rotate(-0,7.5,-8)" xml:space="preserve">
    <text fill="rgb(38,38,38)" x="0 6 9 " y="-0">0.4</text>
   </g>
   <g font-family="FreeSans" font-size="10" font-style="normal" font-weight="normal" transform="translate(240.038,286.324) rotate(-0,7.5,-8)" xml:space="preserve">
    <text fill="rgb(38,38,38)" x="0 6 9 " y="-0">0.6</text>
   </g>
   <g font-family="FreeSans" font-size="10" font-style="normal" font-weight="normal" transform="translate(299.882,286.324) rotate(-0,7.5,-8)" xml:space="preserve">
    <text fill="rgb(38,38,38)" x="0 6 9 " y="-0">0.8</text>
   </g>
   <g font-family="FreeSans" font-size="10" font-style="normal" font-weight="normal" transform="translate(364.225,286.324) rotate(-0,3,-8)" xml:space="preserve">
    <text fill="rgb(38,38,38)" x="0 " y="-0">1</text>
   </g>
   <polyline fill="none" points="68.0076,270.829 71.0019,270.829" stroke="#262626" stroke-linecap="butt" stroke-linejoin="miter" stroke-width="0.5"/>
   <polyline fill="none" points="68.0076,231.358 71.0019,231.358" stroke="#262626" stroke-linecap="butt" stroke-linejoin="miter" stroke-width="0.5"/>
   <polyline fill="none" points="68.0076,191.886 71.0019,191.886" stroke="#262626" stroke-linecap="butt" stroke-linejoin="miter" stroke-width="0.5"/>
   <polyline fill="none" points="68.0076,152.415 71.0019,152.415" stroke="#262626" stroke-linecap="butt" stroke-linejoin="miter" stroke-width="0.5"/>
   <polyline fill="none" points="68.0076,112.943 71.0019,112.943" stroke="#262626" stroke-linecap="butt" stroke-linejoin="miter" stroke-width="0.5"/>
   <polyline fill="none" points="68.0076,73.4716 71.0019,73.4716" stroke="#262626" stroke-linecap="butt" stroke-linejoin="miter" stroke-width="0.5"/>
   <polyline fill="none" points="68.0076,34 71.0019,34" stroke="#262626" stroke-linecap="butt" stroke-linejoin="miter" stroke-width="0.5"/>
   <g font-family="FreeSans" font-size="10" font-style="normal" font-weight="normal" transform="translate(36.0039,274.829) rotate(-0,27,-4)" xml:space="preserve">
    <text fill="rgb(38,38,38)" x="0 3 9 15 21 " y="-0">-6000</text>
   </g>
   <g font-family="FreeSans" font-size="10" font-style="normal" font-weight="normal" transform="translate(36.0039,235.358) rotate(-0,27,-4)" xml:space="preserve">
    <text fill="rgb(38,38,38)" x="0 3 9 15 21 " y="-0">-4000</text>
   </g>
   <g font-family="FreeSans" font-size="10" font-style="normal" font-weight="normal" transform="translate(36.0039,195.886) rotate(-0,27,-4)" xml:space="preserve">
    <text fill="rgb(38,38,38)" x="0 3 9 15 21 " y="-0">-2000</text>
   </g>
   <g font-family="FreeSans" font-size="10" font-style="normal" font-weight="normal" transform="translate(57.0039,156.415) rotate(-0,6,-4)" xml:space="preserve">
    <text fill="rgb(38,38,38)" x="0 " y="-0">0</text>
   </g>
   <g font-family="FreeSans" font-size="10" font-style="normal" font-weight="normal" transform="translate(39.0039,116.943) rotate(-0,24,-4)" xml:space="preserve">
    <text fill="rgb(38,38,38)" x="0 6 12 18 " y="-0">2000</text>
   </g>
   <g font-family="FreeSans" font-size="10" font-style="normal" font-weight="normal" transform="translate(39.0039,77.4716) rotate(-0,24,-4)" xml:space="preserve">
    <text fill="rgb(38,38,38)" x="0 6 12 18 " y="-0">4000</text>
   </g>
   <g font-family="FreeSans" font-size="10" font-style="normal" font-weight="normal" transform="translate(39.0039,38) rotate(-0,24,-4)" xml:space="preserve">
    <text fill="rgb(38,38,38)" x="0 6 12 18 " y="-0">6000</text>
   </g>
   <polyline fill="none" points="68.0076,270.829 367.225,270.829" stroke="#262626" stroke-dasharray="16,0" stroke-linecap="square" stroke-linejoin="miter" stroke-width="0.5"/>
   <polyline fill="none" points="68.0076,270.829 68.0076,34" stroke="#262626" stroke-dasharray="16,0" stroke-linecap="square" stroke-linejoin="miter" stroke-width="0.5"/>
   <defs>
    <path d="M2.859278-2.34122C3.158157-2.719801 3.536737-3.20797 3.775841-3.466999C4.084682-3.825654 4.493151-3.975093 4.961395-3.985056V-4.293898C4.702366-4.273973 4.403487-4.26401 4.144458-4.26401C3.845579-4.26401 3.317559-4.283935 3.188045-4.293898V-3.985056C3.39726-3.965131 3.476961-3.835616 3.476961-3.676214S3.377335-3.387298 3.327522-3.327522L2.709838-2.550436L1.932752-3.556663C1.843088-3.656289 1.843088-3.676214 1.843088-3.73599C1.843088-3.88543 1.992528-3.975093 2.191781-3.985056V-4.293898C1.932752-4.283935 1.275218-4.26401 1.115816-4.26401C.9066-4.26401 .438356-4.273973 .169365-4.293898V-3.985056C.86675-3.985056 .876712-3.975093 1.344956-3.377335L2.331258-2.092154L1.39477-.9066C.916563-.328767 .328767-.308842 .119552-.308842V0C.37858-.019925 .687422-.029888 .946451-.029888C1.235367-.029888 1.653798-.009963 1.892902 0V-.308842C1.673724-.33873 1.603985-.468244 1.603985-.617684C1.603985-.836862 1.892902-1.165629 2.500623-1.882939L3.257783-.886675C3.337484-.777086 3.466999-.617684 3.466999-.557908C3.466999-.468244 3.377335-.318804 3.108344-.308842V0C3.407223-.009963 3.965131-.029888 4.184309-.029888C4.4533-.029888 4.841843-.019925 5.140722 0V-.308842C4.60274-.308842 4.423412-.328767 4.194271-.617684L2.859278-2.34122Z" id="0-g0-120"/>
   </defs>
   <g fill="rgb(38,38,38)" transform="translate(425.616345,507.323965) matrix(3 0 0 3 0 0)">
    <use x="-72.000004" xlink:href="#0-g0-120" y="-67.710548"/>
   </g>
   <defs>
    <path d="M3.486924-.557908C3.596513-.14944 3.945205 .109589 4.373599 .109589C4.722291 .109589 4.951432-.119552 5.110834-.438356C5.280199-.797011 5.409714-1.404732 5.409714-1.424658C5.409714-1.524284 5.32005-1.524284 5.290162-1.524284C5.190535-1.524284 5.180573-1.484433 5.150685-1.344956C5.011208-.787049 4.821918-.109589 4.403487-.109589C4.194271-.109589 4.094645-.239103 4.094645-.56787C4.094645-.787049 4.214197-1.255293 4.293898-1.603985L4.572852-2.67995C4.60274-2.82939 4.702366-3.20797 4.742217-3.35741C4.79203-3.58655 4.891656-3.965131 4.891656-4.024907C4.891656-4.204234 4.752179-4.293898 4.60274-4.293898C4.552927-4.293898 4.293898-4.283935 4.214197-3.945205C4.024907-3.217933 3.58655-1.474471 3.466999-.946451C3.457036-.9066 3.058531-.109589 2.331258-.109589C1.8132-.109589 1.713574-.557908 1.713574-.926526C1.713574-1.484433 1.992528-2.271482 2.251557-2.958904C2.371108-3.257783 2.420922-3.39726 2.420922-3.58655C2.420922-4.034869 2.102117-4.403487 1.603985-4.403487C.657534-4.403487 .288917-2.958904 .288917-2.86924C.288917-2.769614 .388543-2.769614 .408468-2.769614C.508095-2.769614 .518057-2.789539 .56787-2.948941C.816936-3.815691 1.195517-4.184309 1.574097-4.184309C1.663761-4.184309 1.823163-4.174346 1.823163-3.855542C1.823163-3.616438 1.713574-3.327522 1.653798-3.178082C1.285181-2.191781 1.075965-1.574097 1.075965-1.085928C1.075965-.139477 1.763387 .109589 2.30137 .109589C2.958904 .109589 3.317559-.33873 3.486924-.557908Z" id="1-g1-117"/>
    <path d="M3.327522-3.008717C3.387298-3.267746 3.616438-4.184309 4.313823-4.184309C4.363636-4.184309 4.60274-4.184309 4.811955-4.054795C4.533001-4.004981 4.333748-3.755915 4.333748-3.516812C4.333748-3.35741 4.443337-3.16812 4.712329-3.16812C4.931507-3.16812 5.250311-3.347447 5.250311-3.745953C5.250311-4.26401 4.662516-4.403487 4.323786-4.403487C3.745953-4.403487 3.39726-3.875467 3.277709-3.646326C3.028643-4.303861 2.49066-4.403487 2.201743-4.403487C1.165629-4.403487 .597758-3.118306 .597758-2.86924C.597758-2.769614 .697385-2.769614 .71731-2.769614C.797011-2.769614 .826899-2.789539 .846824-2.879203C1.185554-3.935243 1.843088-4.184309 2.181818-4.184309C2.371108-4.184309 2.719801-4.094645 2.719801-3.516812C2.719801-3.20797 2.550436-2.540473 2.181818-1.145704C2.022416-.52802 1.673724-.109589 1.235367-.109589C1.175592-.109589 .946451-.109589 .737235-.239103C.986301-.288917 1.205479-.498132 1.205479-.777086C1.205479-1.046077 .986301-1.125778 .836862-1.125778C.537983-1.125778 .288917-.86675 .288917-.547945C.288917-.089664 .787049 .109589 1.225405 .109589C1.882939 .109589 2.241594-.587796 2.271482-.647572C2.391034-.278954 2.749689 .109589 3.347447 .109589C4.373599 .109589 4.941469-1.175592 4.941469-1.424658C4.941469-1.524284 4.851806-1.524284 4.821918-1.524284C4.732254-1.524284 4.712329-1.484433 4.692403-1.414695C4.363636-.348692 3.686177-.109589 3.367372-.109589C2.978829-.109589 2.819427-.428394 2.819427-.767123C2.819427-.986301 2.879203-1.205479 2.988792-1.643836L3.327522-3.008717Z" id="1-g1-120"/>
    <path d="M2.022416-3.291656C2.078207-3.410212 2.085181-3.466002 2.085181-3.514819C2.085181-3.731009 1.889913-3.898381 1.673724-3.898381C1.408717-3.898381 1.325031-3.682192 1.290162-3.57061L.369614-.550934C.36264-.536986 .334745-.446326 .334745-.439352C.334745-.355666 .550934-.285928 .606725-.285928C.655542-.285928 .662516-.299875 .711333-.404483L2.022416-3.291656Z" id="1-g0-48"/>
    <path d="M3.297634 2.391034C3.297634 2.361146 3.297634 2.34122 3.128269 2.171856C1.882939 .916563 1.564134-.966376 1.564134-2.49066C1.564134-4.224159 1.942715-5.957659 3.16812-7.202989C3.297634-7.32254 3.297634-7.342466 3.297634-7.372354C3.297634-7.442092 3.257783-7.47198 3.198007-7.47198C3.098381-7.47198 2.201743-6.794521 1.613948-5.529265C1.105853-4.433375 .986301-3.327522 .986301-2.49066C.986301-1.713574 1.09589-.508095 1.643836 .617684C2.241594 1.843088 3.098381 2.49066 3.198007 2.49066C3.257783 2.49066 3.297634 2.460772 3.297634 2.391034Z" id="1-g2-40"/>
    <path d="M2.879203-2.49066C2.879203-3.267746 2.769614-4.473225 2.221669-5.599004C1.62391-6.824408 .767123-7.47198 .667497-7.47198C.607721-7.47198 .56787-7.43213 .56787-7.372354C.56787-7.342466 .56787-7.32254 .757161-7.143213C1.733499-6.156912 2.30137-4.572852 2.30137-2.49066C2.30137-.787049 1.932752 .966376 .697385 2.221669C.56787 2.34122 .56787 2.361146 .56787 2.391034C.56787 2.450809 .607721 2.49066 .667497 2.49066C.767123 2.49066 1.663761 1.8132 2.251557 .547945C2.759651-.547945 2.879203-1.653798 2.879203-2.49066Z" id="1-g2-41"/>
   </defs>
   <g fill="rgb(38,38,38)" transform="rotate(-90.000000,31.003918,152.414659) translate(215.003931,337.414672) matrix(3 0 0 3 0 0)">
    <use x="-72.000004" xlink:href="#1-g1-117" y="-64.510268"/>
    <use x="-66.296809" xlink:href="#1-g0-48" y="-68.125632"/>
    <use x="-63.501733" xlink:href="#1-g2-40" y="-64.510268"/>
    <use x="-59.627359" xlink:href="#1-g1-120" y="-64.510268"/>
    <use x="-53.933427" xlink:href="#1-g2-41" y="-64.510268"/>
   </g>
   <g font-family="FreeSans" font-size="30" font-style="normal" font-weight="bold" transform="translate(153.616,24) rotate(-0,64,0)" xml:space="preserve">
    <text fill="rgb(0,0,0)" x="0 22 39 51 59 75 92 111 " y="-1">Derivada</text>
   </g>
   <polyline fill="none" points="68.0183,140.026 68.0643,140.025 68.1469,140.025 68.2662,140.024 68.4222,140.022 68.6148,140.02 68.844,140.018 69.1097,140.014 69.4119,140.01 69.7505,140.004 70.1253,139.997 70.5364,139.988 70.9836,139.977 71.4668,139.964 71.9859,139.948 72.5407,139.93 73.1311,139.908 73.757,139.884 74.4183,139.856 75.1146,139.824 75.846,139.788 76.6122,139.748 77.413,139.704 78.2482,139.656 79.1176,139.603 80.021,139.545 80.9582,139.483 81.929,139.417 82.9331,139.346 83.9702,139.271 85.0402,139.195 86.1427,139.118 87.2774,139.044" stroke="#00ff00" stroke-linecap="butt" stroke-linejoin="round" stroke-width="0.5"/>
   <polyline fill="none" points="138.623,184.334 140.624,187.727 142.643,190.731 144.681,193.211 146.736,194.999 148.809,195.911 150.899,195.755 153.006,194.331 155.128,191.433 157.265,186.848 159.418,180.395 161.584,172.224 163.765,162.659 165.958,152.041 168.164,140.724 170.383,129.078 172.613,117.482 174.854,106.404 177.105,96.6712 179.367,89.2381 181.638,85.0813 183.917,85.1972 186.205,90.601 188.501,102.3 190.804,120.061 193.113,141.776 195.429,165.146 197.75,187.835 200.075,207.473 202.405,221.665 204.739,228.377 207.076,227.693 209.416,220.438" stroke="#00ff00" stroke-linecap="butt" stroke-linejoin="round" stroke-width="0.5"/>
   <polyline fill="none" points="282.227,222.156 284.333,224.837 286.423,221.618 288.496,213.035 290.552,199.611 292.59,181.852 294.609,160.594 296.609,137.712 298.59,115.187 300.551,94.8878 302.492,78.5675 304.412,67.8644 306.311,64.2999 308.188,69.2272 310.042,82.2867 311.874,101.241 313.683,123.882 315.468,148.154 317.229,172.147 318.966,194.1 320.678,212.402 322.364,225.585 324.025,232.737 325.66,234.583 327.268,232.164 328.849,226.444 330.403,218.312 331.929,208.582 333.428,197.993 334.897,187.216 336.338,176.847 337.75,167.415 339.132,159.185" stroke="#00ff00" stroke-linecap="butt" stroke-linejoin="round" stroke-width="0.5"/>
   <polyline fill="none" points="366.123,138.057 366.389,138.68 366.618,139.223 366.81,139.686 366.966,140.063 367.086,140.354 367.168,140.557 367.214,140.67" stroke="#00ff00" stroke-linecap="butt" stroke-linejoin="round" stroke-width="0.5"/>
   <polyline fill="none" points="87.2774,139.044 88.4442,138.976 89.6427,138.917 90.8726,138.872 92.1336,138.845 93.4254,138.842 94.7478,138.868 96.1002,138.929 97.4826,139.032 98.8944,139.184 100.335,139.396 101.805,139.678 103.303,140.044 104.829,140.505 106.383,141.076 107.965,141.772 109.573,142.61 111.208,143.607 112.868,144.781 114.555,146.15 116.267,147.726 118.003,149.523 119.765,151.551 121.55,153.824 123.359,156.353 125.19,159.151 127.045,162.232 128.922,165.605 130.821,169.23 132.74,173.015 134.681,176.865 136.642,180.674 138.623,184.334" stroke="#00ff00" stroke-linecap="butt" stroke-linejoin="round" stroke-width="0.5"/>
   <polyline fill="none" points="209.416,220.438 211.757,207.447 214.1,189.568 216.444,167.654 218.788,142.613 221.132,116.411 223.475,92.0731 225.817,72.6581 228.156,61.2113 230.493,60.7536 232.827,74.2732 235.157,102.626 237.483,140.568 239.804,181.81 242.119,220.134 244.429,249.416 246.732,263.634 249.027,257.458 251.315,232.74 253.595,196.063 255.866,153.972 258.127,112.869 260.379,78.9974 262.62,58.4274 264.85,55.0875 267.068,66.1569 269.275,87.4895 271.468,115.058 273.649,144.964 275.815,173.442 277.967,196.879 280.105,213.025 282.227,222.156" stroke="#00ff00" stroke-linecap="butt" stroke-linejoin="round" stroke-width="0.5"/>
   <polyline fill="none" points="339.132,159.185 340.485,152.077 341.807,145.987 343.099,140.818 344.36,136.479 345.59,132.883 346.789,129.951 347.955,127.61 349.09,125.79 350.193,124.428 351.262,123.466 352.3,122.851 353.304,122.534 354.274,122.479 355.212,122.65 356.115,123.015 356.985,123.546 357.82,124.216 358.621,124.998 359.387,125.871 360.118,126.813 360.814,127.806 361.476,128.831 362.102,129.872 362.692,130.917 363.247,131.95 363.766,132.962 364.249,133.941 364.696,134.878 365.107,135.765 365.482,136.595 365.821,137.361 366.123,138.057" stroke="#00ff00" stroke-linecap="butt" stroke-linejoin="round" stroke-width="0.5"/>
   <polyline fill="none" points="138.623,184.153 140.624,187.632 142.643,190.743 144.681,193.319 146.736,195.172 148.809,196.105 150.899,195.913 153.006,194.406 155.128,191.411 157.265,186.797 159.418,180.496 161.584,172.518 163.765,162.982 165.958,152.126 168.164,140.327 170.383,128.106 172.613,116.119 174.854,105.143 177.105,96.0289 179.367,89.6507 181.638,86.8268 183.917,88.2302 186.205,94.2902 188.501,105.096 190.804,120.312 193.113,139.132 195.429,160.263 197.75,181.983 200.075,202.253 202.405,218.9 204.739,229.856 207.076,233.431 209.416,228.583" stroke="#ffff00" stroke-linecap="butt" stroke-linejoin="round" stroke-width="0.5"/>
   <polyline fill="none" points="282.227,243.246 284.333,250.836 286.423,246.369 288.496,230.975 290.552,207.034 292.59,177.758 294.609,146.701 296.609,117.294 298.59,92.4524 300.551,74.3109 302.492,64.0846 304.412,62.0655 306.311,67.7231 308.188,79.8831 310.042,96.9425 311.874,117.094 313.683,138.527 315.468,159.593 317.229,178.919 318.966,195.475 320.678,208.59 322.364,217.941 324.025,223.504 325.66,225.498 327.268,224.32 328.849,220.479 330.403,214.535 331.929,207.059 333.428,198.587 334.897,189.604 336.338,180.519 337.75,171.665 339.132,163.297" stroke="#ffff00" stroke-linecap="butt" stroke-linejoin="round" stroke-width="0.5"/>
   <polyline fill="none" points="366.123,137.843 366.389,138.362 366.618,138.812 366.81,139.192 366.966,139.501 367.086,139.737 367.168,139.902 367.214,139.993" stroke="#ffff00" stroke-linecap="butt" stroke-linejoin="round" stroke-width="0.5"/>
   <polyline fill="none" points="68.0183,140.014 68.0643,140.014 68.1469,140.014 68.2662,140.014 68.4222,140.014 68.6148,140.013 68.844,140.012 69.1097,140.01 69.4119,140.007 69.7505,140.003 70.1253,139.997 70.5364,139.99 70.9836,139.98 71.4668,139.969 71.9859,139.954 72.5407,139.937 73.1311,139.916 73.757,139.892 74.4183,139.863 75.1146,139.83 75.846,139.793 76.6122,139.751 77.413,139.705 78.2482,139.653 79.1176,139.597 80.021,139.536 80.9582,139.471 81.929,139.403 82.9331,139.332 83.9702,139.259 85.0402,139.186 86.1427,139.114 87.2774,139.045" stroke="#ffff00" stroke-linecap="butt" stroke-linejoin="round" stroke-width="0.5"/>
   <polyline fill="none" points="209.416,228.583 211.757,215.156 214.1,194.03 216.444,167.145 218.788,137.385 221.132,108.288 223.475,83.6286 225.817,66.9031 228.156,60.7899 230.493,66.6755 232.827,84.3312 235.157,111.813 237.483,145.628 239.804,181.166 242.119,213.344 244.429,237.372 246.732,249.519 249.027,247.738 251.315,232.048 253.595,204.578 255.866,169.279 258.127,131.318 260.379,96.2768 262.62,69.2838 264.85,54.2201 267.068,53.1453 269.275,66.0268 271.468,90.8078 273.649,123.79 275.815,160.25 277.967,195.179 280.105,224.013 282.227,243.246" stroke="#ffff00" stroke-linecap="butt" stroke-linejoin="round" stroke-width="0.5"/>
   <polyline fill="none" points="339.132,163.297 340.485,155.597 341.807,148.684 343.099,142.619 344.36,137.419 345.59,133.069 346.789,129.525 347.955,126.728 349.09,124.607 350.193,123.087 351.262,122.091 352.3,121.545 353.304,121.377 354.274,121.524 355.212,121.927 356.115,122.533 356.985,123.297 357.82,124.18 358.621,125.148 359.387,126.173 360.118,127.231 360.814,128.302 361.476,129.37 362.102,130.421 362.692,131.444 363.247,132.43 363.766,133.373 364.249,134.266 364.696,135.104 365.107,135.883 365.482,136.601 365.821,137.255 366.123,137.843" stroke="#ffff00" stroke-linecap="butt" stroke-linejoin="round" stroke-width="0.5"/>
   <polyline fill="none" points="87.2774,139.045 88.4442,138.982 89.6427,138.928 90.8726,138.886 92.1336,138.861 93.4254,138.858 94.7478,138.882 96.1002,138.939 97.4826,139.038 98.8944,139.187 100.335,139.396 101.805,139.675 103.303,140.036 104.829,140.493 106.383,141.06 107.965,141.752 109.573,142.587 111.208,143.582 112.868,144.754 114.555,146.122 116.267,147.703 118.003,149.514 119.765,151.569 121.55,153.879 123.359,156.45 125.19,159.282 127.045,162.367 128.922,165.687 130.821,169.211 132.74,172.893 134.681,176.669 136.642,180.457 138.623,184.153" stroke="#ffff00" stroke-linecap="butt" stroke-linejoin="round" stroke-width="0.5"/>
  </g>
  <clipPath id="cp00405304">
   <polygon points="0,304 405,304 405,0 0,0"/>
  </clipPath>
  <g clip-path="url(#cp00405304)">
   <polygon fill="#ffffff" points="246.479,146.378 355.396,146.378 355.396,45.8293 246.479,45.8293" shape-rendering="crispEdges"/>
   <polyline fill="none" points="246.479,146.378 355.396,146.378" stroke="#262626" stroke-dasharray="16,0" stroke-linecap="square" stroke-linejoin="miter" stroke-width="0.5"/>
   <polyline fill="none" points="246.479,45.8293 355.396,45.8293" stroke="#262626" stroke-dasharray="16,0" stroke-linecap="square" stroke-linejoin="miter" stroke-width="0.5"/>
   <polyline fill="none" points="246.479,146.378 246.479,45.8293" stroke="#262626" stroke-dasharray="16,0" stroke-linecap="square" stroke-linejoin="miter" stroke-width="0.5"/>
   <polyline fill="none" points="355.396,146.378 355.396,45.8293" stroke="#262626" stroke-dasharray="16,0" stroke-linecap="square" stroke-linejoin="miter" stroke-width="0.5"/>
   <polyline fill="none" points="252.393,72.4451 281.967,72.4451" stroke="#00ff00" stroke-linecap="butt" stroke-linejoin="round" stroke-width="0.5"/>
   <defs>
    <path d="M3.486924-.557908C3.596513-.14944 3.945205 .109589 4.373599 .109589C4.722291 .109589 4.951432-.119552 5.110834-.438356C5.280199-.797011 5.409714-1.404732 5.409714-1.424658C5.409714-1.524284 5.32005-1.524284 5.290162-1.524284C5.190535-1.524284 5.180573-1.484433 5.150685-1.344956C5.011208-.787049 4.821918-.109589 4.403487-.109589C4.194271-.109589 4.094645-.239103 4.094645-.56787C4.094645-.787049 4.214197-1.255293 4.293898-1.603985L4.572852-2.67995C4.60274-2.82939 4.702366-3.20797 4.742217-3.35741C4.79203-3.58655 4.891656-3.965131 4.891656-4.024907C4.891656-4.204234 4.752179-4.293898 4.60274-4.293898C4.552927-4.293898 4.293898-4.283935 4.214197-3.945205C4.024907-3.217933 3.58655-1.474471 3.466999-.946451C3.457036-.9066 3.058531-.109589 2.331258-.109589C1.8132-.109589 1.713574-.557908 1.713574-.926526C1.713574-1.484433 1.992528-2.271482 2.251557-2.958904C2.371108-3.257783 2.420922-3.39726 2.420922-3.58655C2.420922-4.034869 2.102117-4.403487 1.603985-4.403487C.657534-4.403487 .288917-2.958904 .288917-2.86924C.288917-2.769614 .388543-2.769614 .408468-2.769614C.508095-2.769614 .518057-2.789539 .56787-2.948941C.816936-3.815691 1.195517-4.184309 1.574097-4.184309C1.663761-4.184309 1.823163-4.174346 1.823163-3.855542C1.823163-3.616438 1.713574-3.327522 1.653798-3.178082C1.285181-2.191781 1.075965-1.574097 1.075965-1.085928C1.075965-.139477 1.763387 .109589 2.30137 .109589C2.958904 .109589 3.317559-.33873 3.486924-.557908Z" id="2-g1-117"/>
    <path d="M5.732503-2.113076C5.732503-2.719801 5.432628-3.075467 4.686426-3.075467C4.135492-3.075467 3.758904-2.775592 3.57061-2.426899C3.431133-2.922042 3.054545-3.075467 2.545455-3.075467C1.973599-3.075467 1.603985-2.761644 1.408717-2.399004H1.401743V-3.075467L.376588-2.998755V-2.747696C.843836-2.747696 .899626-2.698879 .899626-2.357161V-.550934C.899626-.251059 .829888-.251059 .376588-.251059V0C.390535 0 .878705-.027895 1.171606-.027895C1.429639-.027895 1.910834-.006974 1.973599 0V-.251059C1.520299-.251059 1.45056-.251059 1.45056-.550934V-1.806227C1.45056-2.538481 2.02939-2.880199 2.489664-2.880199C2.977833-2.880199 3.040598-2.496638 3.040598-2.140971V-.550934C3.040598-.251059 2.970859-.251059 2.517559-.251059V0C2.531507 0 3.019676-.027895 3.312578-.027895C3.57061-.027895 4.051806-.006974 4.11457 0V-.251059C3.66127-.251059 3.591532-.251059 3.591532-.550934V-1.806227C3.591532-2.538481 4.170361-2.880199 4.630635-2.880199C5.118804-2.880199 5.181569-2.496638 5.181569-2.140971V-.550934C5.181569-.251059 5.111831-.251059 4.658531-.251059V0C4.672478 0 5.160648-.027895 5.453549-.027895C5.711582-.027895 6.192777-.006974 6.255542 0V-.251059C5.802242-.251059 5.732503-.251059 5.732503-.550934V-2.113076Z" id="2-g2-109"/>
    <path d="M3.591532-2.113076C3.591532-2.719801 3.291656-3.075467 2.545455-3.075467C1.973599-3.075467 1.603985-2.761644 1.408717-2.399004H1.401743V-3.075467L.376588-2.998755V-2.747696C.843836-2.747696 .899626-2.698879 .899626-2.357161V-.550934C.899626-.251059 .829888-.251059 .376588-.251059V0C.390535 0 .878705-.027895 1.171606-.027895C1.429639-.027895 1.910834-.006974 1.973599 0V-.251059C1.520299-.251059 1.45056-.251059 1.45056-.550934V-1.806227C1.45056-2.538481 2.02939-2.880199 2.489664-2.880199C2.977833-2.880199 3.040598-2.496638 3.040598-2.140971V-.550934C3.040598-.251059 2.970859-.251059 2.517559-.251059V0C2.531507 0 3.019676-.027895 3.312578-.027895C3.57061-.027895 4.051806-.006974 4.11457 0V-.251059C3.66127-.251059 3.591532-.251059 3.591532-.550934V-2.113076Z" id="2-g2-110"/>
    <path d="M2.517559-2.998755V-2.747696C2.984807-2.747696 3.040598-2.698879 3.040598-2.357161V-1.164633C3.040598-.550934 2.643088-.125529 2.113076-.125529C1.478456-.125529 1.45056-.425405 1.45056-.781071V-3.075467L.376588-2.998755V-2.747696C.899626-2.747696 .899626-2.726775 .899626-2.106102V-1.060025C.899626-.578829 .899626 .069738 2.064259 .069738C2.217684 .069738 2.726775 .069738 3.061519-.516065H3.068493V.069738L4.11457 0V-.251059C3.647323-.251059 3.591532-.299875 3.591532-.641594V-3.075467L2.517559-2.998755Z" id="2-g2-117"/>
    <path d="M2.022416-3.291656C2.078207-3.410212 2.085181-3.466002 2.085181-3.514819C2.085181-3.731009 1.889913-3.898381 1.673724-3.898381C1.408717-3.898381 1.325031-3.682192 1.290162-3.57061L.369614-.550934C.36264-.536986 .334745-.446326 .334745-.439352C.334745-.355666 .550934-.285928 .606725-.285928C.655542-.285928 .662516-.299875 .711333-.404483L2.022416-3.291656Z" id="2-g0-48"/>
   </defs>
   <g fill="rgb(0,0,0)" transform="translate(503.881235,273.445097) matrix(3 0 0 3 0 0)">
    <use x="-72.000004" xlink:href="#2-g1-117" y="-64.510268"/>
    <use x="-66.296809" xlink:href="#2-g0-48" y="-68.125632"/>
    <use x="-66.296809" xlink:href="#2-g2-110" y="-62.047337"/>
    <use x="-62.111101" xlink:href="#2-g2-117" y="-62.047337"/>
    <use x="-57.710912" xlink:href="#2-g2-109" y="-62.047337"/>
   </g>
   <polyline fill="none" points="252.393,119.762 281.967,119.762" stroke="#ffff00" stroke-linecap="butt" stroke-linejoin="round" stroke-width="0.5"/>
   <defs>
    <path d="M3.486924-.557908C3.596513-.14944 3.945205 .109589 4.373599 .109589C4.722291 .109589 4.951432-.119552 5.110834-.438356C5.280199-.797011 5.409714-1.404732 5.409714-1.424658C5.409714-1.524284 5.32005-1.524284 5.290162-1.524284C5.190535-1.524284 5.180573-1.484433 5.150685-1.344956C5.011208-.787049 4.821918-.109589 4.403487-.109589C4.194271-.109589 4.094645-.239103 4.094645-.56787C4.094645-.787049 4.214197-1.255293 4.293898-1.603985L4.572852-2.67995C4.60274-2.82939 4.702366-3.20797 4.742217-3.35741C4.79203-3.58655 4.891656-3.965131 4.891656-4.024907C4.891656-4.204234 4.752179-4.293898 4.60274-4.293898C4.552927-4.293898 4.293898-4.283935 4.214197-3.945205C4.024907-3.217933 3.58655-1.474471 3.466999-.946451C3.457036-.9066 3.058531-.109589 2.331258-.109589C1.8132-.109589 1.713574-.557908 1.713574-.926526C1.713574-1.484433 1.992528-2.271482 2.251557-2.958904C2.371108-3.257783 2.420922-3.39726 2.420922-3.58655C2.420922-4.034869 2.102117-4.403487 1.603985-4.403487C.657534-4.403487 .288917-2.958904 .288917-2.86924C.288917-2.769614 .388543-2.769614 .408468-2.769614C.508095-2.769614 .518057-2.789539 .56787-2.948941C.816936-3.815691 1.195517-4.184309 1.574097-4.184309C1.663761-4.184309 1.823163-4.174346 1.823163-3.855542C1.823163-3.616438 1.713574-3.327522 1.653798-3.178082C1.285181-2.191781 1.075965-1.574097 1.075965-1.085928C1.075965-.139477 1.763387 .109589 2.30137 .109589C2.958904 .109589 3.317559-.33873 3.486924-.557908Z" id="3-g1-117"/>
    <path d="M2.022416-3.291656C2.078207-3.410212 2.085181-3.466002 2.085181-3.514819C2.085181-3.731009 1.889913-3.898381 1.673724-3.898381C1.408717-3.898381 1.325031-3.682192 1.290162-3.57061L.369614-.550934C.36264-.536986 .334745-.446326 .334745-.439352C.334745-.355666 .550934-.285928 .606725-.285928C.655542-.285928 .662516-.299875 .711333-.404483L2.022416-3.291656Z" id="3-g0-48"/>
    <path d="M3.110336-1.868991C3.110336-2.238605 3.110336-2.503611 2.789539-2.761644C2.503611-2.998755 2.168867-3.110336 1.75741-3.110336C1.094894-3.110336 .627646-2.859278 .627646-2.433873C.627646-2.21071 .781071-2.092154 .962391-2.092154C1.150685-2.092154 1.290162-2.231631 1.290162-2.419925C1.290162-2.538481 1.234371-2.684932 1.046077-2.740722C1.297136-2.915068 1.701619-2.915068 1.743462-2.915068C2.133998-2.915068 2.559402-2.657036 2.559402-2.071233V-1.855044C2.175841-1.841096 1.715567-1.820174 1.206476-1.63188C.578829-1.401743 .383562-1.018182 .383562-.704359C.383562-.104608 1.108842 .069738 1.603985 .069738C2.161893 .069738 2.489664-.244085 2.636115-.516065C2.66401-.230137 2.852304 .034869 3.173101 .034869C3.187049 .034869 3.863512 .034869 3.863512-.627646V-1.011208H3.626401V-.63462C3.626401-.564882 3.626401-.230137 3.368369-.230137S3.110336-.557908 3.110336-.648568V-1.868991ZM2.559402-.983313C2.559402-.313823 1.973599-.125529 1.659776-.125529C1.30411-.125529 .969365-.36264 .969365-.704359C.969365-1.08792 1.30411-1.624907 2.559402-1.673724V-.983313Z" id="3-g2-97"/>
    <path d="M3.591532-2.113076C3.591532-2.719801 3.291656-3.075467 2.545455-3.075467C1.973599-3.075467 1.603985-2.761644 1.408717-2.399004H1.401743V-3.075467L.376588-2.998755V-2.747696C.843836-2.747696 .899626-2.698879 .899626-2.357161V-.550934C.899626-.251059 .829888-.251059 .376588-.251059V0C.390535 0 .878705-.027895 1.171606-.027895C1.429639-.027895 1.910834-.006974 1.973599 0V-.251059C1.520299-.251059 1.45056-.251059 1.45056-.550934V-1.806227C1.45056-2.538481 2.02939-2.880199 2.489664-2.880199C2.977833-2.880199 3.040598-2.496638 3.040598-2.140971V-.550934C3.040598-.251059 2.970859-.251059 2.517559-.251059V0C2.531507 0 3.019676-.027895 3.312578-.027895C3.57061-.027895 4.051806-.006974 4.11457 0V-.251059C3.66127-.251059 3.591532-.251059 3.591532-.550934V-2.113076Z" id="3-g2-110"/>
   </defs>
   <g fill="rgb(0,0,0)" transform="translate(503.881235,320.762123) matrix(3 0 0 3 0 0)">
    <use x="-72.000004" xlink:href="#3-g1-117" y="-64.510268"/>
    <use x="-66.296809" xlink:href="#3-g0-48" y="-68.125632"/>
    <use x="-66.296809" xlink:href="#3-g2-97" y="-62.047337"/>
    <use x="-62.325568" xlink:href="#3-g2-110" y="-62.047337"/>
    <use x="-57.925379" xlink:href="#3-g2-97" y="-62.047337"/>
   </g>
  </g>
 </g>
</svg>
