<?xml version='1.0' encoding='UTF-8' standalone='no'?>
<svg height="304pt" viewBox="0 0 405 304" width="405pt" xmlns="http://www.w3.org/2000/svg" xmlns:xlink="http://www.w3.org/1999/xlink">
 <title>Figure 2</title>
 <desc>
Creator: GL2PS 1.4.2, (C) 1999-2020 C. Geuzaine
For: Octave
CreationDate: Mon Sep  8 18:48:47 2025
</desc>
 <defs/>
 <polygon fill="#ffffff" points="0,0 405,0 405,304 0,304"/>
 <g>
  <polygon fill="#ffffff" points="0,304 405,304 405,0 0,0" shape-rendering="crispEdges"/>
  <clipPath id="cp00405304">
   <polygon points="0,304 405,304 405,0 0,0"/>
  </clipPath>
  <g clip-path="url(#cp00405304)">
   <polygon fill="#ffffff" points="74.0076,270.829 367.225,270.829 367.225,34 74.0076,34" shape-rendering="crispEdges"/>
   <polyline fill="none" points="74.0076,270.829 74.0076,267.899" stroke="#262626" stroke-linecap="butt" stroke-linejoin="miter" stroke-width="0.5"/>
   <polyline fill="none" points="132.651,270.829 132.651,267.899" stroke="#262626" stroke-linecap="butt" stroke-linejoin="miter" stroke-width="0.5"/>
   <polyline fill="none" points="191.295,270.829 191.295,267.899" stroke="#262626" stroke-linecap="butt" stroke-linejoin="miter" stroke-width="0.5"/>
   <polyline fill="none" points="249.938,270.829 249.938,267.899" stroke="#262626" stroke-linecap="butt" stroke-linejoin="miter" stroke-width="0.5"/>
   <polyline fill="none" points="308.582,270.829 308.582,267.899" stroke="#262626" stroke-linecap="butt" stroke-linejoin="miter" stroke-width="0.5"/>
   <polyline fill="none" points="367.225,270.829 367.225,267.899" stroke="#262626" stroke-linecap="butt" stroke-linejoin="miter" stroke-width="0.5"/>
   <g font-family="FreeSans" font-size="10" font-style="normal" font-weight="normal" transform="translate(71.0076,286.324) rotate(-0,3,-8)" xml:space="preserve">
    <text fill="rgb(38,38,38)" x="0 " y="-0">0</text>
   </g>
   <g font-family="FreeSans" font-size="10" font-style="normal" font-weight="normal" transform="translate(125.151,286.324) rotate(-0,7.5,-8)" xml:space="preserve">
    <text fill="rgb(38,38,38)" x="0 6 9 " y="-0">0.2</text>
   </g>
   <g font-family="FreeSans" font-size="10" font-style="normal" font-weight="normal" transform="translate(183.795,286.324) rotate(-0,7.5,-8)" xml:space="preserve">
    <text fill="rgb(38,38,38)" x="0 6 9 " y="-0">0.4</text>
   </g>
   <g font-family="FreeSans" font-size="10" font-style="normal" font-weight="normal" transform="translate(242.438,286.324) rotate(-0,7.5,-8)" xml:space="preserve">
    <text fill="rgb(38,38,38)" x="0 6 9 " y="-0">0.6</text>
   </g>
   <g font-family="FreeSans" font-size="10" font-style="normal" font-weight="normal" transform="translate(301.082,286.324) rotate(-0,7.5,-8)" xml:space="preserve">
    <text fill="rgb(38,38,38)" x="0 6 9 " y="-0">0.8</text>
   </g>
   <g font-family="FreeSans" font-size="10" font-style="normal" font-weight="normal" transform="translate(364.225,286.324) rotate(-0,3,-8)" xml:space="preserve">
    <text fill="rgb(38,38,38)" x="0 " y="-0">1</text>
   </g>
   <polyline fill="none" points="74.0076,270.829 76.9419,270.829" stroke="#262626" stroke-linecap="butt" stroke-linejoin="miter" stroke-width="0.5"/>
   <polyline fill="none" points="74.0076,231.358 76.9419,231.358" stroke="#262626" stroke-linecap="butt" stroke-linejoin="miter" stroke-width="0.5"/>
   <polyline fill="none" points="74.0076,191.886 76.9419,191.886" stroke="#262626" stroke-linecap="butt" stroke-linejoin="miter" stroke-width="0.5"/>
   <polyline fill="none" points="74.0076,152.415 76.9419,152.415" stroke="#262626" stroke-linecap="butt" stroke-linejoin="miter" stroke-width="0.5"/>
   <polyline fill="none" points="74.0076,112.943 76.9419,112.943" stroke="#262626" stroke-linecap="butt" stroke-linejoin="miter" stroke-width="0.5"/>
   <polyline fill="none" points="74.0076,73.4716 76.9419,73.4716" stroke="#262626" stroke-linecap="butt" stroke-linejoin="miter" stroke-width="0.5"/>
   <polyline fill="none" points="74.0076,34 76.9419,34" stroke="#262626" stroke-linecap="butt" stroke-linejoin="miter" stroke-width="0.5"/>
   <g font-family="FreeSans" font-size="10" font-style="normal" font-weight="normal" transform="translate(36.0038,274.829) rotate(-0,33,-4)" xml:space="preserve">
    <text fill="rgb(38,38,38)" x="0 3 9 15 21 27 " y="-0">-40000</text>
   </g>
   <g font-family="FreeSans" font-size="10" font-style="normal" font-weight="normal" transform="translate(36.0038,235.358) rotate(-0,33,-4)" xml:space="preserve">
    <text fill="rgb(38,38,38)" x="0 3 9 15 21 27 " y="-0">-20000</text>
   </g>
   <g font-family="FreeSans" font-size="10" font-style="normal" font-weight="normal" transform="translate(63.0038,195.886) rotate(-0,6,-4)" xml:space="preserve">
    <text fill="rgb(38,38,38)" x="0 " y="-0">0</text>
   </g>
   <g font-family="FreeSans" font-size="10" font-style="normal" font-weight="normal" transform="translate(39.0038,156.415) rotate(-0,30,-4)" xml:space="preserve">
    <text fill="rgb(38,38,38)" x="0 6 12 18 24 " y="-0">20000</text>
   </g>
   <g font-family="FreeSans" font-size="10" font-style="normal" font-weight="normal" transform="translate(39.0038,116.943) rotate(-0,30,-4)" xml:space="preserve">
    <text fill="rgb(38,38,38)" x="0 6 12 18 24 " y="-0">40000</text>
   </g>
   <g font-family="FreeSans" font-size="10" font-style="normal" font-weight="normal" transform="translate(39.0038,77.4716) rotate(-0,30,-4)" xml:space="preserve">
    <text fill="rgb(38,38,38)" x="0 6 12 18 24 " y="-0">60000</text>
   </g>
   <g font-family="FreeSans" font-size="10" font-style="normal" font-weight="normal" transform="translate(39.0038,38) rotate(-0,30,-4)" xml:space="preserve">
    <text fill="rgb(38,38,38)" x="0 6 12 18 24 " y="-0">80000</text>
   </g>
   <polyline fill="none" points="74.0076,270.829 367.225,270.829" stroke="#262626" stroke-dasharray="16,0" stroke-linecap="square" stroke-linejoin="miter" stroke-width="0.5"/>
   <polyline fill="none" points="74.0076,270.829 74.0076,34" stroke="#262626" stroke-dasharray="16,0" stroke-linecap="square" stroke-linejoin="miter" stroke-width="0.5"/>
   <defs>
    <path d="M2.859278-2.34122C3.158157-2.719801 3.536737-3.20797 3.775841-3.466999C4.084682-3.825654 4.493151-3.975093 4.961395-3.985056V-4.293898C4.702366-4.273973 4.403487-4.26401 4.144458-4.26401C3.845579-4.26401 3.317559-4.283935 3.188045-4.293898V-3.985056C3.39726-3.965131 3.476961-3.835616 3.476961-3.676214S3.377335-3.387298 3.327522-3.327522L2.709838-2.550436L1.932752-3.556663C1.843088-3.656289 1.843088-3.676214 1.843088-3.73599C1.843088-3.88543 1.992528-3.975093 2.191781-3.985056V-4.293898C1.932752-4.283935 1.275218-4.26401 1.115816-4.26401C.9066-4.26401 .438356-4.273973 .169365-4.293898V-3.985056C.86675-3.985056 .876712-3.975093 1.344956-3.377335L2.331258-2.092154L1.39477-.9066C.916563-.328767 .328767-.308842 .119552-.308842V0C.37858-.019925 .687422-.029888 .946451-.029888C1.235367-.029888 1.653798-.009963 1.892902 0V-.308842C1.673724-.33873 1.603985-.468244 1.603985-.617684C1.603985-.836862 1.892902-1.165629 2.500623-1.882939L3.257783-.886675C3.337484-.777086 3.466999-.617684 3.466999-.557908C3.466999-.468244 3.377335-.318804 3.108344-.308842V0C3.407223-.009963 3.965131-.029888 4.184309-.029888C4.4533-.029888 4.841843-.019925 5.140722 0V-.308842C4.60274-.308842 4.423412-.328767 4.194271-.617684L2.859278-2.34122Z" id="0-g0-120"/>
   </defs>
   <g fill="rgb(38,38,38)" transform="translate(428.616345,507.323965) matrix(3 0 0 3 0 0)">
    <use x="-72.000004" xlink:href="#0-g0-120" y="-67.710548"/>
   </g>
   <defs>
    <path d="M3.486924-.557908C3.596513-.14944 3.945205 .109589 4.373599 .109589C4.722291 .109589 4.951432-.119552 5.110834-.438356C5.280199-.797011 5.409714-1.404732 5.409714-1.424658C5.409714-1.524284 5.32005-1.524284 5.290162-1.524284C5.190535-1.524284 5.180573-1.484433 5.150685-1.344956C5.011208-.787049 4.821918-.109589 4.403487-.109589C4.194271-.109589 4.094645-.239103 4.094645-.56787C4.094645-.787049 4.214197-1.255293 4.293898-1.603985L4.572852-2.67995C4.60274-2.82939 4.702366-3.20797 4.742217-3.35741C4.79203-3.58655 4.891656-3.965131 4.891656-4.024907C4.891656-4.204234 4.752179-4.293898 4.60274-4.293898C4.552927-4.293898 4.293898-4.283935 4.214197-3.945205C4.024907-3.217933 3.58655-1.474471 3.466999-.946451C3.457036-.9066 3.058531-.109589 2.331258-.109589C1.8132-.109589 1.713574-.557908 1.713574-.926526C1.713574-1.484433 1.992528-2.271482 2.251557-2.958904C2.371108-3.257783 2.420922-3.39726 2.420922-3.58655C2.420922-4.034869 2.102117-4.403487 1.603985-4.403487C.657534-4.403487 .288917-2.958904 .288917-2.86924C.288917-2.769614 .388543-2.769614 .408468-2.769614C.508095-2.769614 .518057-2.789539 .56787-2.948941C.816936-3.815691 1.195517-4.184309 1.574097-4.184309C1.663761-4.184309 1.823163-4.174346 1.823163-3.855542C1.823163-3.616438 1.713574-3.327522 1.653798-3.178082C1.285181-2.191781 1.075965-1.574097 1.075965-1.085928C1.075965-.139477 1.763387 .109589 2.30137 .109589C2.958904 .109589 3.317559-.33873 3.486924-.557908Z" id="1-g1-117"/>
    <path d="M3.327522-3.008717C3.387298-3.267746 3.616438-4.184309 4.313823-4.184309C4.363636-4.184309 4.60274-4.184309 4.811955-4.054795C4.533001-4.004981 4.333748-3.755915 4.333748-3.516812C4.333748-3.35741 4.443337-3.16812 4.712329-3.16812C4.931507-3.16812 5.250311-3.347447 5.250311-3.745953C5.250311-4.26401 4.662516-4.403487 4.323786-4.403487C3.745953-4.403487 3.39726-3.875467 3.277709-3.646326C3.028643-4.303861 2.49066-4.403487 2.201743-4.403487C1.165629-4.403487 .597758-3.118306 .597758-2.86924C.597758-2.769614 .697385-2.769614 .71731-2.769614C.797011-2.769614 .826899-2.789539 .846824-2.879203C1.185554-3.935243 1.843088-4.184309 2.181818-4.184309C2.371108-4.184309 2.719801-4.094645 2.719801-3.516812C2.719801-3.20797 2.550436-2.540473 2.181818-1.145704C2.022416-.52802 1.673724-.109589 1.235367-.109589C1.175592-.109589 .946451-.109589 .737235-.239103C.986301-.288917 1.205479-.498132 1.205479-.777086C1.205479-1.046077 .986301-1.125778 .836862-1.125778C.537983-1.125778 .288917-.86675 .288917-.547945C.288917-.089664 .787049 .109589 1.225405 .109589C1.882939 .109589 2.241594-.587796 2.271482-.647572C2.391034-.278954 2.749689 .109589 3.347447 .109589C4.373599 .109589 4.941469-1.175592 4.941469-1.424658C4.941469-1.524284 4.851806-1.524284 4.821918-1.524284C4.732254-1.524284 4.712329-1.484433 4.692403-1.414695C4.363636-.348692 3.686177-.109589 3.367372-.109589C2.978829-.109589 2.819427-.428394 2.819427-.767123C2.819427-.986301 2.879203-1.205479 2.988792-1.643836L3.327522-3.008717Z" id="1-g1-120"/>
    <path d="M2.022416-3.291656C2.078207-3.410212 2.085181-3.466002 2.085181-3.514819C2.085181-3.731009 1.889913-3.898381 1.673724-3.898381C1.408717-3.898381 1.325031-3.682192 1.290162-3.57061L.369614-.550934C.36264-.536986 .334745-.446326 .334745-.439352C.334745-.355666 .550934-.285928 .606725-.285928C.655542-.285928 .662516-.299875 .711333-.404483L2.022416-3.291656Z" id="1-g0-48"/>
    <path d="M3.297634 2.391034C3.297634 2.361146 3.297634 2.34122 3.128269 2.171856C1.882939 .916563 1.564134-.966376 1.564134-2.49066C1.564134-4.224159 1.942715-5.957659 3.16812-7.202989C3.297634-7.32254 3.297634-7.342466 3.297634-7.372354C3.297634-7.442092 3.257783-7.47198 3.198007-7.47198C3.098381-7.47198 2.201743-6.794521 1.613948-5.529265C1.105853-4.433375 .986301-3.327522 .986301-2.49066C.986301-1.713574 1.09589-.508095 1.643836 .617684C2.241594 1.843088 3.098381 2.49066 3.198007 2.49066C3.257783 2.49066 3.297634 2.460772 3.297634 2.391034Z" id="1-g2-40"/>
    <path d="M2.879203-2.49066C2.879203-3.267746 2.769614-4.473225 2.221669-5.599004C1.62391-6.824408 .767123-7.47198 .667497-7.47198C.607721-7.47198 .56787-7.43213 .56787-7.372354C.56787-7.342466 .56787-7.32254 .757161-7.143213C1.733499-6.156912 2.30137-4.572852 2.30137-2.49066C2.30137-.787049 1.932752 .966376 .697385 2.221669C.56787 2.34122 .56787 2.361146 .56787 2.391034C.56787 2.450809 .607721 2.49066 .667497 2.49066C.767123 2.49066 1.663761 1.8132 2.251557 .547945C2.759651-.547945 2.879203-1.653798 2.879203-2.49066Z" id="1-g2-41"/>
   </defs>
   <g fill="rgb(38,38,38)" transform="rotate(-90.000000,31.003844,152.414659) translate(215.003857,337.414672) matrix(3 0 0 3 0 0)">
    <use x="-72.000004" xlink:href="#1-g1-117" y="-64.510268"/>
    <use x="-66.296809" xlink:href="#1-g0-48" y="-68.125632"/>
    <use x="-63.501733" xlink:href="#1-g2-40" y="-64.510268"/>
    <use x="-59.627359" xlink:href="#1-g1-120" y="-64.510268"/>
    <use x="-53.933427" xlink:href="#1-g2-41" y="-64.510268"/>
   </g>
   <g font-family="FreeSans" font-size="30" font-style="normal" font-weight="bold" transform="translate(156.616,24) rotate(-0,64,0)" xml:space="preserve">
    <text fill="rgb(0,0,0)" x="0 22 39 51 59 75 92 111 " y="-1">Derivada</text>
   </g>
   <polyline fill="none" points="283.931,201.751 285.996,202.092 288.044,202.07 290.075,201.729 292.089,201.121 294.086,200.299 296.065,199.318 298.025,198.229 299.967,197.077 301.888,195.904 303.79,194.741 305.672,193.617 307.532,192.55 309.371,191.555 311.189,190.64 312.984,189.811 314.757,189.066 316.506,188.403 318.232,187.818 319.934,187.304 321.611,186.852 323.264,186.455 324.891,186.106 326.493,185.794 328.069,185.514 329.619,185.259 331.142,185.024 332.637,184.806 334.105,184.604 335.546,184.416 336.958,184.249 338.341,184.111 339.696,184.01" stroke="#00ff00" stroke-linecap="butt" stroke-linejoin="round" stroke-width="0.5"/>
   <polyline fill="none" points="366.145,139.283 366.405,129.596 366.63,121.234 366.819,114.265 366.972,108.699 367.089,104.508 367.17,101.647 367.215,100.074" stroke="#00ff00" stroke-linecap="butt" stroke-linejoin="round" stroke-width="0.5"/>
   <polyline fill="none" points="74.0181,59.8437 74.0631,64.0901 74.1441,71.5525 74.261,81.9365 74.4139,94.8412 74.6026,109.781 74.8272,126.205 75.0876,143.519 75.3838,161.106 75.7155,178.331 76.0829,194.554 76.4857,209.126 76.9239,221.391 77.3974,230.677 77.9061,236.304 78.4498,238.1 79.0284,236.592 79.6417,232.494 80.2897,226.657 80.9721,220.052 81.6888,213.735 82.4396,208.242 83.2244,203.502 84.0428,199.415 84.8948,195.877 85.7801,192.799 86.6986,190.174 87.6498,188.027 88.6338,186.39 89.6501,185.274 90.6986,184.577 91.779,184.17 92.891,183.925" stroke="#00ff00" stroke-linecap="butt" stroke-linejoin="round" stroke-width="0.5"/>
   <polyline fill="none" points="143.207,194.461 145.168,195.178 147.146,195.908 149.143,196.639 151.158,197.356 153.189,198.041 155.237,198.672 157.301,199.226 159.381,199.675 161.475,199.991 163.585,200.146 165.708,200.109 167.844,199.855 169.994,199.36 172.156,198.607 174.33,197.587 176.515,196.305 178.711,194.776 180.918,193.032 183.134,191.121 185.359,189.109 187.593,187.078 189.835,185.125 192.085,183.358 194.342,181.886 196.605,180.822 198.874,180.261 201.148,180.283 203.427,180.937 205.711,182.235 207.998,184.146 210.288,186.592 212.58,189.451" stroke="#00ff00" stroke-linecap="butt" stroke-linejoin="round" stroke-width="0.5"/>
   <polyline fill="none" points="339.696,184.01 341.021,183.96 342.317,183.973 343.583,184.074 344.819,184.296 346.024,184.673 347.198,185.239 348.342,186.028 349.454,187.075 350.534,188.426 351.583,190.14 352.599,192.276 353.583,194.874 354.534,197.913 355.453,201.359 356.338,205.183 357.19,209.309 358.008,213.531 358.793,217.636 359.544,221.431 360.261,224.728 360.943,227.131 361.591,228.081 362.204,227.102 362.783,223.824 363.327,217.983 363.835,209.467 364.309,198.782 364.747,186.818 365.15,174.336 365.517,161.952 365.849,150.15 366.145,139.283" stroke="#00ff00" stroke-linecap="butt" stroke-linejoin="round" stroke-width="0.5"/>
   <polyline fill="none" points="92.891,183.925 94.0344,183.782 95.2089,183.746 96.4141,183.824 97.6498,184.006 98.9158,184.251 100.212,184.515 101.537,184.778 102.892,185.047 104.275,185.329 105.687,185.62 107.127,185.907 108.595,186.184 110.091,186.455 111.614,186.725 113.163,186.997 114.739,187.27 116.341,187.546 117.969,187.829 119.621,188.124 121.299,188.435 123.001,188.763 124.727,189.114 126.476,189.492 128.249,189.9 130.044,190.34 131.861,190.816 133.7,191.33 135.561,191.883 137.442,192.475 139.344,193.104 141.266,193.768 143.207,194.461" stroke="#00ff00" stroke-linecap="butt" stroke-linejoin="round" stroke-width="0.5"/>
   <polyline fill="none" points="212.58,189.451 214.875,192.558 217.171,195.717 219.468,198.717 221.765,201.342 224.062,203.396 226.358,204.713 228.652,205.185 230.945,204.758 233.235,203.451 235.522,201.352 237.806,198.606 240.085,195.414 242.359,192.003 244.628,188.618 246.891,185.491 249.148,182.83 251.397,180.798 253.64,179.505 255.874,179.003 258.099,179.283 260.315,180.285 262.521,181.904 264.718,184.004 266.903,186.431 269.077,189.025 271.239,191.635 273.388,194.122 275.525,196.376 277.648,198.309 279.757,199.865 281.852,201.014 283.931,201.751" stroke="#00ff00" stroke-linecap="butt" stroke-linejoin="round" stroke-width="0.5"/>
   <polyline fill="none" points="74.0181,73.9274 74.0631,75.4777 74.1441,78.7499 74.261,84.4168 74.4139,93.1363 74.6026,105.296 74.8272,120.804 75.0876,138.999 75.3838,158.71 75.7155,178.458 76.0829,196.73 76.4857,212.25 76.9239,224.166 77.3974,232.127 77.9061,236.244 78.4498,236.983 79.0284,235.024 79.6417,231.123 80.2897,226.005 80.9721,220.296 81.6888,214.489 82.4396,208.939 83.2244,203.876 84.0428,199.427 84.8948,195.639 85.7801,192.505 86.6986,189.981 87.6498,188.005 88.6338,186.505 89.6501,185.406 90.6986,184.64 91.779,184.142 92.891,183.858" stroke="#ffff00" stroke-linecap="butt" stroke-linejoin="round" stroke-width="0.5"/>
   <polyline fill="none" points="143.207,194.461 145.168,195.178 147.146,195.908 149.143,196.639 151.158,197.356 153.189,198.041 155.237,198.672 157.301,199.226 159.381,199.675 161.475,199.991 163.585,200.146 165.708,200.109 167.844,199.855 169.994,199.36 172.156,198.607 174.33,197.587 176.515,196.305 178.711,194.776 180.918,193.032 183.134,191.121 185.359,189.109 187.593,187.078 189.835,185.125 192.085,183.358 194.342,181.887 196.605,180.821 198.874,180.261 201.148,180.283 203.427,180.937 205.711,182.235 207.998,184.146 210.288,186.592 212.58,189.451" stroke="#ffff00" stroke-linecap="butt" stroke-linejoin="round" stroke-width="0.5"/>
   <polyline fill="none" points="283.931,201.751 285.996,202.092 288.044,202.07 290.075,201.729 292.089,201.121 294.086,200.299 296.065,199.318 298.025,198.229 299.967,197.077 301.888,195.904 303.79,194.741 305.672,193.617 307.532,192.55 309.371,191.555 311.189,190.64 312.984,189.811 314.757,189.066 316.506,188.403 318.232,187.818 319.934,187.303 321.611,186.852 323.264,186.456 324.891,186.106 326.493,185.794 328.069,185.514 329.619,185.259 331.142,185.024 332.637,184.806 334.105,184.603 335.546,184.417 336.958,184.251 338.341,184.111 339.696,184.009" stroke="#ffff00" stroke-linecap="butt" stroke-linejoin="round" stroke-width="0.5"/>
   <polyline fill="none" points="366.145,137.755 366.405,127.824 366.63,119.818 366.819,113.777 366.972,109.533 367.089,106.781 367.17,105.17 367.215,104.39" stroke="#ffff00" stroke-linecap="butt" stroke-linejoin="round" stroke-width="0.5"/>
   <polyline fill="none" points="339.696,184.009 341.021,183.956 342.317,183.972 343.583,184.078 344.819,184.302 346.024,184.674 347.198,185.231 348.342,186.015 349.454,187.068 350.534,188.438 351.583,190.168 352.599,192.3 353.583,194.864 354.534,197.873 355.453,201.316 356.338,205.148 357.19,209.277 358.008,213.557 358.793,217.778 359.544,221.666 360.261,224.884 360.943,227.048 361.591,227.756 362.204,226.625 362.783,223.347 363.327,217.739 363.835,209.799 364.309,199.739 364.747,187.99 365.15,175.173 365.517,162.031 365.849,149.329 366.145,137.755" stroke="#ffff00" stroke-linecap="butt" stroke-linejoin="round" stroke-width="0.5"/>
   <polyline fill="none" points="92.891,183.858 94.0344,183.741 95.2089,183.751 96.4141,183.855 97.6498,184.027 98.9158,184.248 100.212,184.499 101.537,184.77 102.892,185.052 104.275,185.337 105.687,185.621 107.127,185.903 108.595,186.181 110.091,186.456 111.614,186.727 113.163,186.997 114.739,187.269 116.341,187.545 117.969,187.829 119.621,188.124 121.299,188.434 123.001,188.763 124.727,189.114 126.476,189.492 128.249,189.9 130.044,190.34 131.861,190.816 133.7,191.33 135.561,191.883 137.442,192.475 139.344,193.104 141.266,193.768 143.207,194.461" stroke="#ffff00" stroke-linecap="butt" stroke-linejoin="round" stroke-width="0.5"/>
   <polyline fill="none" points="212.58,189.451 214.875,192.557 217.171,195.717 219.468,198.717 221.765,201.342 224.062,203.395 226.358,204.714 228.652,205.185 230.945,204.758 233.235,203.452 235.522,201.351 237.806,198.606 240.085,195.414 242.359,192.003 244.628,188.618 246.891,185.491 249.148,182.83 251.397,180.798 253.64,179.505 255.874,179.003 258.099,179.283 260.315,180.285 262.521,181.904 264.718,184.004 266.903,186.431 269.077,189.025 271.239,191.634 273.388,194.122 275.525,196.376 277.648,198.309 279.757,199.865 281.852,201.014 283.931,201.751" stroke="#ffff00" stroke-linecap="butt" stroke-linejoin="round" stroke-width="0.5"/>
  </g>
  <clipPath id="cp00405304">
   <polygon points="0,304 405,304 405,0 0,0"/>
  </clipPath>
  <g clip-path="url(#cp00405304)">
   <polygon fill="#ffffff" points="246.479,146.378 355.396,146.378 355.396,45.8293 246.479,45.8293" shape-rendering="crispEdges"/>
   <polyline fill="none" points="246.479,146.378 355.396,146.378" stroke="#262626" stroke-dasharray="16,0" stroke-linecap="square" stroke-linejoin="miter" stroke-width="0.5"/>
   <polyline fill="none" points="246.479,45.8293 355.396,45.8293" stroke="#262626" stroke-dasharray="16,0" stroke-linecap="square" stroke-linejoin="miter" stroke-width="0.5"/>
   <polyline fill="none" points="246.479,146.378 246.479,45.8293" stroke="#262626" stroke-dasharray="16,0" stroke-linecap="square" stroke-linejoin="miter" stroke-width="0.5"/>
   <polyline fill="none" points="355.396,146.378 355.396,45.8293" stroke="#262626" stroke-dasharray="16,0" stroke-linecap="square" stroke-linejoin="miter" stroke-width="0.5"/>
   <polyline fill="none" points="252.393,72.4451 281.967,72.4451" stroke="#00ff00" stroke-linecap="butt" stroke-linejoin="round" stroke-width="0.5"/>
   <defs>
    <path d="M3.486924-.557908C3.596513-.14944 3.945205 .109589 4.373599 .109589C4.722291 .109589 4.951432-.119552 5.110834-.438356C5.280199-.797011 5.409714-1.404732 5.409714-1.424658C5.409714-1.524284 5.32005-1.524284 5.290162-1.524284C5.190535-1.524284 5.180573-1.484433 5.150685-1.344956C5.011208-.787049 4.821918-.109589 4.403487-.109589C4.194271-.109589 4.094645-.239103 4.094645-.56787C4.094645-.787049 4.214197-1.255293 4.293898-1.603985L4.572852-2.67995C4.60274-2.82939 4.702366-3.20797 4.742217-3.35741C4.79203-3.58655 4.891656-3.965131 4.891656-4.024907C4.891656-4.204234 4.752179-4.293898 4.60274-4.293898C4.552927-4.293898 4.293898-4.283935 4.214197-3.945205C4.024907-3.217933 3.58655-1.474471 3.466999-.946451C3.457036-.9066 3.058531-.109589 2.331258-.109589C1.8132-.109589 1.713574-.557908 1.713574-.926526C1.713574-1.484433 1.992528-2.271482 2.251557-2.958904C2.371108-3.257783 2.420922-3.39726 2.420922-3.58655C2.420922-4.034869 2.102117-4.403487 1.603985-4.403487C.657534-4.403487 .288917-2.958904 .288917-2.86924C.288917-2.769614 .388543-2.769614 .408468-2.769614C.508095-2.769614 .518057-2.789539 .56787-2.948941C.816936-3.815691 1.195517-4.184309 1.574097-4.184309C1.663761-4.184309 1.823163-4.174346 1.823163-3.855542C1.823163-3.616438 1.713574-3.327522 1.653798-3.178082C1.285181-2.191781 1.075965-1.574097 1.075965-1.085928C1.075965-.139477 1.763387 .109589 2.30137 .109589C2.958904 .109589 3.317559-.33873 3.486924-.557908Z" id="2-g1-117"/>
    <path d="M5.732503-2.113076C5.732503-2.719801 5.432628-3.075467 4.686426-3.075467C4.135492-3.075467 3.758904-2.775592 3.57061-2.426899C3.431133-2.922042 3.054545-3.075467 2.545455-3.075467C1.973599-3.075467 1.603985-2.761644 1.408717-2.399004H1.401743V-3.075467L.376588-2.998755V-2.747696C.843836-2.747696 .899626-2.698879 .899626-2.357161V-.550934C.899626-.251059 .829888-.251059 .376588-.251059V0C.390535 0 .878705-.027895 1.171606-.027895C1.429639-.027895 1.910834-.006974 1.973599 0V-.251059C1.520299-.251059 1.45056-.251059 1.45056-.550934V-1.806227C1.45056-2.538481 2.02939-2.880199 2.489664-2.880199C2.977833-2.880199 3.040598-2.496638 3.040598-2.140971V-.550934C3.040598-.251059 2.970859-.251059 2.517559-.251059V0C2.531507 0 3.019676-.027895 3.312578-.027895C3.57061-.027895 4.051806-.006974 4.11457 0V-.251059C3.66127-.251059 3.591532-.251059 3.591532-.550934V-1.806227C3.591532-2.538481 4.170361-2.880199 4.630635-2.880199C5.118804-2.880199 5.181569-2.496638 5.181569-2.140971V-.550934C5.181569-.251059 5.111831-.251059 4.658531-.251059V0C4.672478 0 5.160648-.027895 5.453549-.027895C5.711582-.027895 6.192777-.006974 6.255542 0V-.251059C5.802242-.251059 5.732503-.251059 5.732503-.550934V-2.113076Z" id="2-g2-109"/>
    <path d="M3.591532-2.113076C3.591532-2.719801 3.291656-3.075467 2.545455-3.075467C1.973599-3.075467 1.603985-2.761644 1.408717-2.399004H1.401743V-3.075467L.376588-2.998755V-2.747696C.843836-2.747696 .899626-2.698879 .899626-2.357161V-.550934C.899626-.251059 .829888-.251059 .376588-.251059V0C.390535 0 .878705-.027895 1.171606-.027895C1.429639-.027895 1.910834-.006974 1.973599 0V-.251059C1.520299-.251059 1.45056-.251059 1.45056-.550934V-1.806227C1.45056-2.538481 2.02939-2.880199 2.489664-2.880199C2.977833-2.880199 3.040598-2.496638 3.040598-2.140971V-.550934C3.040598-.251059 2.970859-.251059 2.517559-.251059V0C2.531507 0 3.019676-.027895 3.312578-.027895C3.57061-.027895 4.051806-.006974 4.11457 0V-.251059C3.66127-.251059 3.591532-.251059 3.591532-.550934V-2.113076Z" id="2-g2-110"/>
    <path d="M2.517559-2.998755V-2.747696C2.984807-2.747696 3.040598-2.698879 3.040598-2.357161V-1.164633C3.040598-.550934 2.643088-.125529 2.113076-.125529C1.478456-.125529 1.45056-.425405 1.45056-.781071V-3.075467L.376588-2.998755V-2.747696C.899626-2.747696 .899626-2.726775 .899626-2.106102V-1.060025C.899626-.578829 .899626 .069738 2.064259 .069738C2.217684 .069738 2.726775 .069738 3.061519-.516065H3.068493V.069738L4.11457 0V-.251059C3.647323-.251059 3.591532-.299875 3.591532-.641594V-3.075467L2.517559-2.998755Z" id="2-g2-117"/>
    <path d="M2.022416-3.291656C2.078207-3.410212 2.085181-3.466002 2.085181-3.514819C2.085181-3.731009 1.889913-3.898381 1.673724-3.898381C1.408717-3.898381 1.325031-3.682192 1.290162-3.57061L.369614-.550934C.36264-.536986 .334745-.446326 .334745-.439352C.334745-.355666 .550934-.285928 .606725-.285928C.655542-.285928 .662516-.299875 .711333-.404483L2.022416-3.291656Z" id="2-g0-48"/>
   </defs>
   <g fill="rgb(0,0,0)" transform="translate(503.881235,273.445097) matrix(3 0 0 3 0 0)">
    <use x="-72.000004" xlink:href="#2-g1-117" y="-64.510268"/>
    <use x="-66.296809" xlink:href="#2-g0-48" y="-68.125632"/>
    <use x="-66.296809" xlink:href="#2-g2-110" y="-62.047337"/>
    <use x="-62.111101" xlink:href="#2-g2-117" y="-62.047337"/>
    <use x="-57.710912" xlink:href="#2-g2-109" y="-62.047337"/>
   </g>
   <polyline fill="none" points="252.393,119.762 281.967,119.762" stroke="#ffff00" stroke-linecap="butt" stroke-linejoin="round" stroke-width="0.5"/>
   <defs>
    <path d="M3.486924-.557908C3.596513-.14944 3.945205 .109589 4.373599 .109589C4.722291 .109589 4.951432-.119552 5.110834-.438356C5.280199-.797011 5.409714-1.404732 5.409714-1.424658C5.409714-1.524284 5.32005-1.524284 5.290162-1.524284C5.190535-1.524284 5.180573-1.484433 5.150685-1.344956C5.011208-.787049 4.821918-.109589 4.403487-.109589C4.194271-.109589 4.094645-.239103 4.094645-.56787C4.094645-.787049 4.214197-1.255293 4.293898-1.603985L4.572852-2.67995C4.60274-2.82939 4.702366-3.20797 4.742217-3.35741C4.79203-3.58655 4.891656-3.965131 4.891656-4.024907C4.891656-4.204234 4.752179-4.293898 4.60274-4.293898C4.552927-4.293898 4.293898-4.283935 4.214197-3.945205C4.024907-3.217933 3.58655-1.474471 3.466999-.946451C3.457036-.9066 3.058531-.109589 2.331258-.109589C1.8132-.109589 1.713574-.557908 1.713574-.926526C1.713574-1.484433 1.992528-2.271482 2.251557-2.958904C2.371108-3.257783 2.420922-3.39726 2.420922-3.58655C2.420922-4.034869 2.102117-4.403487 1.603985-4.403487C.657534-4.403487 .288917-2.958904 .288917-2.86924C.288917-2.769614 .388543-2.769614 .408468-2.769614C.508095-2.769614 .518057-2.789539 .56787-2.948941C.816936-3.815691 1.195517-4.184309 1.574097-4.184309C1.663761-4.184309 1.823163-4.174346 1.823163-3.855542C1.823163-3.616438 1.713574-3.327522 1.653798-3.178082C1.285181-2.191781 1.075965-1.574097 1.075965-1.085928C1.075965-.139477 1.763387 .109589 2.30137 .109589C2.958904 .109589 3.317559-.33873 3.486924-.557908Z" id="3-g1-117"/>
    <path d="M2.022416-3.291656C2.078207-3.410212 2.085181-3.466002 2.085181-3.514819C2.085181-3.731009 1.889913-3.898381 1.673724-3.898381C1.408717-3.898381 1.325031-3.682192 1.290162-3.57061L.369614-.550934C.36264-.536986 .334745-.446326 .334745-.439352C.334745-.355666 .550934-.285928 .606725-.285928C.655542-.285928 .662516-.299875 .711333-.404483L2.022416-3.291656Z" id="3-g0-48"/>
    <path d="M3.110336-1.868991C3.110336-2.238605 3.110336-2.503611 2.789539-2.761644C2.503611-2.998755 2.168867-3.110336 1.75741-3.110336C1.094894-3.110336 .627646-2.859278 .627646-2.433873C.627646-2.21071 .781071-2.092154 .962391-2.092154C1.150685-2.092154 1.290162-2.231631 1.290162-2.419925C1.290162-2.538481 1.234371-2.684932 1.046077-2.740722C1.297136-2.915068 1.701619-2.915068 1.743462-2.915068C2.133998-2.915068 2.559402-2.657036 2.559402-2.071233V-1.855044C2.175841-1.841096 1.715567-1.820174 1.206476-1.63188C.578829-1.401743 .383562-1.018182 .383562-.704359C.383562-.104608 1.108842 .069738 1.603985 .069738C2.161893 .069738 2.489664-.244085 2.636115-.516065C2.66401-.230137 2.852304 .034869 3.173101 .034869C3.187049 .034869 3.863512 .034869 3.863512-.627646V-1.011208H3.626401V-.63462C3.626401-.564882 3.626401-.230137 3.368369-.230137S3.110336-.557908 3.110336-.648568V-1.868991ZM2.559402-.983313C2.559402-.313823 1.973599-.125529 1.659776-.125529C1.30411-.125529 .969365-.36264 .969365-.704359C.969365-1.08792 1.30411-1.624907 2.559402-1.673724V-.983313Z" id="3-g2-97"/>
    <path d="M3.591532-2.113076C3.591532-2.719801 3.291656-3.075467 2.545455-3.075467C1.973599-3.075467 1.603985-2.761644 1.408717-2.399004H1.401743V-3.075467L.376588-2.998755V-2.747696C.843836-2.747696 .899626-2.698879 .899626-2.357161V-.550934C.899626-.251059 .829888-.251059 .376588-.251059V0C.390535 0 .878705-.027895 1.171606-.027895C1.429639-.027895 1.910834-.006974 1.973599 0V-.251059C1.520299-.251059 1.45056-.251059 1.45056-.550934V-1.806227C1.45056-2.538481 2.02939-2.880199 2.489664-2.880199C2.977833-2.880199 3.040598-2.496638 3.040598-2.140971V-.550934C3.040598-.251059 2.970859-.251059 2.517559-.251059V0C2.531507 0 3.019676-.027895 3.312578-.027895C3.57061-.027895 4.051806-.006974 4.11457 0V-.251059C3.66127-.251059 3.591532-.251059 3.591532-.550934V-2.113076Z" id="3-g2-110"/>
   </defs>
   <g fill="rgb(0,0,0)" transform="translate(503.881235,320.762123) matrix(3 0 0 3 0 0)">
    <use x="-72.000004" xlink:href="#3-g1-117" y="-64.510268"/>
    <use x="-66.296809" xlink:href="#3-g0-48" y="-68.125632"/>
    <use x="-66.296809" xlink:href="#3-g2-97" y="-62.047337"/>
    <use x="-62.325568" xlink:href="#3-g2-110" y="-62.047337"/>
    <use x="-57.925379" xlink:href="#3-g2-97" y="-62.047337"/>
   </g>
  </g>
 </g>
</svg>
