<?xml version='1.0' encoding='UTF-8' standalone='no'?>
<svg height="304pt" viewBox="0 0 405 304" width="405pt" xmlns="http://www.w3.org/2000/svg" xmlns:xlink="http://www.w3.org/1999/xlink">
 <title>Figure 1</title>
 <desc>
Creator: GL2PS 1.4.2, (C) 1999-2020 C. Geuzaine
For: Octave
CreationDate: Mon Sep  8 18:48:46 2025
</desc>
 <defs/>
 <polygon fill="#ffffff" points="0,0 405,0 405,304 0,304"/>
 <g>
  <polygon fill="#ffffff" points="0,304 405,304 405,0 0,0" shape-rendering="crispEdges"/>
  <clipPath id="cp00405304">
   <polygon points="0,304 405,304 405,0 0,0"/>
  </clipPath>
  <g clip-path="url(#cp00405304)">
   <polygon fill="#ffffff" points="62.0075,270.829 367.225,270.829 367.225,33 62.0075,33" shape-rendering="crispEdges"/>
   <polyline fill="none" points="62.0075,270.829 62.0075,267.779" stroke="#262626" stroke-linecap="butt" stroke-linejoin="miter" stroke-width="0.5"/>
   <polyline fill="none" points="123.051,270.829 123.051,267.779" stroke="#262626" stroke-linecap="butt" stroke-linejoin="miter" stroke-width="0.5"/>
   <polyline fill="none" points="184.095,270.829 184.095,267.779" stroke="#262626" stroke-linecap="butt" stroke-linejoin="miter" stroke-width="0.5"/>
   <polyline fill="none" points="245.138,270.829 245.138,267.779" stroke="#262626" stroke-linecap="butt" stroke-linejoin="miter" stroke-width="0.5"/>
   <polyline fill="none" points="306.182,270.829 306.182,267.779" stroke="#262626" stroke-linecap="butt" stroke-linejoin="miter" stroke-width="0.5"/>
   <polyline fill="none" points="367.225,270.829 367.225,267.779" stroke="#262626" stroke-linecap="butt" stroke-linejoin="miter" stroke-width="0.5"/>
   <g font-family="FreeSans" font-size="10" font-style="normal" font-weight="normal" transform="translate(59.0076,286.324) rotate(-0,3,-8)" xml:space="preserve">
    <text fill="rgb(38,38,38)" x="0 " y="-0">0</text>
   </g>
   <g font-family="FreeSans" font-size="10" font-style="normal" font-weight="normal" transform="translate(115.551,286.324) rotate(-0,7.5,-8)" xml:space="preserve">
    <text fill="rgb(38,38,38)" x="0 6 9 " y="-0">0.2</text>
   </g>
   <g font-family="FreeSans" font-size="10" font-style="normal" font-weight="normal" transform="translate(176.595,286.324) rotate(-0,7.5,-8)" xml:space="preserve">
    <text fill="rgb(38,38,38)" x="0 6 9 " y="-0">0.4</text>
   </g>
   <g font-family="FreeSans" font-size="10" font-style="normal" font-weight="normal" transform="translate(237.638,286.324) rotate(-0,7.5,-8)" xml:space="preserve">
    <text fill="rgb(38,38,38)" x="0 6 9 " y="-0">0.6</text>
   </g>
   <g font-family="FreeSans" font-size="10" font-style="normal" font-weight="normal" transform="translate(298.682,286.324) rotate(-0,7.5,-8)" xml:space="preserve">
    <text fill="rgb(38,38,38)" x="0 6 9 " y="-0">0.8</text>
   </g>
   <g font-family="FreeSans" font-size="10" font-style="normal" font-weight="normal" transform="translate(364.225,286.324) rotate(-0,3,-8)" xml:space="preserve">
    <text fill="rgb(38,38,38)" x="0 " y="-0">1</text>
   </g>
   <polyline fill="none" points="62.0075,270.829 65.0619,270.829" stroke="#262626" stroke-linecap="butt" stroke-linejoin="miter" stroke-width="0.5"/>
   <polyline fill="none" points="62.0075,223.263 65.0619,223.263" stroke="#262626" stroke-linecap="butt" stroke-linejoin="miter" stroke-width="0.5"/>
   <polyline fill="none" points="62.0075,175.698 65.0619,175.698" stroke="#262626" stroke-linecap="butt" stroke-linejoin="miter" stroke-width="0.5"/>
   <polyline fill="none" points="62.0075,128.132 65.0619,128.132" stroke="#262626" stroke-linecap="butt" stroke-linejoin="miter" stroke-width="0.5"/>
   <polyline fill="none" points="62.0075,80.5659 65.0619,80.5659" stroke="#262626" stroke-linecap="butt" stroke-linejoin="miter" stroke-width="0.5"/>
   <polyline fill="none" points="62.0075,33 65.0619,33" stroke="#262626" stroke-linecap="butt" stroke-linejoin="miter" stroke-width="0.5"/>
   <g font-family="FreeSans" font-size="10" font-style="normal" font-weight="normal" transform="translate(36.004,274.829) rotate(-0,21,-4)" xml:space="preserve">
    <text fill="rgb(38,38,38)" x="0 3 9 15 " y="-0">-100</text>
   </g>
   <g font-family="FreeSans" font-size="10" font-style="normal" font-weight="normal" transform="translate(42.004,227.263) rotate(-0,15,-4)" xml:space="preserve">
    <text fill="rgb(38,38,38)" x="0 3 9 " y="-0">-50</text>
   </g>
   <g font-family="FreeSans" font-size="10" font-style="normal" font-weight="normal" transform="translate(51.004,179.698) rotate(-0,6,-4)" xml:space="preserve">
    <text fill="rgb(38,38,38)" x="0 " y="-0">0</text>
   </g>
   <g font-family="FreeSans" font-size="10" font-style="normal" font-weight="normal" transform="translate(45.004,132.132) rotate(-0,12,-4)" xml:space="preserve">
    <text fill="rgb(38,38,38)" x="0 6 " y="-0">50</text>
   </g>
   <g font-family="FreeSans" font-size="10" font-style="normal" font-weight="normal" transform="translate(39.004,84.5659) rotate(-0,18,-4)" xml:space="preserve">
    <text fill="rgb(38,38,38)" x="0 6 12 " y="-0">100</text>
   </g>
   <g font-family="FreeSans" font-size="10" font-style="normal" font-weight="normal" transform="translate(39.004,37) rotate(-0,18,-4)" xml:space="preserve">
    <text fill="rgb(38,38,38)" x="0 6 12 " y="-0">150</text>
   </g>
   <polyline fill="none" points="62.0075,270.829 367.225,270.829" stroke="#262626" stroke-dasharray="16,0" stroke-linecap="square" stroke-linejoin="miter" stroke-width="0.5"/>
   <polyline fill="none" points="62.0075,270.829 62.0075,33" stroke="#262626" stroke-dasharray="16,0" stroke-linecap="square" stroke-linejoin="miter" stroke-width="0.5"/>
   <defs>
    <path d="M2.859278-2.34122C3.158157-2.719801 3.536737-3.20797 3.775841-3.466999C4.084682-3.825654 4.493151-3.975093 4.961395-3.985056V-4.293898C4.702366-4.273973 4.403487-4.26401 4.144458-4.26401C3.845579-4.26401 3.317559-4.283935 3.188045-4.293898V-3.985056C3.39726-3.965131 3.476961-3.835616 3.476961-3.676214S3.377335-3.387298 3.327522-3.327522L2.709838-2.550436L1.932752-3.556663C1.843088-3.656289 1.843088-3.676214 1.843088-3.73599C1.843088-3.88543 1.992528-3.975093 2.191781-3.985056V-4.293898C1.932752-4.283935 1.275218-4.26401 1.115816-4.26401C.9066-4.26401 .438356-4.273973 .169365-4.293898V-3.985056C.86675-3.985056 .876712-3.975093 1.344956-3.377335L2.331258-2.092154L1.39477-.9066C.916563-.328767 .328767-.308842 .119552-.308842V0C.37858-.019925 .687422-.029888 .946451-.029888C1.235367-.029888 1.653798-.009963 1.892902 0V-.308842C1.673724-.33873 1.603985-.468244 1.603985-.617684C1.603985-.836862 1.892902-1.165629 2.500623-1.882939L3.257783-.886675C3.337484-.777086 3.466999-.617684 3.466999-.557908C3.466999-.468244 3.377335-.318804 3.108344-.308842V0C3.407223-.009963 3.965131-.029888 4.184309-.029888C4.4533-.029888 4.841843-.019925 5.140722 0V-.308842C4.60274-.308842 4.423412-.328767 4.194271-.617684L2.859278-2.34122Z" id="0-g0-120"/>
   </defs>
   <g fill="rgb(38,38,38)" transform="translate(422.616345,507.323987) matrix(3 0 0 3 0 0)">
    <use x="-72.000004" xlink:href="#0-g0-120" y="-67.710548"/>
   </g>
   <defs>
    <path d="M3.297634 2.391034C3.297634 2.361146 3.297634 2.34122 3.128269 2.171856C1.882939 .916563 1.564134-.966376 1.564134-2.49066C1.564134-4.224159 1.942715-5.957659 3.16812-7.202989C3.297634-7.32254 3.297634-7.342466 3.297634-7.372354C3.297634-7.442092 3.257783-7.47198 3.198007-7.47198C3.098381-7.47198 2.201743-6.794521 1.613948-5.529265C1.105853-4.433375 .986301-3.327522 .986301-2.49066C.986301-1.713574 1.09589-.508095 1.643836 .617684C2.241594 1.843088 3.098381 2.49066 3.198007 2.49066C3.257783 2.49066 3.297634 2.460772 3.297634 2.391034Z" id="1-g0-40"/>
    <path d="M2.879203-2.49066C2.879203-3.267746 2.769614-4.473225 2.221669-5.599004C1.62391-6.824408 .767123-7.47198 .667497-7.47198C.607721-7.47198 .56787-7.43213 .56787-7.372354C.56787-7.342466 .56787-7.32254 .757161-7.143213C1.733499-6.156912 2.30137-4.572852 2.30137-2.49066C2.30137-.787049 1.932752 .966376 .697385 2.221669C.56787 2.34122 .56787 2.361146 .56787 2.391034C.56787 2.450809 .607721 2.49066 .667497 2.49066C.767123 2.49066 1.663761 1.8132 2.251557 .547945C2.759651-.547945 2.879203-1.653798 2.879203-2.49066Z" id="1-g0-41"/>
    <path d="M3.895392-.787049V.109589L5.330012 0V-.308842C4.632628-.308842 4.552927-.37858 4.552927-.86675V-4.403487L3.088418-4.293898V-3.985056C3.785803-3.985056 3.865504-3.915318 3.865504-3.427148V-1.653798C3.865504-.787049 3.387298-.109589 2.660025-.109589C1.823163-.109589 1.783313-.577833 1.783313-1.09589V-4.403487L.318804-4.293898V-3.985056C1.09589-3.985056 1.09589-3.955168 1.09589-3.068493V-1.574097C1.09589-.797011 1.09589 .109589 2.610212 .109589C3.16812 .109589 3.606476-.169365 3.895392-.787049Z" id="1-g0-117"/>
    <path d="M2.859278-2.34122C3.158157-2.719801 3.536737-3.20797 3.775841-3.466999C4.084682-3.825654 4.493151-3.975093 4.961395-3.985056V-4.293898C4.702366-4.273973 4.403487-4.26401 4.144458-4.26401C3.845579-4.26401 3.317559-4.283935 3.188045-4.293898V-3.985056C3.39726-3.965131 3.476961-3.835616 3.476961-3.676214S3.377335-3.387298 3.327522-3.327522L2.709838-2.550436L1.932752-3.556663C1.843088-3.656289 1.843088-3.676214 1.843088-3.73599C1.843088-3.88543 1.992528-3.975093 2.191781-3.985056V-4.293898C1.932752-4.283935 1.275218-4.26401 1.115816-4.26401C.9066-4.26401 .438356-4.273973 .169365-4.293898V-3.985056C.86675-3.985056 .876712-3.975093 1.344956-3.377335L2.331258-2.092154L1.39477-.9066C.916563-.328767 .328767-.308842 .119552-.308842V0C.37858-.019925 .687422-.029888 .946451-.029888C1.235367-.029888 1.653798-.009963 1.892902 0V-.308842C1.673724-.33873 1.603985-.468244 1.603985-.617684C1.603985-.836862 1.892902-1.165629 2.500623-1.882939L3.257783-.886675C3.337484-.777086 3.466999-.617684 3.466999-.557908C3.466999-.468244 3.377335-.318804 3.108344-.308842V0C3.407223-.009963 3.965131-.029888 4.184309-.029888C4.4533-.029888 4.841843-.019925 5.140722 0V-.308842C4.60274-.308842 4.423412-.328767 4.194271-.617684L2.859278-2.34122Z" id="1-g0-120"/>
   </defs>
   <g fill="rgb(38,38,38)" transform="rotate(-90.000000,31.003990,151.914659) translate(220.004003,336.914672) matrix(3 0 0 3 0 0)">
    <use x="-72.000004" xlink:href="#1-g0-117" y="-64.528024"/>
    <use x="-66.465187" xlink:href="#1-g0-40" y="-64.528024"/>
    <use x="-62.590814" xlink:href="#1-g0-120" y="-64.528024"/>
    <use x="-57.332726" xlink:href="#1-g0-41" y="-64.528024"/>
   </g>
   <g font-family="FreeSans" font-size="30" font-style="normal" font-weight="bold" transform="translate(152.116,23) rotate(-0,62.5,0)" xml:space="preserve">
    <text fill="rgb(0,0,0)" x="0 20 38 46 64 81 89 107 " y="-0">Solución</text>
   </g>
   <polyline fill="none" points="280.523,140.361 282.671,157.121 284.803,174.009 286.918,190.458 289.014,205.99 291.093,220.229 293.153,232.893 295.193,243.796 297.214,252.833 299.215,259.972 301.194,265.242 303.153,268.717 305.089,270.507 307.004,270.745 308.896,269.58 310.764,267.166 312.609,263.657 314.43,259.201 316.227,253.938 317.998,247.993 319.744,241.48 321.465,234.5 323.159,227.137 324.826,219.463 326.467,211.539 328.08,203.413 329.665,195.126 331.222,186.715 332.75,178.209 334.249,169.639 335.719,161.033 337.159,152.43 338.569,143.875" stroke="#ff0000" stroke-linecap="butt" stroke-linejoin="round" stroke-width="0.5"/>
   <polyline fill="none" points="366.101,238.942 366.372,226.877 366.606,214.834 366.802,203.545 366.961,193.631 367.083,185.586 367.167,179.785 367.214,176.48" stroke="#ff0000" stroke-linecap="butt" stroke-linejoin="round" stroke-width="0.5"/>
   <polyline fill="none" points="62.0185,174.57 62.0654,169.853 62.1497,161.751 62.2714,150.894 62.4305,138.14 62.627,124.516 62.8608,111.15 63.1318,99.204 63.4401,89.7945 63.7854,83.9182 64.1678,82.3768 64.5871,85.6995 65.0433,94.068 65.5361,107.238 66.0656,124.457 66.6316,144.467 67.2338,165.796 67.8723,186.981 68.5468,206.722 69.2571,224.04 70.0032,238.446 70.7847,249.961 71.6016,258.766 72.4535,265.043 73.3404,268.965 74.2619,270.683 75.2179,270.352 76.2081,268.178 77.2324,264.427 78.2903,259.428 79.3817,253.514 80.5063,246.95 81.6638,239.91" stroke="#ff0000" stroke-linecap="butt" stroke-linejoin="round" stroke-width="0.5"/>
   <polyline fill="none" points="134.039,88.2728 136.08,92.9097 138.14,98.7466 140.218,105.815 142.315,114.124 144.43,123.655 146.561,134.353 148.71,146.126 150.875,158.831 153.055,172.279 155.251,186.224 157.461,200.368 159.685,214.353 161.922,227.777 164.173,240.191 166.436,251.12 168.71,260.077 170.996,266.584 173.293,270.203 175.6,270.561 177.916,267.39 180.242,260.55 182.576,250.067 184.917,236.157 187.266,219.24 189.622,199.943 191.984,179.095 194.351,157.694 196.724,136.864 199.1,117.795 201.481,101.664 203.865,89.552 206.251,82.3541" stroke="#ff0000" stroke-linecap="butt" stroke-linejoin="round" stroke-width="0.5"/>
   <polyline fill="none" points="338.569,143.875 339.949,135.423 341.298,127.139 342.615,119.101 343.902,111.412 345.156,104.202 346.379,97.619 347.569,91.8321 348.726,87.0236 349.851,83.3921 350.942,81.1594 352,80.5683 353.025,81.8727 354.015,85.2973 354.971,91.0064 355.892,99.1062 356.779,109.641 357.631,122.528 358.448,137.531 359.229,154.286 359.976,172.342 360.686,191.13 361.36,209.872 361.999,227.627 362.601,243.401 363.167,256.238 363.697,265.308 364.189,270.062 364.646,270.439 365.065,266.799 365.447,259.784 365.793,250.205 366.101,238.942" stroke="#ff0000" stroke-linecap="butt" stroke-linejoin="round" stroke-width="0.5"/>
   <polyline fill="none" points="81.6638,239.91 82.854,232.493 84.0765,224.79 85.3311,216.905 86.6174,208.952 87.9351,201.028 89.2839,193.185 90.6636,185.446 92.0736,177.826 93.5137,170.351 94.9836,163.048 96.4828,155.936 98.011,149.021 99.5678,142.306 101.153,135.801 102.766,129.52 104.406,123.479 106.074,117.693 107.768,112.18 109.488,106.966 111.234,102.084 113.006,97.5698 114.802,93.4644 116.623,89.8167 118.468,86.6821 120.337,84.1209 122.229,82.1997 124.143,80.9897 126.08,80.5657 128.038,81.0057 130.018,82.3873 132.019,84.7858 134.039,88.2728" stroke="#ff0000" stroke-linecap="butt" stroke-linejoin="round" stroke-width="0.5"/>
   <polyline fill="none" points="206.251,82.3541 208.64,80.6977 211.03,84.8752 213.421,94.7927 215.812,109.955 218.203,129.478 220.593,152.137 222.981,176.453 225.368,200.79 227.752,223.493 230.132,243.004 232.509,257.995 234.881,267.467 237.249,270.826 239.611,267.921 241.966,259.046 244.315,244.9 246.657,226.518 248.991,205.179 251.316,182.296 253.633,159.307 255.94,137.572 258.236,118.281 260.522,102.396 262.797,90.6024 265.06,83.2957 267.31,80.5872 269.548,82.3321 271.772,88.1665 273.982,97.56 276.178,109.866 278.358,124.375 280.523,140.361" stroke="#ff0000" stroke-linecap="butt" stroke-linejoin="round" stroke-width="0.5"/>
   <polyline fill="none" points="134.039,88.2727 136.08,92.9098 138.14,98.7465 140.218,105.815 142.315,114.124 144.43,123.655 146.561,134.354 148.71,146.125 150.875,158.831 153.055,172.279 155.251,186.224 157.461,200.368 159.685,214.353 161.922,227.777 164.173,240.191 166.436,251.12 168.71,260.077 170.996,266.584 173.293,270.203 175.6,270.562 177.916,267.39 180.242,260.55 182.576,250.067 184.917,236.157 187.266,219.24 189.622,199.943 191.984,179.095 194.351,157.693 196.724,136.864 199.1,117.795 201.481,101.664 203.865,89.5521 206.251,82.3539" stroke="#0000ff" stroke-linecap="butt" stroke-linejoin="round" stroke-width="0.5"/>
   <polyline fill="none" points="62.0185,174.693 62.0654,170.437 62.1497,162.937 62.2714,152.526 62.4305,139.799 62.627,125.675 62.8608,111.382 63.1318,98.3683 63.4401,88.1211 63.7854,81.9488 64.1678,80.7743 64.5871,84.9952 65.0433,94.4419 65.5361,108.437 66.0656,125.927 66.6316,145.656 67.2338,166.332 67.8723,186.765 68.5468,205.963 69.2571,223.174 70.0032,237.901 70.7847,249.877 71.6016,259.028 72.4535,265.429 73.3404,269.263 74.2619,270.779 75.2179,270.261 76.2081,268.004 77.2324,264.296 78.2903,259.407 79.3817,253.579 80.5063,247.029 81.6638,239.941" stroke="#0000ff" stroke-linecap="butt" stroke-linejoin="round" stroke-width="0.5"/>
   <polyline fill="none" points="280.523,140.36 282.671,157.121 284.803,174.009 286.918,190.458 289.014,205.99 291.093,220.229 293.153,232.893 295.193,243.796 297.214,252.833 299.215,259.973 301.194,265.242 303.153,268.717 305.089,270.507 307.004,270.745 308.896,269.58 310.764,267.166 312.609,263.657 314.43,259.202 316.227,253.938 317.998,247.993 319.744,241.481 321.465,234.5 323.159,227.137 324.826,219.463 326.467,211.538 328.08,203.413 329.665,195.126 331.222,186.715 332.75,178.209 334.249,169.638 335.719,161.033 337.159,152.432 338.569,143.877" stroke="#0000ff" stroke-linecap="butt" stroke-linejoin="round" stroke-width="0.5"/>
   <polyline fill="none" points="366.101,239.224 366.372,226.803 366.606,214.461 366.802,203.019 366.961,193.119 367.083,185.218 367.167,179.606 367.214,176.443" stroke="#0000ff" stroke-linecap="butt" stroke-linejoin="round" stroke-width="0.5"/>
   <polyline fill="none" points="206.251,82.3539 208.64,80.6977 211.03,84.8749 213.421,94.7927 215.812,109.955 218.203,129.478 220.593,152.138 222.981,176.453 225.368,200.791 227.752,223.493 230.132,243.004 232.509,257.995 234.881,267.467 237.249,270.826 239.611,267.921 241.966,259.046 244.315,244.9 246.657,226.518 248.991,205.179 251.316,182.296 253.633,159.307 255.94,137.571 258.236,118.281 260.522,102.396 262.797,90.6025 265.06,83.2957 267.31,80.5874 269.548,82.332 271.772,88.1665 273.982,97.5599 276.178,109.866 278.358,124.375 280.523,140.36" stroke="#0000ff" stroke-linecap="butt" stroke-linejoin="round" stroke-width="0.5"/>
   <polyline fill="none" points="81.6638,239.941 82.854,232.471 84.0765,224.751 85.3311,216.886 86.6174,208.962 87.9351,201.047 89.2839,193.193 90.6636,185.439 92.0736,177.818 93.5137,170.35 94.9836,163.053 96.4828,155.939 98.011,149.02 99.5678,142.303 101.153,135.8 102.766,129.521 104.406,123.479 106.074,117.692 107.768,112.179 109.488,106.967 111.234,102.085 113.006,97.5698 114.802,93.4643 116.623,89.8168 118.468,86.6821 120.337,84.1208 122.229,82.1996 124.143,80.9896 126.08,80.5659 128.038,81.0058 130.018,82.3872 132.019,84.7859 134.039,88.2727" stroke="#0000ff" stroke-linecap="butt" stroke-linejoin="round" stroke-width="0.5"/>
   <polyline fill="none" points="338.569,143.877 339.949,135.422 341.298,127.135 342.615,119.099 343.902,111.416 345.156,104.209 346.379,97.6234 347.569,91.8264 348.726,87.0082 349.851,83.3788 350.942,81.1635 352,80.5957 353.025,81.9066 354.015,85.3107 354.971,90.9877 355.892,99.0606 356.779,109.571 357.631,122.452 358.448,137.505 359.229,154.379 359.976,172.559 360.686,191.371 361.36,210.005 361.999,227.557 362.601,243.101 363.167,255.768 363.697,264.843 364.189,269.849 364.646,270.618 365.065,267.319 365.447,260.45 365.793,250.772 366.101,239.224" stroke="#0000ff" stroke-linecap="butt" stroke-linejoin="round" stroke-width="0.5"/>
  </g>
  <clipPath id="cp00405304">
   <polygon points="0,304 405,304 405,0 0,0"/>
  </clipPath>
  <g clip-path="url(#cp00405304)">
   <polygon fill="#ffffff" points="246.479,145.378 355.396,145.378 355.396,44.8293 246.479,44.8293" shape-rendering="crispEdges"/>
   <polyline fill="none" points="246.479,145.378 355.396,145.378" stroke="#262626" stroke-dasharray="16,0" stroke-linecap="square" stroke-linejoin="miter" stroke-width="0.5"/>
   <polyline fill="none" points="246.479,44.8293 355.396,44.8293" stroke="#262626" stroke-dasharray="16,0" stroke-linecap="square" stroke-linejoin="miter" stroke-width="0.5"/>
   <polyline fill="none" points="246.479,145.378 246.479,44.8293" stroke="#262626" stroke-dasharray="16,0" stroke-linecap="square" stroke-linejoin="miter" stroke-width="0.5"/>
   <polyline fill="none" points="355.396,145.378 355.396,44.8293" stroke="#262626" stroke-dasharray="16,0" stroke-linecap="square" stroke-linejoin="miter" stroke-width="0.5"/>
   <polyline fill="none" points="252.393,71.4451 281.967,71.4451" stroke="#ff0000" stroke-linecap="butt" stroke-linejoin="round" stroke-width="0.5"/>
   <defs>
    <path d="M3.486924-.557908C3.596513-.14944 3.945205 .109589 4.373599 .109589C4.722291 .109589 4.951432-.119552 5.110834-.438356C5.280199-.797011 5.409714-1.404732 5.409714-1.424658C5.409714-1.524284 5.32005-1.524284 5.290162-1.524284C5.190535-1.524284 5.180573-1.484433 5.150685-1.344956C5.011208-.787049 4.821918-.109589 4.403487-.109589C4.194271-.109589 4.094645-.239103 4.094645-.56787C4.094645-.787049 4.214197-1.255293 4.293898-1.603985L4.572852-2.67995C4.60274-2.82939 4.702366-3.20797 4.742217-3.35741C4.79203-3.58655 4.891656-3.965131 4.891656-4.024907C4.891656-4.204234 4.752179-4.293898 4.60274-4.293898C4.552927-4.293898 4.293898-4.283935 4.214197-3.945205C4.024907-3.217933 3.58655-1.474471 3.466999-.946451C3.457036-.9066 3.058531-.109589 2.331258-.109589C1.8132-.109589 1.713574-.557908 1.713574-.926526C1.713574-1.484433 1.992528-2.271482 2.251557-2.958904C2.371108-3.257783 2.420922-3.39726 2.420922-3.58655C2.420922-4.034869 2.102117-4.403487 1.603985-4.403487C.657534-4.403487 .288917-2.958904 .288917-2.86924C.288917-2.769614 .388543-2.769614 .408468-2.769614C.508095-2.769614 .518057-2.789539 .56787-2.948941C.816936-3.815691 1.195517-4.184309 1.574097-4.184309C1.663761-4.184309 1.823163-4.174346 1.823163-3.855542C1.823163-3.616438 1.713574-3.327522 1.653798-3.178082C1.285181-2.191781 1.075965-1.574097 1.075965-1.085928C1.075965-.139477 1.763387 .109589 2.30137 .109589C2.958904 .109589 3.317559-.33873 3.486924-.557908Z" id="2-g0-117"/>
    <path d="M5.732503-2.113076C5.732503-2.719801 5.432628-3.075467 4.686426-3.075467C4.135492-3.075467 3.758904-2.775592 3.57061-2.426899C3.431133-2.922042 3.054545-3.075467 2.545455-3.075467C1.973599-3.075467 1.603985-2.761644 1.408717-2.399004H1.401743V-3.075467L.376588-2.998755V-2.747696C.843836-2.747696 .899626-2.698879 .899626-2.357161V-.550934C.899626-.251059 .829888-.251059 .376588-.251059V0C.390535 0 .878705-.027895 1.171606-.027895C1.429639-.027895 1.910834-.006974 1.973599 0V-.251059C1.520299-.251059 1.45056-.251059 1.45056-.550934V-1.806227C1.45056-2.538481 2.02939-2.880199 2.489664-2.880199C2.977833-2.880199 3.040598-2.496638 3.040598-2.140971V-.550934C3.040598-.251059 2.970859-.251059 2.517559-.251059V0C2.531507 0 3.019676-.027895 3.312578-.027895C3.57061-.027895 4.051806-.006974 4.11457 0V-.251059C3.66127-.251059 3.591532-.251059 3.591532-.550934V-1.806227C3.591532-2.538481 4.170361-2.880199 4.630635-2.880199C5.118804-2.880199 5.181569-2.496638 5.181569-2.140971V-.550934C5.181569-.251059 5.111831-.251059 4.658531-.251059V0C4.672478 0 5.160648-.027895 5.453549-.027895C5.711582-.027895 6.192777-.006974 6.255542 0V-.251059C5.802242-.251059 5.732503-.251059 5.732503-.550934V-2.113076Z" id="2-g1-109"/>
    <path d="M3.591532-2.113076C3.591532-2.719801 3.291656-3.075467 2.545455-3.075467C1.973599-3.075467 1.603985-2.761644 1.408717-2.399004H1.401743V-3.075467L.376588-2.998755V-2.747696C.843836-2.747696 .899626-2.698879 .899626-2.357161V-.550934C.899626-.251059 .829888-.251059 .376588-.251059V0C.390535 0 .878705-.027895 1.171606-.027895C1.429639-.027895 1.910834-.006974 1.973599 0V-.251059C1.520299-.251059 1.45056-.251059 1.45056-.550934V-1.806227C1.45056-2.538481 2.02939-2.880199 2.489664-2.880199C2.977833-2.880199 3.040598-2.496638 3.040598-2.140971V-.550934C3.040598-.251059 2.970859-.251059 2.517559-.251059V0C2.531507 0 3.019676-.027895 3.312578-.027895C3.57061-.027895 4.051806-.006974 4.11457 0V-.251059C3.66127-.251059 3.591532-.251059 3.591532-.550934V-2.113076Z" id="2-g1-110"/>
    <path d="M2.517559-2.998755V-2.747696C2.984807-2.747696 3.040598-2.698879 3.040598-2.357161V-1.164633C3.040598-.550934 2.643088-.125529 2.113076-.125529C1.478456-.125529 1.45056-.425405 1.45056-.781071V-3.075467L.376588-2.998755V-2.747696C.899626-2.747696 .899626-2.726775 .899626-2.106102V-1.060025C.899626-.578829 .899626 .069738 2.064259 .069738C2.217684 .069738 2.726775 .069738 3.061519-.516065H3.068493V.069738L4.11457 0V-.251059C3.647323-.251059 3.591532-.299875 3.591532-.641594V-3.075467L2.517559-2.998755Z" id="2-g1-117"/>
   </defs>
   <g fill="rgb(0,0,0)" transform="translate(503.881235,278.945131) matrix(3 0 0 3 0 0)">
    <use x="-72.000004" xlink:href="#2-g0-117" y="-67.710548"/>
    <use x="-66.296809" xlink:href="#2-g1-110" y="-66.216167"/>
    <use x="-62.111101" xlink:href="#2-g1-117" y="-66.216167"/>
    <use x="-57.710912" xlink:href="#2-g1-109" y="-66.216167"/>
   </g>
   <polyline fill="none" points="252.393,118.762 281.967,118.762" stroke="#0000ff" stroke-linecap="butt" stroke-linejoin="round" stroke-width="0.5"/>
   <defs>
    <path d="M3.486924-.557908C3.596513-.14944 3.945205 .109589 4.373599 .109589C4.722291 .109589 4.951432-.119552 5.110834-.438356C5.280199-.797011 5.409714-1.404732 5.409714-1.424658C5.409714-1.524284 5.32005-1.524284 5.290162-1.524284C5.190535-1.524284 5.180573-1.484433 5.150685-1.344956C5.011208-.787049 4.821918-.109589 4.403487-.109589C4.194271-.109589 4.094645-.239103 4.094645-.56787C4.094645-.787049 4.214197-1.255293 4.293898-1.603985L4.572852-2.67995C4.60274-2.82939 4.702366-3.20797 4.742217-3.35741C4.79203-3.58655 4.891656-3.965131 4.891656-4.024907C4.891656-4.204234 4.752179-4.293898 4.60274-4.293898C4.552927-4.293898 4.293898-4.283935 4.214197-3.945205C4.024907-3.217933 3.58655-1.474471 3.466999-.946451C3.457036-.9066 3.058531-.109589 2.331258-.109589C1.8132-.109589 1.713574-.557908 1.713574-.926526C1.713574-1.484433 1.992528-2.271482 2.251557-2.958904C2.371108-3.257783 2.420922-3.39726 2.420922-3.58655C2.420922-4.034869 2.102117-4.403487 1.603985-4.403487C.657534-4.403487 .288917-2.958904 .288917-2.86924C.288917-2.769614 .388543-2.769614 .408468-2.769614C.508095-2.769614 .518057-2.789539 .56787-2.948941C.816936-3.815691 1.195517-4.184309 1.574097-4.184309C1.663761-4.184309 1.823163-4.174346 1.823163-3.855542C1.823163-3.616438 1.713574-3.327522 1.653798-3.178082C1.285181-2.191781 1.075965-1.574097 1.075965-1.085928C1.075965-.139477 1.763387 .109589 2.30137 .109589C2.958904 .109589 3.317559-.33873 3.486924-.557908Z" id="3-g0-117"/>
    <path d="M3.110336-1.868991C3.110336-2.238605 3.110336-2.503611 2.789539-2.761644C2.503611-2.998755 2.168867-3.110336 1.75741-3.110336C1.094894-3.110336 .627646-2.859278 .627646-2.433873C.627646-2.21071 .781071-2.092154 .962391-2.092154C1.150685-2.092154 1.290162-2.231631 1.290162-2.419925C1.290162-2.538481 1.234371-2.684932 1.046077-2.740722C1.297136-2.915068 1.701619-2.915068 1.743462-2.915068C2.133998-2.915068 2.559402-2.657036 2.559402-2.071233V-1.855044C2.175841-1.841096 1.715567-1.820174 1.206476-1.63188C.578829-1.401743 .383562-1.018182 .383562-.704359C.383562-.104608 1.108842 .069738 1.603985 .069738C2.161893 .069738 2.489664-.244085 2.636115-.516065C2.66401-.230137 2.852304 .034869 3.173101 .034869C3.187049 .034869 3.863512 .034869 3.863512-.627646V-1.011208H3.626401V-.63462C3.626401-.564882 3.626401-.230137 3.368369-.230137S3.110336-.557908 3.110336-.648568V-1.868991ZM2.559402-.983313C2.559402-.313823 1.973599-.125529 1.659776-.125529C1.30411-.125529 .969365-.36264 .969365-.704359C.969365-1.08792 1.30411-1.624907 2.559402-1.673724V-.983313Z" id="3-g1-97"/>
    <path d="M3.591532-2.113076C3.591532-2.719801 3.291656-3.075467 2.545455-3.075467C1.973599-3.075467 1.603985-2.761644 1.408717-2.399004H1.401743V-3.075467L.376588-2.998755V-2.747696C.843836-2.747696 .899626-2.698879 .899626-2.357161V-.550934C.899626-.251059 .829888-.251059 .376588-.251059V0C.390535 0 .878705-.027895 1.171606-.027895C1.429639-.027895 1.910834-.006974 1.973599 0V-.251059C1.520299-.251059 1.45056-.251059 1.45056-.550934V-1.806227C1.45056-2.538481 2.02939-2.880199 2.489664-2.880199C2.977833-2.880199 3.040598-2.496638 3.040598-2.140971V-.550934C3.040598-.251059 2.970859-.251059 2.517559-.251059V0C2.531507 0 3.019676-.027895 3.312578-.027895C3.57061-.027895 4.051806-.006974 4.11457 0V-.251059C3.66127-.251059 3.591532-.251059 3.591532-.550934V-2.113076Z" id="3-g1-110"/>
   </defs>
   <g fill="rgb(0,0,0)" transform="translate(503.881235,326.262157) matrix(3 0 0 3 0 0)">
    <use x="-72.000004" xlink:href="#3-g0-117" y="-67.710548"/>
    <use x="-66.296809" xlink:href="#3-g1-97" y="-66.216167"/>
    <use x="-62.325568" xlink:href="#3-g1-110" y="-66.216167"/>
    <use x="-57.925379" xlink:href="#3-g1-97" y="-66.216167"/>
   </g>
  </g>
 </g>
</svg>
